<svg width="40" height="40" viewBox="0 0 40 40" fill="none" xmlns="http://www.w3.org/2000/svg">
<rect width="40" height="40" fill="#E5E5E5"/>
<g clip-path="url(#clip0_1871_2887)">
<rect width="375" height="843" transform="translate(-308 -164)" fill="white"/>
<rect x="-131" y="21" width="145" height="169" rx="12" fill="#F6F8FB"/>
<rect x="-35" y="38" width="38" height="16" rx="4" fill="white"/>
<rect x="30" y="21" width="145" height="172" rx="12" fill="#F6F8FB"/>
<rect opacity="0.6" x="-308" y="-164" width="375" height="812" fill="#001029"/>
<path d="M-308 -8C-308 -21.2548 -297.255 -32 -284 -32H43C56.2548 -32 67 -21.2548 67 -8V763H-308V-8Z" fill="white"/>
<rect x="0.5" y="0.5" width="39" height="39" rx="11.5" stroke="#E3EBFF"/>
<path d="M20 13V27" stroke="#112866" stroke-width="2" stroke-linecap="round" stroke-linejoin="round"/>
<path d="M13 20H27" stroke="#112866" stroke-width="2" stroke-linecap="round" stroke-linejoin="round"/>
</g>
<defs>
<clipPath id="clip0_1871_2887">
<rect width="375" height="843" fill="white" transform="translate(-308 -164)"/>
</clipPath>
</defs>
</svg>
