<svg width="8" height="12" viewBox="0 0 8 12" fill="none" xmlns="http://www.w3.org/2000/svg">
<path d="M3.28982 5.99995L6.82982 2.45995C7.01607 2.27259 7.12061 2.01913 7.12061 1.75495C7.12061 1.49076 7.01607 1.23731 6.82982 1.04995C6.73686 0.95622 6.62626 0.881826 6.5044 0.831057C6.38254 0.780288 6.25183 0.75415 6.11982 0.75415C5.98781 0.75415 5.8571 0.780288 5.73524 0.831057C5.61339 0.881826 5.50278 0.95622 5.40982 1.04995L1.16982 5.28995C1.07609 5.38291 1.0017 5.49351 0.950931 5.61537C0.900162 5.73723 0.874023 5.86794 0.874023 5.99995C0.874023 6.13196 0.900162 6.26267 0.950931 6.38453C1.0017 6.50638 1.07609 6.61699 1.16982 6.70995L5.40982 10.9999C5.50326 11.0926 5.61408 11.166 5.73592 11.2157C5.85775 11.2655 5.98821 11.2907 6.11982 11.2899C6.25143 11.2907 6.38189 11.2655 6.50373 11.2157C6.62557 11.166 6.73638 11.0926 6.82982 10.9999C7.01607 10.8126 7.12061 10.5591 7.12061 10.2949C7.12061 10.0308 7.01607 9.77731 6.82982 9.58995L3.28982 5.99995Z" fill="#112866"/>
</svg>
