<svg width="22" height="22" viewBox="0 0 22 22" fill="none" xmlns="http://www.w3.org/2000/svg">
<path d="M17.1111 2.48164C16.6069 2.48164 16.1211 2.55919 15.6634 2.70312C15.1213 1.13039 13.651 0 11.9167 0C10.0564 0 8.49933 1.30038 8.06728 3.05304C7.6065 2.6994 7.03939 2.48164 6.41667 2.48164C4.89806 2.48164 3.66667 3.73176 3.66667 5.27348C3.66667 5.64821 3.74183 6.00432 3.87383 6.33066C3.61167 6.25683 3.34094 6.2041 3.05556 6.2041C1.36767 6.2041 0 7.59257 0 9.30614C0 11.0197 1.36767 12.4082 3.05556 12.4082H17.1111C19.811 12.4082 22 10.1865 22 7.44492C22 4.70395 19.811 2.48164 17.1111 2.48164Z" fill="#E1E8ED"/>
<path d="M7.33302 15.4861L7.26396 13.3636L5.51008 14.4233C5.12019 14.6373 4.86108 15.0586 4.87696 15.5394C4.89958 16.2237 5.4673 16.7654 6.14563 16.7511C6.82335 16.7368 7.35563 16.1698 7.33302 15.4861ZM6.12363 20.1143L6.05458 17.9919L4.30069 19.0516C3.9108 19.2656 3.65169 19.6869 3.66758 20.1677C3.69019 20.852 4.25791 21.3936 4.93624 21.3793C5.61458 21.3651 6.14624 20.798 6.12363 20.1143ZM3.06808 17.3473L2.99902 15.2249L1.24513 16.2845C0.855242 16.4986 0.596131 16.9198 0.61202 17.4007C0.634631 18.0843 1.20235 18.626 1.88069 18.6123C2.55902 18.598 3.09069 18.031 3.06808 17.3473ZM14.0681 15.4861L13.999 13.3636L12.2457 14.4233C11.8552 14.6373 11.5967 15.0586 11.6126 15.5394C11.6352 16.2237 12.203 16.7654 12.8813 16.7511C13.559 16.7368 14.0907 16.1698 14.0681 15.4861ZM10.3886 17.9677L10.3195 15.8453L8.56624 16.9049C8.17574 17.119 7.91724 17.5402 7.93313 18.0211C7.95574 18.7054 8.52346 19.247 9.2018 19.2327C9.87952 19.2185 10.4112 18.6514 10.3886 17.9677ZM13.457 20.7347L13.3873 18.6123L11.634 19.672C11.2435 19.886 10.985 20.3073 11.0009 20.7881C11.0235 21.4724 11.5912 22.014 12.2696 21.9997C12.9479 21.9855 13.4796 21.4184 13.457 20.7347ZM17.7219 17.3473L17.6529 15.2249L15.8996 16.2845C15.5091 16.4986 15.2506 16.9198 15.2665 17.4007C15.2891 18.085 15.8568 18.6266 16.5351 18.6123C17.2129 18.598 17.7445 18.031 17.7219 17.3473Z" fill="#007AFF"/>
</svg>
