<svg width="30" height="33" viewBox="0 0 30 33" fill="none" xmlns="http://www.w3.org/2000/svg">
<g filter="url(#filter0_i_7845_13655)">
<path d="M9.43429 10.1802C5.85429 7.83523 0.714294 2.55594 0.714294 1.22523C0.714294 -0.936199 2.05715 -0.338342 6.55215 3.82309C8.88644 5.9838 11.0622 7.75166 11.3872 7.75166C11.7122 7.75166 12.505 6.94809 13.1486 5.96594C14.8864 3.31309 17.0029 3.7388 20.8329 7.51166C23.6929 10.3288 24.3843 10.7017 25.3129 9.93166C27.0264 8.50951 28.3272 9.51023 28.8272 12.6338C29.49 16.7802 28.8957 17.7517 25.6964 17.7517C24.1993 17.7517 22.4657 17.5567 21.8443 17.3181C20.5764 16.8317 20.3421 14.8381 21.4257 13.7545C21.8979 13.2824 21.0807 12.0067 18.9943 9.9588C15.9607 6.98166 15.8236 6.92666 15.0522 8.36809C13.6779 10.9367 11.6072 11.6045 9.43429 10.1802Z" fill="#EA5052"/>
</g>
<g filter="url(#filter1_i_7845_13655)">
<rect y="12.1429" width="8.57143" height="20" rx="2.85714" fill="#007AFF"/>
<rect x="10.7143" y="18.0688" width="8.57143" height="14.0741" rx="2.85714" fill="#007AFF"/>
<rect x="21.4286" y="21.7725" width="8.57143" height="10.3704" rx="2.85714" fill="#007AFF"/>
</g>
<defs>
<filter id="filter0_i_7845_13655" x="0.714294" y="0" width="28.3544" height="19.7517" filterUnits="userSpaceOnUse" color-interpolation-filters="sRGB">
<feFlood flood-opacity="0" result="BackgroundImageFix"/>
<feBlend mode="normal" in="SourceGraphic" in2="BackgroundImageFix" result="shape"/>
<feColorMatrix in="SourceAlpha" type="matrix" values="0 0 0 0 0 0 0 0 0 0 0 0 0 0 0 0 0 0 127 0" result="hardAlpha"/>
<feOffset dy="2"/>
<feGaussianBlur stdDeviation="2"/>
<feComposite in2="hardAlpha" operator="arithmetic" k2="-1" k3="1"/>
<feColorMatrix type="matrix" values="0 0 0 0 1 0 0 0 0 1 0 0 0 0 1 0 0 0 0.33 0"/>
<feBlend mode="normal" in2="shape" result="effect1_innerShadow_7845_13655"/>
</filter>
<filter id="filter1_i_7845_13655" x="0" y="12.1429" width="32" height="20" filterUnits="userSpaceOnUse" color-interpolation-filters="sRGB">
<feFlood flood-opacity="0" result="BackgroundImageFix"/>
<feBlend mode="normal" in="SourceGraphic" in2="BackgroundImageFix" result="shape"/>
<feColorMatrix in="SourceAlpha" type="matrix" values="0 0 0 0 0 0 0 0 0 0 0 0 0 0 0 0 0 0 127 0" result="hardAlpha"/>
<feOffset dx="2"/>
<feGaussianBlur stdDeviation="2"/>
<feComposite in2="hardAlpha" operator="arithmetic" k2="-1" k3="1"/>
<feColorMatrix type="matrix" values="0 0 0 0 1 0 0 0 0 1 0 0 0 0 1 0 0 0 0.25 0"/>
<feBlend mode="normal" in2="shape" result="effect1_innerShadow_7845_13655"/>
</filter>
</defs>
</svg>
