<svg width="25" height="24" viewBox="0 0 25 24" fill="none" xmlns="http://www.w3.org/2000/svg">
<g clip-path="url(#clip0_2754_8255)">
<path d="M14.2295 21C14.0537 21.3031 13.8014 21.5547 13.4978 21.7295C13.1941 21.9044 12.8499 21.9965 12.4995 21.9965C12.1492 21.9965 11.8049 21.9044 11.5013 21.7295C11.1977 21.5547 10.9453 21.3031 10.7695 21" stroke="#112866" stroke-width="2" stroke-linecap="round" stroke-linejoin="round"/>
<path d="M19.1303 13C18.6855 11.3714 18.4734 9.68804 18.5003 8" stroke="#112866" stroke-width="2" stroke-linecap="round" stroke-linejoin="round"/>
<path d="M6.76 6.26001C6.58627 6.82362 6.49861 7.41023 6.5 8.00001C6.5 15 3.5 17 3.5 17H17.5" stroke="#112866" stroke-width="2" stroke-linecap="round" stroke-linejoin="round"/>
<path d="M18.4999 7.99999C18.5015 6.91306 18.2079 5.8461 17.6503 4.91308C17.0927 3.98007 16.2921 3.21605 15.334 2.70263C14.376 2.18921 13.2965 1.94569 12.2108 1.99806C11.1251 2.05043 10.0741 2.39674 9.16992 2.99999" stroke="#112866" stroke-width="2" stroke-linecap="round" stroke-linejoin="round"/>
<path d="M1.5 1L23.5 23" stroke="#112866" stroke-width="2" stroke-linecap="round" stroke-linejoin="round"/>
</g>
<defs>
<clipPath id="clip0_2754_8255">
<rect width="24" height="24" fill="white" transform="translate(0.5)"/>
</clipPath>
</defs>
</svg>
