<svg width="84" height="39" viewBox="0 0 84 39" fill="none" xmlns="http://www.w3.org/2000/svg">
<g clip-path="url(#clip0_2616_4594)">
<rect y="11.2471" width="28.5411" height="28.5411" transform="rotate(-15 0 11.2471)" fill="#658DF3"/>
<g clip-path="url(#clip1_2616_4594)">
<path d="M25.1286 20.9295L24.3628 21.1347L22.1057 12.711C22.0513 12.5079 21.9184 12.3347 21.7363 12.2296C21.5542 12.1244 21.3378 12.096 21.1347 12.1504L10.4136 15.0231C10.2105 15.0775 10.0373 15.2104 9.93219 15.3925C9.82706 15.5746 9.79857 15.791 9.85299 15.9941L12.1101 24.4178L11.3443 24.623C11.1412 24.6774 10.9681 24.8103 10.8629 24.9924C10.7578 25.1745 10.7293 25.3909 10.7837 25.594C10.8381 25.7971 10.971 25.9702 11.1531 26.0754C11.3352 26.1805 11.5516 26.209 11.7547 26.1546L17.8811 24.513L18.117 25.3937L15.2483 28.6247C15.129 28.7515 15.0548 28.914 15.0371 29.0871C15.0194 29.2603 15.0591 29.4344 15.1502 29.5828C15.2413 29.7311 15.3787 29.8453 15.5411 29.9078C15.7036 29.9703 15.882 29.9776 16.049 29.9286C16.2001 29.8899 16.3352 29.8049 16.4354 29.6855L18.6095 27.2316L18.907 28.342C18.9614 28.5451 19.0943 28.7183 19.2764 28.8234C19.4585 28.9285 19.6749 28.957 19.878 28.9026C20.0811 28.8482 20.2543 28.7153 20.3594 28.5332C20.4645 28.3511 20.493 28.1347 20.4386 27.9316L20.1411 26.8212L23.2509 27.8593C23.3974 27.9126 23.5569 27.9187 23.707 27.8766C23.8703 27.8315 24.0148 27.7353 24.1194 27.6021C24.224 27.4689 24.2832 27.3057 24.2883 27.1363C24.2934 26.967 24.2442 26.8005 24.1478 26.6613C24.0514 26.522 23.9129 26.4172 23.7527 26.3624L19.6527 24.9986L19.4126 24.1026L25.539 22.4611C25.7421 22.4067 25.9153 22.2738 26.0204 22.0917C26.1255 21.9096 26.154 21.6932 26.0996 21.4901C26.0452 21.287 25.9123 21.1138 25.7302 21.0087C25.5481 20.9036 25.3317 20.8751 25.1286 20.9295ZM22.8312 21.5451L13.6417 24.0074L11.5898 16.3495L20.7793 13.8872L22.8312 21.5451ZM15.5287 21.8602C15.6547 21.8258 15.7702 21.7608 15.8649 21.6709C15.9597 21.5811 16.0308 21.4693 16.072 21.3453L16.6801 19.5408L17.7794 20.182C17.8814 20.2413 17.9953 20.2771 18.1129 20.2868C18.2305 20.2964 18.3488 20.2797 18.4592 20.2378C18.5687 20.1952 18.6675 20.1287 18.7482 20.0432C18.8289 19.9577 18.8896 19.8553 18.9258 19.7434L19.8418 17.0357C19.887 16.8434 19.8587 16.6411 19.7625 16.4686C19.6664 16.296 19.5093 16.1656 19.322 16.1028C19.1347 16.04 18.9307 16.0494 18.75 16.1292C18.5692 16.2089 18.4248 16.3533 18.3449 16.5339L17.7368 18.3384L16.6375 17.6973C16.5355 17.638 16.4216 17.6022 16.304 17.5925C16.1863 17.5828 16.0681 17.5995 15.9577 17.6414C15.8482 17.6841 15.7494 17.7505 15.6687 17.836C15.588 17.9216 15.5273 18.024 15.491 18.1358L14.575 20.8436C14.5094 21.0421 14.5249 21.2585 14.6181 21.4457C14.7113 21.6328 14.8747 21.7756 15.0726 21.8429C15.2191 21.8962 15.3786 21.9023 15.5287 21.8602Z" fill="white"/>
</g>
</g>
<g clip-path="url(#clip2_2616_4594)">
<rect x="56.3867" y="3" width="28.5411" height="28.5411" transform="rotate(15 56.3867 3)" fill="#1FE4FF"/>
<g clip-path="url(#clip3_2616_4594)">
<path d="M73.3075 23.9493L72.5417 23.7441L74.7988 15.3204C74.8532 15.1173 74.8247 14.9009 74.7196 14.7188C74.6145 14.5367 74.4413 14.4038 74.2382 14.3494L63.5171 11.4767C63.314 11.4222 63.0976 11.4507 62.9155 11.5559C62.7334 11.661 62.6005 11.8342 62.5461 12.0373L60.289 20.461L59.5232 20.2558C59.3201 20.2014 59.1037 20.2299 58.9216 20.335C58.7395 20.4401 58.6066 20.6133 58.5522 20.8164C58.4978 21.0195 58.5263 21.2359 58.6314 21.418C58.7365 21.6001 58.9097 21.733 59.1128 21.7874L65.2392 23.4289L65.0032 24.3096L60.9032 25.6733C60.7366 25.7235 60.5911 25.8272 60.4892 25.9682C60.3872 26.1093 60.3346 26.28 60.3393 26.454C60.344 26.628 60.4059 26.7956 60.5153 26.9309C60.6248 27.0663 60.7757 27.1619 60.9448 27.2029C61.0949 27.245 61.2544 27.2389 61.4009 27.1856L64.5107 26.1475L64.2132 27.2579C64.1588 27.461 64.1873 27.6774 64.2924 27.8595C64.3975 28.0416 64.5707 28.1745 64.7738 28.2289C64.9769 28.2833 65.1933 28.2548 65.3754 28.1497C65.5575 28.0445 65.6903 27.8714 65.7448 27.6683L66.0423 26.5579L68.2164 29.0118C68.3166 29.1312 68.4517 29.2162 68.6027 29.2549C68.7667 29.2974 68.94 29.2864 69.0972 29.2233C69.2544 29.1603 69.3873 29.0485 69.4764 28.9044C69.5654 28.7604 69.606 28.5915 69.5922 28.4227C69.5783 28.2539 69.5108 28.0939 69.3994 27.9663L66.5307 24.7353L66.7707 23.8393L72.8971 25.4809C73.1002 25.5353 73.3166 25.5068 73.4987 25.4017C73.6808 25.2965 73.8136 25.1234 73.8681 24.9203C73.9225 24.7172 73.894 24.5008 73.7889 24.3187C73.6837 24.1366 73.5106 24.0037 73.3075 23.9493ZM71.0101 23.3337L61.8206 20.8714L63.8725 13.2134L73.062 15.6758L71.0101 23.3337ZM64.5283 19.9554C64.6546 19.9885 64.7872 19.9899 64.9142 19.9595C65.0412 19.9291 65.1587 19.8678 65.2563 19.7811L66.6852 18.5224L67.3166 19.6273C67.3753 19.7296 67.4561 19.8176 67.5531 19.8848C67.6501 19.952 67.7609 19.9966 67.8774 20.0156C67.9936 20.0334 68.1124 20.0252 68.225 19.9915C68.3377 19.9578 68.4414 19.8995 68.5288 19.8207L70.6759 17.9337C70.8112 17.7898 70.8878 17.6005 70.8908 17.403C70.8938 17.2055 70.823 17.0139 70.6921 16.8659C70.5613 16.7179 70.38 16.6241 70.1836 16.6028C69.9872 16.5815 69.7899 16.6342 69.6304 16.7508L68.2015 18.0094L67.5701 16.9046C67.5114 16.8022 67.4306 16.7142 67.3336 16.647C67.2366 16.5799 67.1258 16.5352 67.0093 16.5163C66.8931 16.4984 66.7743 16.5066 66.6617 16.5403C66.549 16.574 66.4453 16.6323 66.358 16.7111L64.2108 18.5981C64.0547 18.7372 63.9599 18.9324 63.947 19.1411C63.9342 19.3497 64.0043 19.5551 64.142 19.7123C64.2422 19.8317 64.3773 19.9168 64.5283 19.9554Z" fill="white"/>
</g>
</g>
<g clip-path="url(#clip4_2616_4594)">
<rect x="24" width="35" height="35" fill="url(#paint0_linear_2616_4594)"/>
<path d="M38.7602 17.6458C38.5505 17.6458 38.3454 17.7057 38.171 17.8179C37.9966 17.93 37.8606 18.0895 37.7804 18.276C37.7001 18.4625 37.6791 18.6678 37.72 18.8658C37.7609 19.0638 37.8619 19.2457 38.0103 19.3885C38.1586 19.5313 38.3476 19.6285 38.5533 19.6679C38.7591 19.7073 38.9723 19.6871 39.1661 19.6098C39.3599 19.5325 39.5256 19.4017 39.6421 19.2338C39.7586 19.0659 39.8208 18.8686 39.8208 18.6667C39.8208 18.3959 39.7091 18.1363 39.5102 17.9448C39.3113 17.7534 39.0415 17.6458 38.7602 17.6458ZM31.336 16.625C31.0547 16.625 30.7849 16.7326 30.586 16.924C30.3871 17.1154 30.2754 17.3751 30.2754 17.6458V19.6875C30.2754 19.9582 30.3871 20.2179 30.586 20.4093C30.7849 20.6008 31.0547 20.7083 31.336 20.7083C31.6173 20.7083 31.8871 20.6008 32.086 20.4093C32.2849 20.2179 32.3966 19.9582 32.3966 19.6875V17.6458C32.3966 17.3751 32.2849 17.1154 32.086 16.924C31.8871 16.7326 31.6173 16.625 31.336 16.625ZM52.5481 16.625C52.2668 16.625 51.9971 16.7326 51.7982 16.924C51.5993 17.1154 51.4875 17.3751 51.4875 17.6458V19.6875C51.4875 19.9582 51.5993 20.2179 51.7982 20.4093C51.9971 20.6008 52.2668 20.7083 52.5481 20.7083C52.8294 20.7083 53.0992 20.6008 53.2981 20.4093C53.497 20.2179 53.6087 19.9582 53.6087 19.6875V17.6458C53.6087 17.3751 53.497 17.1154 53.2981 16.924C53.0992 16.7326 52.8294 16.625 52.5481 16.625ZM47.2451 9.47917H43.0027V8.1725C43.3233 7.99435 43.5898 7.73856 43.7759 7.43053C43.962 7.1225 44.061 6.77297 44.0633 6.41667C44.0633 5.87518 43.8398 5.35588 43.442 4.97299C43.0442 4.5901 42.5046 4.375 41.9421 4.375C41.3795 4.375 40.8399 4.5901 40.4421 4.97299C40.0443 5.35588 39.8208 5.87518 39.8208 6.41667C39.8231 6.77297 39.9222 7.1225 40.1082 7.43053C40.2943 7.73856 40.5609 7.99435 40.8815 8.1725V9.47917H36.639C35.7952 9.47917 34.9858 9.80182 34.3891 10.3762C33.7924 10.9505 33.4572 11.7294 33.4572 12.5417V21.7292C33.4572 22.5414 33.7924 23.3204 34.3891 23.8947C34.9858 24.469 35.7952 24.7917 36.639 24.7917H47.2451C48.089 24.7917 48.8983 24.469 49.495 23.8947C50.0917 23.3204 50.4269 22.5414 50.4269 21.7292V12.5417C50.4269 11.7294 50.0917 10.9505 49.495 10.3762C48.8983 9.80182 48.089 9.47917 47.2451 9.47917ZM43.7663 11.5208L43.236 13.5625H40.6481L40.1178 11.5208H43.7663ZM48.3057 21.7292C48.3057 21.9999 48.194 22.2596 47.9951 22.451C47.7961 22.6424 47.5264 22.75 47.2451 22.75H36.639C36.3577 22.75 36.088 22.6424 35.8891 22.451C35.6902 22.2596 35.5784 21.9999 35.5784 21.7292V12.5417C35.5784 12.2709 35.6902 12.0113 35.8891 11.8198C36.088 11.6284 36.3577 11.5208 36.639 11.5208H37.933L38.7602 14.8283C38.8183 15.0548 38.9552 15.2554 39.1482 15.3965C39.3412 15.5377 39.5786 15.611 39.8208 15.6042H44.0633C44.3055 15.611 44.5429 15.5377 44.7359 15.3965C44.9289 15.2554 45.0658 15.0548 45.1239 14.8283L45.9511 11.5208H47.2451C47.5264 11.5208 47.7961 11.6284 47.9951 11.8198C48.194 12.0113 48.3057 12.2709 48.3057 12.5417V21.7292ZM45.1239 17.6458C44.9141 17.6458 44.7091 17.7057 44.5346 17.8179C44.3602 17.93 44.2243 18.0895 44.144 18.276C44.0637 18.4625 44.0427 18.6678 44.0836 18.8658C44.1246 19.0638 44.2256 19.2457 44.3739 19.3885C44.5222 19.5313 44.7112 19.6285 44.917 19.6679C45.1227 19.7073 45.336 19.6871 45.5298 19.6098C45.7236 19.5325 45.8892 19.4017 46.0057 19.2338C46.1223 19.0659 46.1845 18.8686 46.1845 18.6667C46.1845 18.3959 46.0727 18.1363 45.8738 17.9448C45.6749 17.7534 45.4052 17.6458 45.1239 17.6458Z" fill="white"/>
</g>
<defs>
<linearGradient id="paint0_linear_2616_4594" x1="54.3382" y1="49.5833" x2="58.5552" y2="-9.98071" gradientUnits="userSpaceOnUse">
<stop stop-color="#4069D3"/>
<stop offset="1" stop-color="#01DFFE"/>
</linearGradient>
<clipPath id="clip0_2616_4594">
<rect y="11.2471" width="28.5411" height="28.5411" rx="9.51369" transform="rotate(-15 0 11.2471)" fill="white"/>
</clipPath>
<clipPath id="clip1_2616_4594">
<rect width="19.0274" height="19.0274" fill="white" transform="translate(6.17432 14.5173) rotate(-15)"/>
</clipPath>
<clipPath id="clip2_2616_4594">
<rect x="56.3867" y="3" width="28.5411" height="28.5411" rx="9.51369" transform="rotate(15 56.3867 3)" fill="white"/>
</clipPath>
<clipPath id="clip3_2616_4594">
<rect width="19.0274" height="19.0274" fill="white" transform="translate(60.0986 8.91919) rotate(15)"/>
</clipPath>
<clipPath id="clip4_2616_4594">
<rect x="24" width="35" height="35" rx="11.6667" fill="white"/>
</clipPath>
</defs>
</svg>
