<svg width="14" height="21" viewBox="0 0 14 21" fill="none" xmlns="http://www.w3.org/2000/svg">
<path d="M8.74984 10.5C8.74984 9.33271 10.6433 8.53471 11.6665 6.99996C12.8332 5.24996 12.8332 1.16663 12.8332 1.16663H1.1665C1.1665 1.16663 1.1665 5.24996 2.33317 6.99996C3.35634 8.53471 5.24984 9.33271 5.24984 10.5C5.24984 11.6672 3.35634 12.4652 2.33317 14C1.1665 15.75 1.1665 19.8333 1.1665 19.8333H12.8332C12.8332 19.8333 12.8332 15.75 11.6665 14C10.6433 12.4652 8.74984 11.6672 8.74984 10.5Z" fill="#FFE8B6"/>
<path d="M8.74958 14C8.16683 14 7.54966 13.4166 7.54966 12.8333C7.5835 11.834 7.5835 11.1731 7.5835 10.5C7.5835 8.62163 9.35333 7.83938 10.4418 6.41663H3.5585C4.64641 7.83938 6.41683 8.62163 6.41683 10.5C6.41683 11.1737 6.41683 11.8352 6.45066 12.8333C6.45066 13.4166 5.8335 14 5.25016 14C4.0835 14 3.15308 15.0406 2.91683 15.75C2.3335 17.5 2.3335 19.8333 2.3335 19.8333H11.6668C11.6668 19.8333 11.6668 17.5 11.0835 15.75C10.8472 15.0406 9.91625 14 8.74958 14Z" fill="#FFAC33"/>
<path d="M14 19.8333C14 20.4773 13.4773 21 12.8333 21H1.16667C0.522667 21 0 20.4773 0 19.8333C0 19.1893 0.522667 18.6667 1.16667 18.6667H12.8333C13.4773 18.6667 14 19.1893 14 19.8333ZM14 1.16667C14 1.81067 13.4773 2.33333 12.8333 2.33333H1.16667C0.522667 2.33333 0 1.81067 0 1.16667C0 0.522667 0.522667 0 1.16667 0H12.8333C13.4773 0 14 0.522667 14 1.16667Z" fill="#007AFF"/>
</svg>
