<svg width="25" height="24" viewBox="0 0 25 24" fill="none" xmlns="http://www.w3.org/2000/svg">
<path d="M15.7812 3H6.875C6.37772 3 5.90081 3.20018 5.54917 3.5565C5.19754 3.91282 5 4.39609 5 4.9V20.1C5 20.6039 5.19754 21.0872 5.54917 21.4435C5.90081 21.7998 6.37772 22 6.875 22H18.125C18.6223 22 19.0992 21.7998 19.4508 21.4435C19.8025 21.0872 20 20.6039 20 20.1V7.275L15.7812 3Z" stroke="#112866" stroke-width="1.5" stroke-linecap="round" stroke-linejoin="round"/>
<path d="M15 3V7.5H20" stroke="#112866" stroke-width="1.5" stroke-linecap="round" stroke-linejoin="round"/>
<path d="M16 14H9C8.44772 14 8 14.407 8 14.9091V18.0909C8 18.593 8.44772 19 9 19H16C16.5523 19 17 18.593 17 18.0909V14.9091C17 14.407 16.5523 14 16 14Z" stroke="#112866" stroke-width="1.3" stroke-linecap="round" stroke-linejoin="round"/>
<path d="M10 14V11.779C9.99937 11.0905 10.2315 10.4264 10.6512 9.91543C11.0709 9.4045 11.6484 9.08325 12.2715 9.01406C12.8945 8.94487 13.5188 9.13267 14.023 9.541C14.5272 9.94934 14.8754 10.5491 15 11.2238" stroke="#112866" stroke-width="1.3" stroke-linecap="round" stroke-linejoin="round"/>
<circle cx="12.5" cy="16.5" r="0.5" fill="#112866"/>
</svg>
