<svg width="20" height="10" viewBox="0 0 20 10" fill="none" xmlns="http://www.w3.org/2000/svg">
<path fill-rule="evenodd" clip-rule="evenodd" d="M0.285755 0.272727C0.666706 -0.0909091 1.23813 -0.0909091 1.61909 0.272727L7.61907 6L11.7143 2.09091C11.9048 1.90909 12.0953 1.81818 12.381 1.81818C12.6667 1.81818 12.8572 1.90909 13.0476 2.09091L18.0952 6.90909V6.36364C18.0952 5.86156 18.5216 5.45455 19.0476 5.45455C19.5736 5.45455 20 5.86156 20 6.36364V9.09091C20 9.59299 19.5736 10 19.0476 10C19.0476 10 19.0476 10 19.0476 10H16.1904C15.6644 10 15.238 9.59299 15.238 9.09091C15.238 8.58883 15.6644 8.18182 16.1904 8.18182H16.7619L12.381 4L8.28574 7.90909C8.1905 8 8.09526 8.09091 8.00002 8.09091C7.90479 8.18182 7.71431 8.18182 7.61907 8.18182C7.4286 8.18182 7.14288 8.09091 7.04764 7.90909H6.95241L0.285755 1.54545C-0.0951977 1.18182 -0.0951977 0.636364 0.285755 0.272727Z" fill="#FB6D6F"/>
</svg>
