<svg width="21" height="20" viewBox="0 0 21 20" fill="none" xmlns="http://www.w3.org/2000/svg">
<path d="M19.9286 9.85714C19.9286 15.025 15.7393 19.2143 10.5715 19.2143C5.40369 19.2143 1.21436 15.025 1.21436 9.85714C1.21436 4.68934 5.40369 0.5 10.5715 0.5C15.7393 0.5 19.9286 4.68934 19.9286 9.85714Z" fill="#E8FAFC" stroke="white"/>
<path d="M15.0996 5.55627H13.3492V4.78637C13.3448 4.62545 13.2777 4.4726 13.1621 4.36053C13.0466 4.24845 12.8917 4.18604 12.7307 4.18664H8.34484C8.2623 4.18232 8.17974 4.19448 8.10195 4.2224C8.02416 4.25032 7.95271 4.29345 7.89177 4.34928C7.83083 4.4051 7.78161 4.4725 7.74699 4.54755C7.71237 4.62259 7.69303 4.70378 7.69012 4.78637V5.55627H5.94385C5.78215 5.55457 5.62626 5.6165 5.5098 5.72869C5.39334 5.84088 5.32564 5.99435 5.32129 6.156V6.29296C5.3387 6.94231 5.58675 7.56426 6.021 8.04737C6.45525 8.53048 7.04732 8.84319 7.69115 8.92948C7.711 9.58057 7.95629 10.2046 8.38512 10.6949C8.81394 11.1852 9.3997 11.5115 10.0423 11.6179V14.2202H8.6281C8.56555 14.2172 8.50306 14.227 8.44439 14.2489C8.38573 14.2708 8.33212 14.3043 8.28681 14.3475C8.2415 14.3908 8.20542 14.4427 8.18078 14.5003C8.15613 14.5578 8.14343 14.6198 8.14343 14.6824C8.14343 14.745 8.15613 14.807 8.18078 14.8646C8.20542 14.9221 8.2415 14.9741 8.28681 15.0173C8.33212 15.0605 8.38573 15.0941 8.44439 15.116C8.50306 15.1379 8.56555 15.1476 8.6281 15.1447H12.3946C12.4571 15.1476 12.5196 15.1379 12.5783 15.116C12.6369 15.0941 12.6905 15.0605 12.7359 15.0173C12.7812 14.9741 12.8172 14.9221 12.8419 14.8646C12.8665 14.807 12.8792 14.745 12.8792 14.6824C12.8792 14.6198 12.8665 14.5578 12.8419 14.5003C12.8172 14.4427 12.7812 14.3908 12.7359 14.3475C12.6905 14.3043 12.6369 14.2708 12.5783 14.2489C12.5196 14.227 12.4571 14.2172 12.3946 14.2202H10.9793V11.6687C11.5682 11.588 12.1146 11.3174 12.5357 10.8978C12.7964 10.6518 13.0033 10.3543 13.1433 10.0243C13.2833 9.69427 13.3534 9.3388 13.3492 8.98033C13.9907 8.88644 14.5784 8.56857 15.0082 8.08299C15.4379 7.59742 15.682 6.97545 15.6972 6.3272V6.13836C15.6901 5.98358 15.6244 5.8373 15.5134 5.72919C15.4024 5.62109 15.2545 5.55927 15.0996 5.55627ZM6.28003 6.46416H7.69115V8.02574C7.32164 7.94601 6.9864 7.7525 6.73255 7.4724C6.47869 7.19231 6.31899 6.83971 6.27588 6.46416H6.28003ZM10.5196 10.7608C10.0341 10.7705 9.56413 10.5894 9.21052 10.2566C8.85691 9.92373 8.64782 9.46555 8.6281 8.98033V5.09454H12.3946V8.98033C12.3812 9.4557 12.1996 9.9109 11.882 10.2649C11.4997 10.5841 11.0177 10.7595 10.5196 10.7608ZM13.3492 8.02574V6.46935H14.7634C14.7193 6.84383 14.5593 7.19517 14.3057 7.47423C14.0522 7.75329 13.7177 7.94612 13.3492 8.02574Z" fill="#36E7FF"/>
</svg>
