<svg width="25" height="25" viewBox="0 0 25 25" fill="none" xmlns="http://www.w3.org/2000/svg">
<path d="M24.4815 10.1103C24.6014 9.48144 24.1218 8.72679 23.5222 8.72679L16.6875 7.7206L13.5699 1.18038C13.45 0.92883 13.3301 0.803056 13.0903 0.677283C12.4908 0.299962 11.7713 0.551509 11.4116 1.18038L8.4139 7.7206L1.57917 8.72679C1.21945 8.72679 0.97963 8.85257 0.859723 9.10411C0.380092 9.60721 0.380092 10.3618 0.859723 10.8649L5.77593 15.8959L4.57686 23.065C4.57686 23.3165 4.57686 23.5681 4.69676 23.8196C5.05649 24.4485 5.77593 24.7 6.37547 24.3227L12.4908 20.9268L18.606 24.3227C18.7259 24.4485 18.9658 24.4485 19.2056 24.4485C19.3255 24.4485 19.3255 24.4485 19.4454 24.4485C20.0449 24.3227 20.5246 23.6939 20.4046 22.9392L19.2056 15.7701L24.1218 10.7392C24.3616 10.6134 24.4815 10.3619 24.4815 10.1103Z" fill="#FFBD3A"/>
</svg>
