<svg width="21" height="20" viewBox="0 0 21 20" fill="none" xmlns="http://www.w3.org/2000/svg">
<path d="M17.1668 10V18.3333H3.8335V10" stroke="#112866" stroke-width="1.5" stroke-linecap="round" stroke-linejoin="round"/>
<path d="M18.8332 5.8335H2.1665V10.0002H18.8332V5.8335Z" stroke="#112866" stroke-width="1.5" stroke-linecap="round" stroke-linejoin="round"/>
<path d="M10.5 18.3335V5.8335" stroke="#112866" stroke-width="1.5" stroke-linecap="round" stroke-linejoin="round"/>
<path d="M10.4998 5.83317H6.74984C6.1973 5.83317 5.6674 5.61368 5.2767 5.22298C4.886 4.83228 4.6665 4.30237 4.6665 3.74984C4.6665 3.1973 4.886 2.6674 5.2767 2.2767C5.6674 1.886 6.1973 1.6665 6.74984 1.6665C9.6665 1.6665 10.4998 5.83317 10.4998 5.83317Z" stroke="#112866" stroke-width="1.5" stroke-linecap="round" stroke-linejoin="round"/>
<path d="M10.5 5.83317H14.25C14.8025 5.83317 15.3324 5.61368 15.7231 5.22298C16.1138 4.83228 16.3333 4.30237 16.3333 3.74984C16.3333 3.1973 16.1138 2.6674 15.7231 2.2767C15.3324 1.886 14.8025 1.6665 14.25 1.6665C11.3333 1.6665 10.5 5.83317 10.5 5.83317Z" stroke="#112866" stroke-width="1.5" stroke-linecap="round" stroke-linejoin="round"/>
</svg>
