<svg width="17" height="16" viewBox="0 0 17 16" fill="none" xmlns="http://www.w3.org/2000/svg">
<path d="M13.2748 15.8253C13.7065 15.7696 14.0934 15.2931 13.9672 14.8991L13.1793 10.1934L16.7509 6.74603C16.8883 6.61344 16.9444 6.50776 16.9752 6.32329C17.0929 5.84867 16.7789 5.42979 16.2967 5.32796L11.438 4.75741L9.34916 0.482073C9.27346 0.245727 9.14168 0.115067 8.95384 0.090093C8.52768 -0.117419 8.03986 0.0440027 7.81559 0.466745L5.59809 4.77295L0.711423 5.51864C0.548815 5.57245 0.386207 5.62626 0.248835 5.75885C-0.0819772 6.12971 -0.0931718 6.65621 0.276917 6.96941L3.75912 10.2609L2.85093 15.0052C2.79486 15.1108 2.84533 15.2684 2.8958 15.426C2.92104 15.5047 2.92104 15.5047 2.94627 15.5835C3.15376 15.9505 3.66122 16.1311 4.1238 15.8909L8.50576 13.5696L12.7926 15.7235C12.9243 15.8542 13.1122 15.8791 13.2748 15.8253Z" fill="url(#paint0_linear_6783_13653)"/>
<defs>
<linearGradient id="paint0_linear_6783_13653" x1="2.5332e-07" y1="16" x2="19.7557" y2="10.1264" gradientUnits="userSpaceOnUse">
<stop stop-color="#4069D3"/>
<stop offset="1" stop-color="#01DFFE"/>
</linearGradient>
</defs>
</svg>
