<svg width="16" height="16" viewBox="0 0 16 16" fill="none" xmlns="http://www.w3.org/2000/svg">
<path opacity="0.2" d="M8 16C12.4 16 16 12.4 16 8C16 3.6 12.4 6.38952e-07 8 2.54292e-07C3.6 -1.30368e-07 -8.23306e-07 3.6 -1.20797e-06 8C-1.59263e-06 12.4 3.6 16 8 16ZM8 4C8.48 4 8.8 4.32 8.8 4.8C8.8 5.28 8.48 5.6 8 5.6C7.52 5.6 7.2 5.28 7.2 4.8C7.2 4.32 7.52 4 8 4ZM7.2 8C7.2 7.52 7.52 7.2 8 7.2C8.48 7.2 8.8 7.52 8.8 8L8.8 11.2C8.8 11.68 8.48 12 8 12C7.52 12 7.2 11.68 7.2 11.2L7.2 8Z" fill="#112866"/>
</svg>
