<svg width="10" height="10" viewBox="0 0 10 10" fill="none" xmlns="http://www.w3.org/2000/svg">
<g filter="url(#filter0_i_215_114)">
<path d="M7.78129 9.77978C7.7813 9.77978 7.78129 9.77979 7.78129 9.77979C7.70024 9.77975 7.62042 9.76006 7.54865 9.72241L5.93073 8.87184C5.47485 8.63218 5.2469 8.51234 5.00006 8.51234C4.75322 8.51234 4.52528 8.63218 4.0694 8.87184L2.45148 9.72241C2.36889 9.76582 2.27581 9.78526 2.18275 9.77853C2.08969 9.7718 2.00037 9.73918 1.92489 9.68434C1.8494 9.6295 1.79076 9.55465 1.7556 9.46823C1.72043 9.38181 1.71014 9.28727 1.72589 9.19531L2.03492 7.39385C2.12201 6.88616 2.16555 6.63232 2.08926 6.39753C2.01297 6.16275 1.82853 5.98298 1.45965 5.62346L0.150942 4.34792C0.0841511 4.28278 0.0369116 4.20025 0.0145623 4.10967C-0.00778697 4.01909 -0.00435488 3.92406 0.0244706 3.83533C0.0532961 3.74659 0.106366 3.66769 0.177682 3.60754C0.248999 3.54738 0.335719 3.50838 0.428042 3.49492L2.23687 3.23207C2.74657 3.158 3.00142 3.12096 3.20112 2.97587C3.40083 2.83077 3.5148 2.59983 3.74274 2.13796L4.55156 0.499027C4.59761 0.421053 4.6632 0.356433 4.74185 0.311543C4.8205 0.266652 4.90949 0.243042 5.00005 0.243042C5.0906 0.243042 5.1796 0.266652 5.25825 0.311543C5.33689 0.356433 5.40248 0.421053 5.44853 0.499027L6.25737 2.13793C6.48531 2.5998 6.59928 2.83073 6.79898 2.97582C6.99868 3.12092 7.25353 3.15795 7.76323 3.23202L9.57207 3.49488C9.66439 3.50833 9.75111 3.54734 9.82243 3.60749C9.89374 3.66765 9.94681 3.74655 9.97564 3.83528C10.0045 3.92402 10.0079 4.01905 9.98555 4.10963C9.9632 4.20021 9.91596 4.28273 9.84917 4.34788L8.54045 5.62341C8.17158 5.98294 7.98714 6.1627 7.91085 6.39749C7.83456 6.63228 7.8781 6.88612 7.96519 7.39381L8.27422 9.19527C8.28652 9.26704 8.283 9.34064 8.2639 9.41091C8.2448 9.48119 8.21058 9.54644 8.16363 9.60211C8.11668 9.65778 8.05814 9.70252 7.9921 9.73321C7.92606 9.76389 7.85412 9.77978 7.7813 9.77977C7.78129 9.77977 7.78129 9.77977 7.78129 9.77978Z" fill="#FFCB64"/>
</g>
<defs>
<filter id="filter0_i_215_114" x="0" y="0.243042" width="10" height="13.5368" filterUnits="userSpaceOnUse" color-interpolation-filters="sRGB">
<feFlood flood-opacity="0" result="BackgroundImageFix"/>
<feBlend mode="normal" in="SourceGraphic" in2="BackgroundImageFix" result="shape"/>
<feColorMatrix in="SourceAlpha" type="matrix" values="0 0 0 0 0 0 0 0 0 0 0 0 0 0 0 0 0 0 127 0" result="hardAlpha"/>
<feOffset dy="4"/>
<feGaussianBlur stdDeviation="2"/>
<feComposite in2="hardAlpha" operator="arithmetic" k2="-1" k3="1"/>
<feColorMatrix type="matrix" values="0 0 0 0 0.975833 0 0 0 0 0.638846 0 0 0 0 0.133364 0 0 0 1 0"/>
<feBlend mode="normal" in2="shape" result="effect1_innerShadow_215_114"/>
</filter>
</defs>
</svg>
