<svg width="206" height="203" viewBox="0 0 206 203" fill="none" xmlns="http://www.w3.org/2000/svg">
<rect width="206" height="203" rx="12" fill="#21E4FF" fill-opacity="0.1"/>
<path d="M22.5376 58.6172C22.4912 58.183 22.2957 57.8449 21.951 57.603C21.6096 57.361 21.1655 57.2401 20.6186 57.2401C20.2341 57.2401 19.9044 57.2981 19.6293 57.4141C19.3542 57.5301 19.1437 57.6875 18.9979 57.8864C18.852 58.0852 18.7775 58.3123 18.7741 58.5675C18.7741 58.7796 18.8222 58.9635 18.9183 59.1193C19.0178 59.2751 19.152 59.4077 19.321 59.517C19.4901 59.6231 19.6773 59.7126 19.8828 59.7855C20.0883 59.8584 20.2955 59.9197 20.5043 59.9695L21.4588 60.2081C21.8433 60.2976 22.2128 60.4186 22.5675 60.571C22.9254 60.7235 23.2453 60.9157 23.527 61.1477C23.812 61.3797 24.0374 61.6598 24.2031 61.9879C24.3688 62.3161 24.4517 62.7005 24.4517 63.1413C24.4517 63.7379 24.2992 64.2633 23.9943 64.7173C23.6894 65.1681 23.2486 65.5211 22.6719 65.7763C22.0985 66.0282 21.4041 66.1541 20.5888 66.1541C19.7966 66.1541 19.1089 66.0315 18.5256 65.7862C17.9455 65.541 17.4915 65.183 17.1634 64.7124C16.8385 64.2417 16.6629 63.6683 16.6364 62.9922H18.451C18.4775 63.3468 18.5869 63.6418 18.7791 63.8771C18.9714 64.1125 19.2216 64.2881 19.5298 64.4041C19.8414 64.5201 20.1894 64.5781 20.5739 64.5781C20.9749 64.5781 21.3262 64.5185 21.6278 64.3991C21.9328 64.2765 22.1714 64.1075 22.3438 63.892C22.5161 63.6733 22.6039 63.4181 22.6072 63.1264C22.6039 62.8613 22.526 62.6425 22.3736 62.4702C22.2211 62.2945 22.0073 62.1487 21.7322 62.0327C21.4605 61.9134 21.1423 61.8073 20.7777 61.7145L19.6193 61.4162C18.7808 61.2008 18.1179 60.8743 17.6307 60.4368C17.1468 59.996 16.9048 59.411 16.9048 58.6818C16.9048 58.0819 17.0672 57.5566 17.392 57.1058C17.7202 56.6551 18.166 56.3054 18.7294 56.0568C19.2929 55.8049 19.9309 55.679 20.6435 55.679C21.366 55.679 21.9991 55.8049 22.5426 56.0568C23.0895 56.3054 23.5187 56.6518 23.8303 57.0959C24.1418 57.5367 24.3026 58.0438 24.3125 58.6172H22.5376ZM29.8297 58.3636V59.7557H25.4398V58.3636H29.8297ZM26.5236 56.5341H28.3233V63.7031C28.3233 63.9451 28.3598 64.1307 28.4327 64.2599C28.5089 64.3859 28.6084 64.4721 28.731 64.5185C28.8536 64.5649 28.9895 64.5881 29.1387 64.5881C29.2514 64.5881 29.3541 64.5798 29.4469 64.5632C29.543 64.5466 29.6159 64.5317 29.6657 64.5185L29.9689 65.9254C29.8728 65.9586 29.7353 65.995 29.5563 66.0348C29.3806 66.0746 29.1652 66.0978 28.91 66.1044C28.4592 66.1177 28.0532 66.0497 27.6919 65.9006C27.3307 65.7481 27.044 65.5128 26.8319 65.1946C26.623 64.8764 26.5203 64.4787 26.5236 64.0014V56.5341ZM34.5838 66.1491C33.8381 66.1491 33.1918 65.9851 32.6449 65.657C32.098 65.3288 31.6738 64.8698 31.3722 64.2798C31.0739 63.6899 30.9247 63.0005 30.9247 62.2116C30.9247 61.4228 31.0739 60.7318 31.3722 60.1385C31.6738 59.5452 32.098 59.0845 32.6449 58.7564C33.1918 58.4283 33.8381 58.2642 34.5838 58.2642C35.3295 58.2642 35.9759 58.4283 36.5227 58.7564C37.0696 59.0845 37.4922 59.5452 37.7905 60.1385C38.0921 60.7318 38.2429 61.4228 38.2429 62.2116C38.2429 63.0005 38.0921 63.6899 37.7905 64.2798C37.4922 64.8698 37.0696 65.3288 36.5227 65.657C35.9759 65.9851 35.3295 66.1491 34.5838 66.1491ZM34.5938 64.7074C34.9981 64.7074 35.3362 64.5964 35.608 64.3743C35.8797 64.1489 36.0819 63.8473 36.2145 63.4695C36.3504 63.0916 36.4183 62.6707 36.4183 62.2067C36.4183 61.7393 36.3504 61.3168 36.2145 60.9389C36.0819 60.5578 35.8797 60.2545 35.608 60.0291C35.3362 59.8037 34.9981 59.6911 34.5938 59.6911C34.1795 59.6911 33.8348 59.8037 33.5597 60.0291C33.2879 60.2545 33.084 60.5578 32.9482 60.9389C32.8156 61.3168 32.7493 61.7393 32.7493 62.2067C32.7493 62.6707 32.8156 63.0916 32.9482 63.4695C33.084 63.8473 33.2879 64.1489 33.5597 64.3743C33.8348 64.5964 34.1795 64.7074 34.5938 64.7074ZM43.1014 66.1491C42.3391 66.1491 41.6845 65.9818 41.1376 65.647C40.594 65.3123 40.1748 64.8499 39.8798 64.2599C39.5881 63.6667 39.4423 62.9839 39.4423 62.2116C39.4423 61.4361 39.5914 60.7517 39.8897 60.1584C40.188 59.5618 40.609 59.0978 41.1525 58.7663C41.6994 58.4316 42.3457 58.2642 43.0914 58.2642C43.7112 58.2642 44.2598 58.3786 44.737 58.6072C45.2176 58.8326 45.6004 59.1525 45.8855 59.5668C46.1705 59.9777 46.3329 60.4583 46.3727 61.0085H44.6525C44.5829 60.6406 44.4172 60.334 44.1554 60.0888C43.8968 59.8402 43.5505 59.7159 43.1163 59.7159C42.7484 59.7159 42.4252 59.8153 42.1468 60.0142C41.8684 60.2098 41.6513 60.4915 41.4956 60.8594C41.3431 61.2273 41.2669 61.6681 41.2669 62.1818C41.2669 62.7022 41.3431 63.1496 41.4956 63.5241C41.648 63.8954 41.8618 64.1821 42.1369 64.3842C42.4153 64.5831 42.7418 64.6825 43.1163 64.6825C43.3815 64.6825 43.6184 64.6328 43.8272 64.5334C44.0394 64.4306 44.2167 64.2831 44.3592 64.0909C44.5017 63.8987 44.5995 63.665 44.6525 63.3899H46.3727C46.3296 63.9302 46.1705 64.4091 45.8954 64.8267C45.6203 65.241 45.2458 65.5658 44.7718 65.8011C44.2979 66.0331 43.7411 66.1491 43.1014 66.1491ZM49.4911 63.6037L49.4862 61.4311H49.7745L52.5188 58.3636H54.6218L51.2461 62.1222H50.8732L49.4911 63.6037ZM47.8505 66V55.8182H49.6502V66H47.8505ZM52.6431 66L50.1573 62.5249L51.3704 61.2571L54.7958 66H52.6431ZM61.8567 60.3821L60.2161 60.5611C60.1697 60.3954 60.0885 60.2396 59.9725 60.0938C59.8598 59.9479 59.7073 59.8303 59.5151 59.7408C59.3229 59.6513 59.0875 59.6065 58.8091 59.6065C58.4346 59.6065 58.1197 59.6877 57.8645 59.8501C57.6126 60.0125 57.4883 60.223 57.4917 60.4815C57.4883 60.7036 57.5695 60.8842 57.7353 61.0234C57.9043 61.1626 58.1827 61.277 58.5705 61.3665L59.873 61.6449C60.5956 61.8007 61.1325 62.0476 61.4838 62.3857C61.8385 62.7237 62.0175 63.1662 62.0208 63.7131C62.0175 64.1937 61.8766 64.6179 61.5982 64.9858C61.3231 65.3504 60.9403 65.6354 60.4498 65.8409C59.9592 66.0464 59.3958 66.1491 58.7594 66.1491C57.8248 66.1491 57.0724 65.9536 56.5023 65.5625C55.9322 65.1681 55.5925 64.6196 55.4831 63.9169L57.2381 63.7479C57.3176 64.0926 57.4867 64.3527 57.7452 64.5284C58.0037 64.7041 58.3401 64.7919 58.7544 64.7919C59.182 64.7919 59.525 64.7041 59.7836 64.5284C60.0454 64.3527 60.1763 64.1357 60.1763 63.8771C60.1763 63.6584 60.0918 63.4777 59.9228 63.3352C59.757 63.1927 59.4985 63.0833 59.1472 63.0071L57.8446 62.7337C57.1122 62.5812 56.5703 62.3243 56.2189 61.9631C55.8676 61.5985 55.6936 61.1378 55.6969 60.581C55.6936 60.1103 55.8212 59.7027 56.0797 59.358C56.3416 59.0099 56.7045 58.7415 57.1685 58.5526C57.6358 58.3603 58.1744 58.2642 58.7843 58.2642C59.6792 58.2642 60.3835 58.4548 60.8972 58.8359C61.4142 59.2171 61.7341 59.7325 61.8567 60.3821ZM67.057 66V55.8182H70.9547C71.6905 55.8182 72.302 55.9342 72.7892 56.1662C73.2798 56.3949 73.646 56.7081 73.888 57.1058C74.1332 57.5036 74.2559 57.9543 74.2559 58.4581C74.2559 58.8724 74.1763 59.227 74.0172 59.522C73.8581 59.8137 73.6444 60.0507 73.3759 60.233C73.1074 60.4152 72.8075 60.5462 72.476 60.6257V60.7251C72.8373 60.745 73.1837 60.8561 73.5151 61.0582C73.8498 61.2571 74.1233 61.5388 74.3354 61.9034C74.5475 62.268 74.6536 62.7088 74.6536 63.2259C74.6536 63.7528 74.526 64.2268 74.2708 64.6477C74.0156 65.0653 73.6311 65.3951 73.1174 65.6371C72.6036 65.879 71.9573 66 71.1784 66H67.057ZM68.9015 64.4588H70.8851C71.5546 64.4588 72.0369 64.3312 72.3319 64.076C72.6301 63.8175 72.7793 63.486 72.7793 63.0817C72.7793 62.7801 72.7047 62.5083 72.5556 62.2663C72.4064 62.0211 72.1943 61.8288 71.9192 61.6896C71.6441 61.5471 71.316 61.4759 70.9348 61.4759H68.9015V64.4588ZM68.9015 60.1484H70.726C71.0442 60.1484 71.3309 60.0904 71.5861 59.9744C71.8413 59.8551 72.0418 59.6877 72.1877 59.4723C72.3368 59.2536 72.4114 58.995 72.4114 58.6967C72.4114 58.3023 72.2722 57.9775 71.9938 57.7223C71.7187 57.4671 71.3094 57.3395 70.7658 57.3395H68.9015V60.1484ZM78.3761 66.1541C77.8922 66.1541 77.4563 66.0679 77.0685 65.8956C76.6841 65.7199 76.3791 65.4614 76.1538 65.12C75.9317 64.7786 75.8207 64.3577 75.8207 63.8572C75.8207 63.4264 75.9002 63.0701 76.0593 62.7884C76.2184 62.5066 76.4355 62.2812 76.7106 62.1122C76.9857 61.9432 77.2956 61.8156 77.6403 61.7294C77.9883 61.6399 78.3479 61.5753 78.7191 61.5355C79.1665 61.4891 79.5295 61.4477 79.8079 61.4112C80.0863 61.3714 80.2885 61.3118 80.4144 61.2322C80.5437 61.1494 80.6083 61.0218 80.6083 60.8494V60.8196C80.6083 60.4451 80.4973 60.1551 80.2752 59.9496C80.0531 59.7441 79.7333 59.6413 79.3157 59.6413C78.8749 59.6413 78.5252 59.7375 78.2667 59.9297C78.0115 60.1219 77.8391 60.349 77.7496 60.6108L76.0692 60.3722C76.2018 59.9081 76.4206 59.5204 76.7255 59.2088C77.0304 58.8939 77.4033 58.6586 77.8441 58.5028C78.2849 58.3438 78.7721 58.2642 79.3058 58.2642C79.6737 58.2642 80.0399 58.3073 80.4045 58.3935C80.7691 58.4796 81.1022 58.6222 81.4038 58.821C81.7054 59.0166 81.9473 59.2834 82.1296 59.6214C82.3152 59.9595 82.408 60.3821 82.408 60.8892V66H80.6779V64.951H80.6183C80.5089 65.1631 80.3548 65.362 80.1559 65.5476C79.9603 65.7299 79.7134 65.8774 79.4151 65.9901C79.1201 66.0994 78.7738 66.1541 78.3761 66.1541ZM78.8434 64.8317C79.2047 64.8317 79.5179 64.7604 79.783 64.6179C80.0482 64.4721 80.252 64.2798 80.3945 64.0412C80.5404 63.8026 80.6133 63.5424 80.6133 63.2607V62.3608C80.5569 62.4072 80.4608 62.4503 80.3249 62.4901C80.1924 62.5298 80.0432 62.5646 79.8775 62.5945C79.7118 62.6243 79.5477 62.6508 79.3853 62.674C79.2229 62.6972 79.082 62.7171 78.9627 62.7337C78.6942 62.7701 78.454 62.8298 78.2418 62.9126C78.0297 62.9955 77.8623 63.1115 77.7397 63.2607C77.6171 63.4065 77.5558 63.5954 77.5558 63.8274C77.5558 64.1589 77.6767 64.4091 77.9187 64.5781C78.1606 64.7472 78.4689 64.8317 78.8434 64.8317ZM90.2532 60.3821L88.6126 60.5611C88.5662 60.3954 88.485 60.2396 88.369 60.0938C88.2563 59.9479 88.1038 59.8303 87.9116 59.7408C87.7193 59.6513 87.484 59.6065 87.2056 59.6065C86.8311 59.6065 86.5162 59.6877 86.261 59.8501C86.0091 60.0125 85.8848 60.223 85.8881 60.4815C85.8848 60.7036 85.966 60.8842 86.1317 61.0234C86.3008 61.1626 86.5792 61.277 86.967 61.3665L88.2695 61.6449C88.9921 61.8007 89.529 62.0476 89.8803 62.3857C90.235 62.7237 90.4139 63.1662 90.4173 63.7131C90.4139 64.1937 90.2731 64.6179 89.9947 64.9858C89.7196 65.3504 89.3368 65.6354 88.8462 65.8409C88.3557 66.0464 87.7923 66.1491 87.1559 66.1491C86.2212 66.1491 85.4689 65.9536 84.8988 65.5625C84.3287 65.1681 83.989 64.6196 83.8796 63.9169L85.6346 63.7479C85.7141 64.0926 85.8832 64.3527 86.1417 64.5284C86.4002 64.7041 86.7366 64.7919 87.1509 64.7919C87.5785 64.7919 87.9215 64.7041 88.18 64.5284C88.4419 64.3527 88.5728 64.1357 88.5728 63.8771C88.5728 63.6584 88.4883 63.4777 88.3192 63.3352C88.1535 63.1927 87.895 63.0833 87.5437 63.0071L86.2411 62.7337C85.5086 62.5812 84.9667 62.3243 84.6154 61.9631C84.2641 61.5985 84.0901 61.1378 84.0934 60.581C84.0901 60.1103 84.2177 59.7027 84.4762 59.358C84.738 59.0099 85.101 58.7415 85.565 58.5526C86.0323 58.3603 86.5709 58.2642 87.1808 58.2642C88.0756 58.2642 88.7799 58.4548 89.2937 58.8359C89.8107 59.2171 90.1306 59.7325 90.2532 60.3821ZM93.5419 63.6037L93.5369 61.4311H93.8253L96.5696 58.3636H98.6726L95.2969 62.1222H94.924L93.5419 63.6037ZM91.9013 66V55.8182H93.701V66H91.9013ZM96.6939 66L94.2081 62.5249L95.4212 61.2571L98.8466 66H96.6939ZM102.938 66.1491C102.173 66.1491 101.511 65.9901 100.955 65.6719C100.401 65.3504 99.9751 64.8963 99.6768 64.3097C99.3786 63.7197 99.2294 63.0253 99.2294 62.2266C99.2294 61.4411 99.3786 60.7517 99.6768 60.1584C99.9785 59.5618 100.399 59.0978 100.94 58.7663C101.48 58.4316 102.115 58.2642 102.844 58.2642C103.314 58.2642 103.759 58.3404 104.176 58.4929C104.597 58.642 104.968 58.8741 105.29 59.1889C105.615 59.5038 105.87 59.9048 106.055 60.392C106.241 60.8759 106.334 61.4527 106.334 62.1222V62.674H100.075V61.4609H104.609C104.605 61.1162 104.531 60.8097 104.385 60.5412C104.239 60.2694 104.035 60.0556 103.773 59.8999C103.515 59.7441 103.213 59.6662 102.869 59.6662C102.501 59.6662 102.178 59.7557 101.899 59.9347C101.621 60.1103 101.404 60.3423 101.248 60.6307C101.095 60.9157 101.018 61.2289 101.014 61.5703V62.6293C101.014 63.0734 101.095 63.4545 101.258 63.7727C101.42 64.0876 101.647 64.3295 101.939 64.4986C102.231 64.6643 102.572 64.7472 102.963 64.7472C103.225 64.7472 103.462 64.7107 103.674 64.6378C103.886 64.5616 104.07 64.4505 104.226 64.3047C104.382 64.1589 104.499 63.9782 104.579 63.7628L106.259 63.9517C106.153 64.3958 105.951 64.7836 105.653 65.1151C105.358 65.4432 104.98 65.6984 104.519 65.8807C104.058 66.0597 103.531 66.1491 102.938 66.1491ZM111.67 58.3636V59.7557H107.28V58.3636H111.67ZM108.363 56.5341H110.163V63.7031C110.163 63.9451 110.2 64.1307 110.273 64.2599C110.349 64.3859 110.448 64.4721 110.571 64.5185C110.693 64.5649 110.829 64.5881 110.979 64.5881C111.091 64.5881 111.194 64.5798 111.287 64.5632C111.383 64.5466 111.456 64.5317 111.506 64.5185L111.809 65.9254C111.713 65.9586 111.575 65.995 111.396 66.0348C111.22 66.0746 111.005 66.0978 110.75 66.1044C110.299 66.1177 109.893 66.0497 109.532 65.9006C109.171 65.7481 108.884 65.5128 108.672 65.1946C108.463 64.8764 108.36 64.4787 108.363 64.0014V56.5341ZM117.095 60.9091C117.095 59.6662 117.259 58.5244 117.587 57.4837C117.918 56.4396 118.411 55.4751 119.064 54.5902H120.759C120.507 54.9183 120.272 55.321 120.053 55.7983C119.834 56.2723 119.644 56.7926 119.481 57.3594C119.322 57.9228 119.196 58.5078 119.103 59.1143C119.014 59.7209 118.969 60.3191 118.969 60.9091C118.969 61.6946 119.047 62.4901 119.203 63.2955C119.362 64.1009 119.576 64.8482 119.844 65.5376C120.116 66.2237 120.421 66.7855 120.759 67.223H119.064C118.411 66.3381 117.918 65.3752 117.587 64.3345C117.259 63.2905 117.095 62.1487 117.095 60.9091ZM126.279 55.8182V66H124.434V57.6129H124.374L121.993 59.1342V57.4439L124.524 55.8182H126.279ZM132.483 66.1392C131.744 66.1392 131.088 66.0149 130.514 65.7663C129.944 65.5178 129.497 65.178 129.172 64.7472C128.851 64.313 128.691 63.8208 128.695 63.2706C128.691 62.843 128.784 62.4503 128.973 62.0923C129.162 61.7344 129.417 61.4361 129.739 61.1974C130.064 60.9555 130.425 60.8014 130.823 60.7351V60.6655C130.299 60.5495 129.875 60.2827 129.55 59.8651C129.228 59.4441 129.069 58.9586 129.073 58.4084C129.069 57.8847 129.215 57.4174 129.51 57.0064C129.805 56.5954 130.209 56.2723 130.723 56.0369C131.237 55.7983 131.824 55.679 132.483 55.679C133.136 55.679 133.718 55.7983 134.228 56.0369C134.742 56.2723 135.146 56.5954 135.441 57.0064C135.74 57.4174 135.889 57.8847 135.889 58.4084C135.889 58.9586 135.725 59.4441 135.396 59.8651C135.072 60.2827 134.652 60.5495 134.139 60.6655V60.7351C134.536 60.8014 134.894 60.9555 135.213 61.1974C135.534 61.4361 135.789 61.7344 135.978 62.0923C136.17 62.4503 136.267 62.843 136.267 63.2706C136.267 63.8208 136.104 64.313 135.779 64.7472C135.454 65.178 135.007 65.5178 134.437 65.7663C133.87 66.0149 133.219 66.1392 132.483 66.1392ZM132.483 64.7173C132.864 64.7173 133.196 64.6527 133.477 64.5234C133.759 64.3909 133.978 64.2053 134.134 63.9666C134.289 63.728 134.369 63.4529 134.372 63.1413C134.369 62.8165 134.285 62.5298 134.119 62.2812C133.956 62.0294 133.733 61.8321 133.448 61.6896C133.166 61.5471 132.844 61.4759 132.483 61.4759C132.119 61.4759 131.794 61.5471 131.509 61.6896C131.224 61.8321 130.998 62.0294 130.833 62.2812C130.67 62.5298 130.591 62.8165 130.594 63.1413C130.591 63.4529 130.667 63.728 130.823 63.9666C130.978 64.2019 131.197 64.3859 131.479 64.5185C131.764 64.651 132.099 64.7173 132.483 64.7173ZM132.483 60.0788C132.795 60.0788 133.07 60.0159 133.308 59.8899C133.55 59.764 133.741 59.5883 133.88 59.3629C134.019 59.1375 134.091 58.8774 134.094 58.5824C134.091 58.2907 134.021 58.0355 133.885 57.8168C133.749 57.5947 133.56 57.424 133.318 57.3047C133.076 57.1821 132.798 57.1207 132.483 57.1207C132.162 57.1207 131.878 57.1821 131.633 57.3047C131.391 57.424 131.202 57.5947 131.066 57.8168C130.934 58.0355 130.869 58.2907 130.872 58.5824C130.869 58.8774 130.935 59.1375 131.071 59.3629C131.21 59.585 131.401 59.7607 131.643 59.8899C131.888 60.0159 132.168 60.0788 132.483 60.0788ZM141.132 60.9091C141.132 62.1487 140.967 63.2905 140.635 64.3345C140.307 65.3752 139.817 66.3381 139.164 67.223H137.468C137.724 66.8949 137.959 66.4938 138.174 66.0199C138.393 65.5459 138.582 65.0256 138.741 64.4588C138.904 63.892 139.029 63.3054 139.119 62.6989C139.212 62.0923 139.258 61.4957 139.258 60.9091C139.258 60.1236 139.179 59.3281 139.02 58.5227C138.864 57.7173 138.65 56.9699 138.378 56.2805C138.11 55.5911 137.806 55.0277 137.468 54.5902H139.164C139.817 55.4751 140.307 56.4396 140.635 57.4837C140.967 58.5244 141.132 59.6662 141.132 60.9091Z" fill="#112866"/>
<path d="M17.7614 76.7273V84H16.8807V76.7273H17.7614ZM20.2516 80.7188V84H19.4135V78.5455H20.2232V79.3977H20.2942C20.4221 79.1207 20.6162 78.8982 20.8766 78.7301C21.137 78.5597 21.4732 78.4744 21.8851 78.4744C22.2544 78.4744 22.5776 78.5502 22.8546 78.7017C23.1316 78.8509 23.347 79.0781 23.5009 79.3835C23.6548 79.6866 23.7317 80.0701 23.7317 80.5341V84H22.8936V80.5909C22.8936 80.1624 22.7824 79.8286 22.5598 79.5895C22.3373 79.348 22.0319 79.2273 21.6436 79.2273C21.3761 79.2273 21.137 79.2853 20.9263 79.4013C20.718 79.5173 20.5534 79.6866 20.4327 79.9091C20.312 80.1316 20.2516 80.4015 20.2516 80.7188ZM29.1268 79.767L28.3739 79.9801C28.3266 79.8546 28.2567 79.7327 28.1644 79.6143C28.0745 79.4936 27.9513 79.3942 27.7951 79.3161C27.6388 79.2379 27.4388 79.1989 27.195 79.1989C26.8612 79.1989 26.583 79.2758 26.3604 79.4297C26.1403 79.5812 26.0302 79.7741 26.0302 80.0085C26.0302 80.2169 26.1059 80.3814 26.2575 80.5021C26.409 80.6229 26.6457 80.7235 26.9677 80.804L27.7773 81.0028C28.265 81.1212 28.6284 81.3023 28.8675 81.5462C29.1067 81.7876 29.2262 82.099 29.2262 82.4801C29.2262 82.7926 29.1362 83.072 28.9563 83.3182C28.7788 83.5644 28.5302 83.7585 28.2106 83.9006C27.891 84.0426 27.5193 84.1136 27.0955 84.1136C26.5392 84.1136 26.0787 83.9929 25.7141 83.7514C25.3496 83.5099 25.1187 83.1572 25.0217 82.6932L25.8171 82.4943C25.8929 82.7879 26.0361 83.008 26.2468 83.1548C26.4599 83.3016 26.738 83.375 27.0813 83.375C27.4719 83.375 27.7821 83.2921 28.0117 83.1264C28.2437 82.9583 28.3597 82.7571 28.3597 82.5227C28.3597 82.3333 28.2934 82.1747 28.1609 82.0469C28.0283 81.9167 27.8247 81.8196 27.5501 81.7557L26.641 81.5426C26.1415 81.4242 25.7745 81.2408 25.5401 80.9922C25.3081 80.7412 25.1921 80.4276 25.1921 80.0511C25.1921 79.7434 25.2785 79.4711 25.4513 79.2344C25.6265 78.9976 25.8645 78.8118 26.1651 78.6768C26.4682 78.5419 26.8114 78.4744 27.195 78.4744C27.7347 78.4744 28.1585 78.5928 28.4663 78.8295C28.7764 79.0663 28.9966 79.3788 29.1268 79.767ZM32.8599 78.5455V79.2557H30.0332V78.5455H32.8599ZM30.8571 77.2386H31.6951V82.4375C31.6951 82.6742 31.7295 82.8518 31.7981 82.9702C31.8691 83.0862 31.9591 83.1643 32.068 83.2045C32.1793 83.2424 32.2965 83.2614 32.4196 83.2614C32.5119 83.2614 32.5877 83.2566 32.6468 83.2472C32.706 83.2353 32.7534 83.2259 32.7889 83.2188L32.9593 83.9716C32.9025 83.9929 32.8232 84.0142 32.7214 84.0355C32.6196 84.0592 32.4906 84.071 32.3343 84.071C32.0976 84.071 31.8656 84.0201 31.6383 83.9183C31.4134 83.8165 31.2264 83.6615 31.0772 83.4531C30.9305 83.2448 30.8571 82.982 30.8571 82.6648V77.2386ZM35.7257 84.1278C35.38 84.1278 35.0663 84.0627 34.7846 83.9325C34.5029 83.8 34.2792 83.6094 34.1135 83.3608C33.9477 83.1098 33.8649 82.8068 33.8649 82.4517C33.8649 82.1392 33.9264 81.8859 34.0495 81.6918C34.1726 81.4953 34.3372 81.3414 34.5431 81.2301C34.7491 81.1188 34.9764 81.036 35.225 80.9815C35.4759 80.9247 35.728 80.8797 35.9814 80.8466C36.3128 80.804 36.5815 80.772 36.7875 80.7507C36.9958 80.727 37.1473 80.688 37.242 80.6335C37.3391 80.5791 37.3876 80.4844 37.3876 80.3494V80.321C37.3876 79.9706 37.2917 79.6984 37.1 79.5043C36.9106 79.3101 36.6229 79.2131 36.237 79.2131C35.8369 79.2131 35.5233 79.3007 35.296 79.4759C35.0687 79.651 34.9089 79.8381 34.8166 80.0369L34.0211 79.7528C34.1632 79.4214 34.3526 79.1634 34.5893 78.9787C34.8284 78.7917 35.0888 78.6615 35.3706 78.5881C35.6547 78.5123 35.934 78.4744 36.2086 78.4744C36.3838 78.4744 36.585 78.4957 36.8123 78.5384C37.042 78.5786 37.2633 78.6626 37.4764 78.7905C37.6918 78.9183 37.8706 79.1113 38.0126 79.3693C38.1547 79.6274 38.2257 79.973 38.2257 80.4062V84H37.3876V83.2614H37.345C37.2882 83.3797 37.1935 83.5064 37.0609 83.6413C36.9283 83.7763 36.752 83.8911 36.5318 83.9858C36.3116 84.0805 36.0429 84.1278 35.7257 84.1278ZM35.8535 83.375C36.185 83.375 36.4643 83.3099 36.6916 83.1797C36.9212 83.0495 37.094 82.8814 37.21 82.6754C37.3284 82.4695 37.3876 82.2528 37.3876 82.0256V81.2585C37.3521 81.3011 37.274 81.3402 37.1532 81.3757C37.0349 81.4089 36.8975 81.4384 36.7413 81.4645C36.5874 81.4882 36.4371 81.5095 36.2903 81.5284C36.1459 81.545 36.0287 81.5592 35.9387 81.571C35.7209 81.5994 35.5173 81.6456 35.3279 81.7095C35.1409 81.7711 34.9894 81.8646 34.8734 81.9901C34.7598 82.1132 34.7029 82.2812 34.7029 82.4943C34.7029 82.7855 34.8107 83.0057 35.0261 83.1548C35.2439 83.3016 35.5197 83.375 35.8535 83.375ZM40.5934 80.7188V84H39.7553V78.5455H40.565V79.3977H40.636C40.7638 79.1207 40.958 78.8982 41.2184 78.7301C41.4788 78.5597 41.815 78.4744 42.2269 78.4744C42.5962 78.4744 42.9194 78.5502 43.1964 78.7017C43.4734 78.8509 43.6888 79.0781 43.8427 79.3835C43.9966 79.6866 44.0735 80.0701 44.0735 80.5341V84H43.2354V80.5909C43.2354 80.1624 43.1242 79.8286 42.9016 79.5895C42.6791 79.348 42.3737 79.2273 41.9854 79.2273C41.7179 79.2273 41.4788 79.2853 41.2681 79.4013C41.0598 79.5173 40.8952 79.6866 40.7745 79.9091C40.6538 80.1316 40.5934 80.4015 40.5934 80.7188ZM47.9771 78.5455V79.2557H45.1504V78.5455H47.9771ZM45.9743 77.2386H46.8123V82.4375C46.8123 82.6742 46.8467 82.8518 46.9153 82.9702C46.9863 83.0862 47.0763 83.1643 47.1852 83.2045C47.2965 83.2424 47.4136 83.2614 47.5368 83.2614C47.6291 83.2614 47.7048 83.2566 47.764 83.2472C47.8232 83.2353 47.8706 83.2259 47.9061 83.2188L48.0765 83.9716C48.0197 83.9929 47.9404 84.0142 47.8386 84.0355C47.7368 84.0592 47.6078 84.071 47.4515 84.071C47.2148 84.071 46.9828 84.0201 46.7555 83.9183C46.5306 83.8165 46.3436 83.6615 46.1944 83.4531C46.0476 83.2448 45.9743 82.982 45.9743 82.6648V77.2386ZM52.1639 84V76.7273H54.6213C55.1895 76.7273 55.6558 76.8243 56.0204 77.0185C56.385 77.2102 56.6549 77.4742 56.8301 77.8104C57.0053 78.1465 57.0929 78.5289 57.0929 78.9574C57.0929 79.3859 57.0053 79.7659 56.8301 80.0973C56.6549 80.4287 56.3862 80.6892 56.024 80.8786C55.6618 81.0656 55.1989 81.1591 54.6355 81.1591H52.6468V80.3636H54.6071C54.9953 80.3636 55.3078 80.3068 55.5446 80.1932C55.7837 80.0795 55.9565 79.9186 56.063 79.7102C56.1719 79.4995 56.2264 79.2486 56.2264 78.9574C56.2264 78.6662 56.1719 78.4117 56.063 78.1939C55.9541 77.9761 55.7801 77.808 55.541 77.6896C55.3019 77.5689 54.9859 77.5085 54.5929 77.5085H53.0446V84H52.1639ZM55.5872 80.733L57.377 84H56.3542L54.5929 80.733H55.5872ZM60.604 84.1136C60.1116 84.1136 59.6796 83.9964 59.3079 83.7621C58.9386 83.5277 58.6497 83.1998 58.4414 82.7784C58.2354 82.357 58.1325 81.8646 58.1325 81.3011C58.1325 80.733 58.2354 80.237 58.4414 79.8132C58.6497 79.3894 58.9386 79.0604 59.3079 78.826C59.6796 78.5916 60.1116 78.4744 60.604 78.4744C61.0965 78.4744 61.5273 78.5916 61.8967 78.826C62.2683 79.0604 62.5572 79.3894 62.7631 79.8132C62.9715 80.237 63.0756 80.733 63.0756 81.3011C63.0756 81.8646 62.9715 82.357 62.7631 82.7784C62.5572 83.1998 62.2683 83.5277 61.8967 83.7621C61.5273 83.9964 61.0965 84.1136 60.604 84.1136ZM60.604 83.3608C60.9781 83.3608 61.2859 83.2649 61.5273 83.0732C61.7688 82.8814 61.9476 82.6293 62.0636 82.3168C62.1796 82.0043 62.2376 81.6657 62.2376 81.3011C62.2376 80.9366 62.1796 80.5968 62.0636 80.282C61.9476 79.9671 61.7688 79.7126 61.5273 79.5185C61.2859 79.3243 60.9781 79.2273 60.604 79.2273C60.23 79.2273 59.9222 79.3243 59.6808 79.5185C59.4393 79.7126 59.2605 79.9671 59.1445 80.282C59.0285 80.5968 58.9705 80.9366 58.9705 81.3011C58.9705 81.6657 59.0285 82.0043 59.1445 82.3168C59.2605 82.6293 59.4393 82.8814 59.6808 83.0732C59.9222 83.2649 60.23 83.3608 60.604 83.3608ZM64.4686 84V76.7273H65.3066V79.4119H65.3777C65.4392 79.3172 65.5244 79.1965 65.6333 79.0497C65.7446 78.9006 65.9032 78.768 66.1092 78.652C66.3175 78.5336 66.5993 78.4744 66.9544 78.4744C67.4136 78.4744 67.8185 78.5893 68.1689 78.8189C68.5192 79.0485 68.7927 79.3741 68.9892 79.7955C69.1857 80.2169 69.2839 80.714 69.2839 81.2869C69.2839 81.8646 69.1857 82.3653 68.9892 82.7891C68.7927 83.2105 68.5204 83.5372 68.1724 83.7692C67.8244 83.9988 67.4231 84.1136 66.9686 84.1136C66.6182 84.1136 66.3377 84.0556 66.127 83.9396C65.9163 83.8213 65.7541 83.6875 65.6404 83.5384C65.5268 83.3868 65.4392 83.2614 65.3777 83.1619H65.2782V84H64.4686ZM65.2924 81.2727C65.2924 81.6847 65.3528 82.0481 65.4735 82.3629C65.5943 82.6754 65.7707 82.9205 66.0027 83.098C66.2347 83.2732 66.5188 83.3608 66.8549 83.3608C67.2053 83.3608 67.4977 83.2685 67.7321 83.0838C67.9688 82.8968 68.1464 82.6458 68.2647 82.331C68.3855 82.0137 68.4458 81.661 68.4458 81.2727C68.4458 80.8892 68.3867 80.5436 68.2683 80.2358C68.1523 79.9257 67.9759 79.6806 67.7392 79.5007C67.5048 79.3184 67.21 79.2273 66.8549 79.2273C66.514 79.2273 66.2276 79.3137 65.9956 79.4865C65.7636 79.657 65.5884 79.8961 65.47 80.2038C65.3516 80.5092 65.2924 80.8655 65.2924 81.2727ZM72.7818 84.1136C72.2894 84.1136 71.8573 83.9964 71.4856 83.7621C71.1163 83.5277 70.8275 83.1998 70.6191 82.7784C70.4132 82.357 70.3102 81.8646 70.3102 81.3011C70.3102 80.733 70.4132 80.237 70.6191 79.8132C70.8275 79.3894 71.1163 79.0604 71.4856 78.826C71.8573 78.5916 72.2894 78.4744 72.7818 78.4744C73.2742 78.4744 73.7051 78.5916 74.0744 78.826C74.4461 79.0604 74.7349 79.3894 74.9409 79.8132C75.1492 80.237 75.2534 80.733 75.2534 81.3011C75.2534 81.8646 75.1492 82.357 74.9409 82.7784C74.7349 83.1998 74.4461 83.5277 74.0744 83.7621C73.7051 83.9964 73.2742 84.1136 72.7818 84.1136ZM72.7818 83.3608C73.1558 83.3608 73.4636 83.2649 73.7051 83.0732C73.9466 82.8814 74.1253 82.6293 74.2413 82.3168C74.3573 82.0043 74.4153 81.6657 74.4153 81.3011C74.4153 80.9366 74.3573 80.5968 74.2413 80.282C74.1253 79.9671 73.9466 79.7126 73.7051 79.5185C73.4636 79.3243 73.1558 79.2273 72.7818 79.2273C72.4077 79.2273 72.1 79.3243 71.8585 79.5185C71.617 79.7126 71.4383 79.9671 71.3223 80.282C71.2063 80.5968 71.1483 80.9366 71.1483 81.3011C71.1483 81.6657 71.2063 82.0043 71.3223 82.3168C71.4383 82.6293 71.617 82.8814 71.8585 83.0732C72.1 83.2649 72.4077 83.3608 72.7818 83.3608ZM79.4588 84V76.7273H81.9162C82.4867 76.7273 82.9531 76.8303 83.3153 77.0362C83.6799 77.2398 83.9498 77.5156 84.125 77.8636C84.3002 78.2116 84.3878 78.5999 84.3878 79.0284C84.3878 79.4569 84.3002 79.8464 84.125 80.1967C83.9522 80.5471 83.6847 80.8265 83.3224 81.0348C82.9602 81.2408 82.4962 81.3438 81.9304 81.3438H80.169V80.5625H81.902C82.2926 80.5625 82.6063 80.495 82.843 80.3601C83.0798 80.2251 83.2514 80.0429 83.358 79.8132C83.4669 79.5812 83.5213 79.3196 83.5213 79.0284C83.5213 78.7372 83.4669 78.4768 83.358 78.2472C83.2514 78.0175 83.0786 77.8376 82.8395 77.7074C82.6004 77.5748 82.2831 77.5085 81.8878 77.5085H80.3395V84H79.4588ZM87.8501 84.1136C87.3577 84.1136 86.9257 83.9964 86.554 83.7621C86.1847 83.5277 85.8958 83.1998 85.6875 82.7784C85.4815 82.357 85.3786 81.8646 85.3786 81.3011C85.3786 80.733 85.4815 80.237 85.6875 79.8132C85.8958 79.3894 86.1847 79.0604 86.554 78.826C86.9257 78.5916 87.3577 78.4744 87.8501 78.4744C88.3426 78.4744 88.7734 78.5916 89.1428 78.826C89.5144 79.0604 89.8033 79.3894 90.0092 79.8132C90.2176 80.237 90.3217 80.733 90.3217 81.3011C90.3217 81.8646 90.2176 82.357 90.0092 82.7784C89.8033 83.1998 89.5144 83.5277 89.1428 83.7621C88.7734 83.9964 88.3426 84.1136 87.8501 84.1136ZM87.8501 83.3608C88.2242 83.3608 88.532 83.2649 88.7734 83.0732C89.0149 82.8814 89.1937 82.6293 89.3097 82.3168C89.4257 82.0043 89.4837 81.6657 89.4837 81.3011C89.4837 80.9366 89.4257 80.5968 89.3097 80.282C89.1937 79.9671 89.0149 79.7126 88.7734 79.5185C88.532 79.3243 88.2242 79.2273 87.8501 79.2273C87.4761 79.2273 87.1683 79.3243 86.9268 79.5185C86.6854 79.7126 86.5066 79.9671 86.3906 80.282C86.2746 80.5968 86.2166 80.9366 86.2166 81.3011C86.2166 81.6657 86.2746 82.0043 86.3906 82.3168C86.5066 82.6293 86.6854 82.8814 86.9268 83.0732C87.1683 83.2649 87.4761 83.3608 87.8501 83.3608ZM91.601 84V78.5455H92.4107V79.3693H92.4675C92.5669 79.0994 92.7469 78.8804 93.0073 78.7124C93.2677 78.5443 93.5613 78.4602 93.888 78.4602C93.9495 78.4602 94.0265 78.4614 94.1188 78.4638C94.2111 78.4661 94.281 78.4697 94.3283 78.4744V79.3267C94.2999 79.3196 94.2348 79.3089 94.133 79.2947C94.0336 79.2782 93.9282 79.2699 93.8169 79.2699C93.5518 79.2699 93.315 79.3255 93.1067 79.4368C92.9007 79.5457 92.7374 79.6972 92.6167 79.8913C92.4983 80.0831 92.4391 80.3021 92.4391 80.5483V84H91.601ZM98.0357 78.5455V79.2557H95.209V78.5455H98.0357ZM96.0328 77.2386H96.8709V82.4375C96.8709 82.6742 96.9052 82.8518 96.9739 82.9702C97.0449 83.0862 97.1349 83.1643 97.2438 83.2045C97.3551 83.2424 97.4722 83.2614 97.5953 83.2614C97.6877 83.2614 97.7634 83.2566 97.8226 83.2472C97.8818 83.2353 97.9292 83.2259 97.9647 83.2188L98.1351 83.9716C98.0783 83.9929 97.999 84.0142 97.8972 84.0355C97.7954 84.0592 97.6664 84.071 97.5101 84.071C97.2734 84.071 97.0414 84.0201 96.8141 83.9183C96.5892 83.8165 96.4022 83.6615 96.253 83.4531C96.1062 83.2448 96.0328 82.982 96.0328 82.6648V77.2386ZM101.725 78.5455V79.2557H98.785V78.5455H101.725ZM99.6657 84V77.7926C99.6657 77.4801 99.7391 77.2197 99.8858 77.0114C100.033 76.803 100.223 76.6468 100.458 76.5426C100.692 76.4384 100.939 76.3864 101.2 76.3864C101.406 76.3864 101.574 76.4029 101.704 76.4361C101.834 76.4692 101.931 76.5 101.995 76.5284L101.754 77.2528C101.711 77.2386 101.652 77.2209 101.576 77.1996C101.503 77.1783 101.406 77.1676 101.285 77.1676C101.008 77.1676 100.808 77.2375 100.685 77.3771C100.564 77.5168 100.504 77.7216 100.504 77.9915V84H99.6657ZM104.891 84.1136C104.399 84.1136 103.967 83.9964 103.595 83.7621C103.226 83.5277 102.937 83.1998 102.729 82.7784C102.523 82.357 102.42 81.8646 102.42 81.3011C102.42 80.733 102.523 80.237 102.729 79.8132C102.937 79.3894 103.226 79.0604 103.595 78.826C103.967 78.5916 104.399 78.4744 104.891 78.4744C105.384 78.4744 105.814 78.5916 106.184 78.826C106.555 79.0604 106.844 79.3894 107.05 79.8132C107.259 80.237 107.363 80.733 107.363 81.3011C107.363 81.8646 107.259 82.357 107.05 82.7784C106.844 83.1998 106.555 83.5277 106.184 83.7621C105.814 83.9964 105.384 84.1136 104.891 84.1136ZM104.891 83.3608C105.265 83.3608 105.573 83.2649 105.814 83.0732C106.056 82.8814 106.235 82.6293 106.351 82.3168C106.467 82.0043 106.525 81.6657 106.525 81.3011C106.525 80.9366 106.467 80.5968 106.351 80.282C106.235 79.9671 106.056 79.7126 105.814 79.5185C105.573 79.3243 105.265 79.2273 104.891 79.2273C104.517 79.2273 104.209 79.3243 103.968 79.5185C103.726 79.7126 103.548 79.9671 103.432 80.282C103.316 80.5968 103.258 80.9366 103.258 81.3011C103.258 81.6657 103.316 82.0043 103.432 82.3168C103.548 82.6293 103.726 82.8814 103.968 83.0732C104.209 83.2649 104.517 83.3608 104.891 83.3608ZM109.48 76.7273V84H108.642V76.7273H109.48ZM111.015 84V78.5455H111.853V84H111.015ZM111.441 77.6364C111.278 77.6364 111.137 77.5807 111.019 77.4695C110.903 77.3582 110.845 77.2244 110.845 77.0682C110.845 76.9119 110.903 76.7782 111.019 76.6669C111.137 76.5556 111.278 76.5 111.441 76.5C111.605 76.5 111.744 76.5556 111.86 76.6669C111.979 76.7782 112.038 76.9119 112.038 77.0682C112.038 77.2244 111.979 77.3582 111.86 77.4695C111.744 77.5807 111.605 77.6364 111.441 77.6364ZM115.604 84.1136C115.112 84.1136 114.68 83.9964 114.308 83.7621C113.939 83.5277 113.65 83.1998 113.441 82.7784C113.235 82.357 113.132 81.8646 113.132 81.3011C113.132 80.733 113.235 80.237 113.441 79.8132C113.65 79.3894 113.939 79.0604 114.308 78.826C114.68 78.5916 115.112 78.4744 115.604 78.4744C116.096 78.4744 116.527 78.5916 116.897 78.826C117.268 79.0604 117.557 79.3894 117.763 79.8132C117.971 80.237 118.076 80.733 118.076 81.3011C118.076 81.8646 117.971 82.357 117.763 82.7784C117.557 83.1998 117.268 83.5277 116.897 83.7621C116.527 83.9964 116.096 84.1136 115.604 84.1136ZM115.604 83.3608C115.978 83.3608 116.286 83.2649 116.527 83.0732C116.769 82.8814 116.948 82.6293 117.064 82.3168C117.18 82.0043 117.238 81.6657 117.238 81.3011C117.238 80.9366 117.18 80.5968 117.064 80.282C116.948 79.9671 116.769 79.7126 116.527 79.5185C116.286 79.3243 115.978 79.2273 115.604 79.2273C115.23 79.2273 114.922 79.3243 114.681 79.5185C114.439 79.7126 114.261 79.9671 114.145 80.282C114.029 80.5968 113.971 80.9366 113.971 81.3011C113.971 81.6657 114.029 82.0043 114.145 82.3168C114.261 82.6293 114.439 82.8814 114.681 83.0732C114.922 83.2649 115.23 83.3608 115.604 83.3608Z" fill="#667DA3"/>
<path d="M25.3032 30C25.1054 30 24.9121 30.0586 24.7477 30.1685C24.5832 30.2784 24.455 30.4346 24.3793 30.6173C24.3037 30.8 24.2839 31.0011 24.3224 31.1951C24.361 31.3891 24.4563 31.5673 24.5961 31.7071C24.736 31.847 24.9142 31.9422 25.1081 31.9808C25.3021 32.0194 25.5032 31.9996 25.6859 31.9239C25.8686 31.8482 26.0248 31.72 26.1347 31.5556C26.2446 31.3911 26.3032 31.1978 26.3032 31C26.3032 30.7348 26.1979 30.4804 26.0103 30.2929C25.8228 30.1054 25.5684 30 25.3032 30ZM18.3032 29C18.038 29 17.7837 29.1054 17.5961 29.2929C17.4086 29.4804 17.3032 29.7348 17.3032 30V32C17.3032 32.2652 17.4086 32.5196 17.5961 32.7071C17.7837 32.8946 18.038 33 18.3032 33C18.5684 33 18.8228 32.8946 19.0103 32.7071C19.1979 32.5196 19.3032 32.2652 19.3032 32V30C19.3032 29.7348 19.1979 29.4804 19.0103 29.2929C18.8228 29.1054 18.5684 29 18.3032 29ZM38.3032 29C38.038 29 37.7837 29.1054 37.5961 29.2929C37.4086 29.4804 37.3032 29.7348 37.3032 30V32C37.3032 32.2652 37.4086 32.5196 37.5961 32.7071C37.7837 32.8946 38.038 33 38.3032 33C38.5684 33 38.8228 32.8946 39.0103 32.7071C39.1979 32.5196 39.3032 32.2652 39.3032 32V30C39.3032 29.7348 39.1979 29.4804 39.0103 29.2929C38.8228 29.1054 38.5684 29 38.3032 29ZM33.3032 22H29.3032V20.72C29.6055 20.5455 29.8568 20.2949 30.0323 19.9932C30.2077 19.6914 30.3011 19.349 30.3032 19C30.3032 18.4696 30.0925 17.9609 29.7174 17.5858C29.3424 17.2107 28.8337 17 28.3032 17C27.7728 17 27.2641 17.2107 26.889 17.5858C26.5139 17.9609 26.3032 18.4696 26.3032 19C26.3053 19.349 26.3987 19.6914 26.5742 19.9932C26.7496 20.2949 27.0009 20.5455 27.3032 20.72V22H23.3032C22.5076 22 21.7445 22.3161 21.1819 22.8787C20.6193 23.4413 20.3032 24.2044 20.3032 25V34C20.3032 34.7956 20.6193 35.5587 21.1819 36.1213C21.7445 36.6839 22.5076 37 23.3032 37H33.3032C34.0989 37 34.8619 36.6839 35.4245 36.1213C35.9872 35.5587 36.3032 34.7956 36.3032 34V25C36.3032 24.2044 35.9872 23.4413 35.4245 22.8787C34.8619 22.3161 34.0989 22 33.3032 22ZM30.0232 24L29.5232 26H27.0832L26.5832 24H30.0232ZM34.3032 34C34.3032 34.2652 34.1979 34.5196 34.0103 34.7071C33.8228 34.8946 33.5684 35 33.3032 35H23.3032C23.038 35 22.7837 34.8946 22.5961 34.7071C22.4086 34.5196 22.3032 34.2652 22.3032 34V25C22.3032 24.7348 22.4086 24.4804 22.5961 24.2929C22.7837 24.1054 23.038 24 23.3032 24H24.5232L25.3032 27.24C25.358 27.4619 25.4871 27.6583 25.669 27.7966C25.851 27.9349 26.0748 28.0067 26.3032 28H30.3032C30.5317 28.0067 30.7555 27.9349 30.9374 27.7966C31.1194 27.6583 31.2485 27.4619 31.3032 27.24L32.0832 24H33.3032C33.5684 24 33.8228 24.1054 34.0103 24.2929C34.1979 24.4804 34.3032 24.7348 34.3032 25V34ZM31.3032 30C31.1054 30 30.9121 30.0586 30.7477 30.1685C30.5832 30.2784 30.455 30.4346 30.3793 30.6173C30.3037 30.8 30.2839 31.0011 30.3224 31.1951C30.361 31.3891 30.4563 31.5673 30.5961 31.7071C30.736 31.847 30.9142 31.9422 31.1081 31.9808C31.3021 32.0194 31.5032 31.9996 31.6859 31.9239C31.8686 31.8482 32.0248 31.72 32.1347 31.5556C32.2446 31.3911 32.3032 31.1978 32.3032 31C32.3032 30.7348 32.1979 30.4804 32.0103 30.2929C31.8228 30.1054 31.5684 30 31.3032 30Z" fill="#21E4FF"/>
<rect x="152" y="20" width="38" height="16" rx="4" fill="white"/>
<g filter="url(#filter0_i_2613_5492)">
<path d="M164.781 32.7797C164.781 32.7797 164.781 32.7797 164.781 32.7797C164.7 32.7796 164.62 32.7599 164.549 32.7223L162.931 31.8717C162.475 31.6321 162.247 31.5122 162 31.5122C161.753 31.5122 161.525 31.6321 161.069 31.8717L159.451 32.7223C159.369 32.7657 159.276 32.7851 159.183 32.7784C159.09 32.7717 159 32.7391 158.925 32.6842C158.849 32.6294 158.791 32.5545 158.756 32.4681C158.72 32.3817 158.71 32.2872 158.726 32.1952L159.035 30.3937C159.122 29.886 159.166 29.6322 159.089 29.3974C159.013 29.1626 158.829 28.9829 158.46 28.6233L157.151 27.3478C157.084 27.2827 157.037 27.2001 157.015 27.1095C156.992 27.019 156.996 26.9239 157.024 26.8352C157.053 26.7465 157.106 26.6676 157.178 26.6074C157.249 26.5473 157.336 26.5083 157.428 26.4948L159.237 26.2319C159.747 26.1579 160.001 26.1208 160.201 25.9757C160.401 25.8306 160.515 25.5997 160.743 25.1378L161.552 23.4989C161.598 23.4209 161.663 23.3563 161.742 23.3114C161.82 23.2665 161.909 23.2429 162 23.2429C162.091 23.2429 162.18 23.2665 162.258 23.3114C162.337 23.3563 162.402 23.4209 162.449 23.4989L163.257 25.1378C163.485 25.5997 163.599 25.8306 163.799 25.9757C163.999 26.1208 164.254 26.1578 164.763 26.2319L166.572 26.4948C166.664 26.5082 166.751 26.5472 166.822 26.6074C166.894 26.6675 166.947 26.7464 166.976 26.8352C167.004 26.9239 167.008 27.0189 166.986 27.1095C166.963 27.2001 166.916 27.2826 166.849 27.3478L165.54 28.6233C165.172 28.9828 164.987 29.1626 164.911 29.3974C164.835 29.6322 164.878 29.886 164.965 30.3937L165.274 32.1951C165.287 32.2669 165.283 32.3405 165.264 32.4108C165.245 32.4811 165.211 32.5463 165.164 32.602C165.117 32.6577 165.058 32.7024 164.992 32.7331C164.926 32.7638 164.854 32.7797 164.781 32.7796C164.781 32.7796 164.781 32.7797 164.781 32.7797Z" fill="#FFCB64"/>
</g>
<path d="M173.256 32.0994C172.745 32.0994 172.29 32.0118 171.893 31.8366C171.497 31.6615 171.185 31.4176 170.955 31.1051C170.726 30.7926 170.604 30.4316 170.589 30.022H171.925C171.937 30.2185 172.002 30.3902 172.12 30.5369C172.238 30.6813 172.396 30.7938 172.592 30.8743C172.789 30.9548 173.009 30.995 173.253 30.995C173.513 30.995 173.744 30.95 173.945 30.8601C174.147 30.7678 174.304 30.6399 174.418 30.4766C174.531 30.3132 174.587 30.125 174.585 29.9119C174.587 29.6918 174.53 29.4976 174.414 29.3295C174.298 29.1615 174.13 29.0301 173.91 28.9354C173.692 28.8407 173.429 28.7933 173.121 28.7933H172.479V27.7777H173.121C173.375 27.7777 173.596 27.7339 173.786 27.6463C173.977 27.5587 174.128 27.4356 174.237 27.277C174.345 27.116 174.399 26.9302 174.396 26.7195C174.399 26.5135 174.353 26.3348 174.258 26.1832C174.165 26.0294 174.034 25.9098 173.864 25.8246C173.696 25.7393 173.498 25.6967 173.271 25.6967C173.048 25.6967 172.842 25.737 172.653 25.8175C172.463 25.898 172.311 26.0128 172.195 26.1619C172.079 26.3087 172.017 26.4839 172.01 26.6875H170.742C170.752 26.2803 170.869 25.9228 171.094 25.6151C171.321 25.3049 171.624 25.0634 172.003 24.8906C172.382 24.7154 172.807 24.6278 173.278 24.6278C173.763 24.6278 174.184 24.719 174.542 24.9013C174.902 25.0812 175.18 25.3239 175.376 25.6293C175.573 25.9347 175.671 26.272 175.671 26.6413C175.674 27.0509 175.553 27.3942 175.309 27.6712C175.067 27.9482 174.75 28.1293 174.357 28.2145V28.2713C174.869 28.3423 175.26 28.5317 175.533 28.8395C175.807 29.1449 175.943 29.5249 175.941 29.9794C175.941 30.3866 175.825 30.7512 175.593 31.0732C175.363 31.3928 175.046 31.6437 174.641 31.826C174.239 32.0083 173.777 32.0994 173.256 32.0994ZM177.751 32.0781C177.536 32.0781 177.351 32.0024 177.197 31.8509C177.043 31.6993 176.968 31.5147 176.97 31.2969C176.968 31.0838 177.043 30.9015 177.197 30.75C177.351 30.5985 177.536 30.5227 177.751 30.5227C177.96 30.5227 178.141 30.5985 178.295 30.75C178.451 30.9015 178.53 31.0838 178.532 31.2969C178.53 31.4413 178.492 31.5727 178.419 31.6911C178.348 31.8094 178.253 31.9041 178.135 31.9751C178.019 32.0438 177.891 32.0781 177.751 32.0781ZM182.263 24.6278C182.611 24.6302 182.95 24.6918 183.279 24.8125C183.61 24.9309 183.908 25.125 184.173 25.3949C184.439 25.6624 184.649 26.0211 184.806 26.4709C184.962 26.9207 185.04 27.477 185.04 28.1399C185.042 28.7649 184.976 29.3236 184.841 29.8161C184.709 30.3061 184.518 30.7204 184.269 31.0589C184.021 31.3975 183.721 31.6555 183.371 31.8331C183.021 32.0107 182.626 32.0994 182.188 32.0994C181.729 32.0994 181.322 32.0095 180.967 31.8295C180.614 31.6496 180.329 31.4034 180.111 31.0909C179.893 30.7784 179.759 30.4209 179.71 30.0185H181.006C181.072 30.3073 181.207 30.5369 181.411 30.7074C181.617 30.8755 181.876 30.9595 182.188 30.9595C182.693 30.9595 183.081 30.7405 183.353 30.3026C183.625 29.8646 183.762 29.2562 183.762 28.4773H183.712C183.596 28.6856 183.445 28.8655 183.261 29.017C183.076 29.1662 182.867 29.281 182.632 29.3615C182.4 29.442 182.154 29.4822 181.894 29.4822C181.468 29.4822 181.084 29.3804 180.743 29.1768C180.405 28.9732 180.136 28.6939 179.937 28.3388C179.74 27.9837 179.641 27.5777 179.639 27.1207C179.639 26.6473 179.748 26.2223 179.965 25.8459C180.186 25.4671 180.492 25.1688 180.885 24.951C181.278 24.7308 181.737 24.6231 182.263 24.6278ZM182.267 25.6932C182.011 25.6932 181.78 25.7559 181.574 25.8814C181.37 26.0045 181.209 26.1726 181.091 26.3857C180.975 26.5964 180.917 26.8319 180.917 27.0923C180.919 27.3504 180.977 27.5848 181.091 27.7955C181.207 28.0062 181.365 28.1731 181.563 28.2962C181.765 28.4193 181.994 28.4808 182.252 28.4808C182.444 28.4808 182.623 28.4441 182.789 28.3707C182.954 28.2973 183.099 28.1955 183.222 28.0653C183.347 27.9328 183.444 27.7824 183.513 27.6143C183.584 27.4463 183.618 27.2687 183.616 27.0817C183.616 26.8331 183.557 26.6035 183.438 26.3928C183.322 26.1821 183.163 26.0128 182.959 25.8849C182.758 25.7571 182.527 25.6932 182.267 25.6932Z" fill="#112866"/>
<path d="M21.8295 107.455C21.7784 107.023 21.571 106.688 21.2074 106.449C20.8438 106.21 20.3977 106.091 19.8693 106.091C19.483 106.091 19.1449 106.153 18.8551 106.278C18.5682 106.403 18.3438 106.575 18.1818 106.794C18.0227 107.013 17.9432 107.261 17.9432 107.54C17.9432 107.773 17.9986 107.973 18.1094 108.141C18.223 108.305 18.3679 108.443 18.544 108.554C18.7202 108.662 18.9048 108.751 19.098 108.822C19.2912 108.891 19.4688 108.946 19.6307 108.989L20.517 109.227C20.7443 109.287 20.9972 109.369 21.2756 109.474C21.5568 109.58 21.8253 109.723 22.081 109.905C22.3395 110.084 22.5526 110.314 22.7202 110.595C22.8878 110.876 22.9716 111.222 22.9716 111.631C22.9716 112.102 22.848 112.528 22.6009 112.909C22.3565 113.29 21.9986 113.592 21.527 113.817C21.0582 114.041 20.4886 114.153 19.8182 114.153C19.1932 114.153 18.652 114.053 18.1946 113.851C17.7401 113.649 17.3821 113.368 17.1207 113.007C16.8622 112.646 16.7159 112.227 16.6818 111.75H17.7727C17.8011 112.08 17.9119 112.352 18.1051 112.568C18.3011 112.781 18.5483 112.94 18.8466 113.045C19.1477 113.148 19.4716 113.199 19.8182 113.199C20.2216 113.199 20.5838 113.134 20.9048 113.003C21.2259 112.869 21.4801 112.685 21.6676 112.449C21.8551 112.21 21.9489 111.932 21.9489 111.614C21.9489 111.324 21.8679 111.088 21.706 110.906C21.544 110.724 21.331 110.577 21.0668 110.463C20.8026 110.349 20.517 110.25 20.2102 110.165L19.1364 109.858C18.4545 109.662 17.9148 109.382 17.517 109.018C17.1193 108.655 16.9205 108.179 16.9205 107.591C16.9205 107.102 17.0526 106.676 17.3168 106.312C17.5838 105.946 17.9418 105.662 18.3906 105.46C18.8423 105.256 19.3466 105.153 19.9034 105.153C20.4659 105.153 20.9659 105.254 21.4034 105.456C21.8409 105.655 22.1875 105.928 22.4432 106.274C22.7017 106.621 22.8381 107.014 22.8523 107.455H21.8295ZM24.5728 114V107.455H25.5785V114H24.5728ZM25.0842 106.364C24.8881 106.364 24.7191 106.297 24.5771 106.163C24.4379 106.03 24.3683 105.869 24.3683 105.682C24.3683 105.494 24.4379 105.334 24.5771 105.2C24.7191 105.067 24.8881 105 25.0842 105C25.2802 105 25.4478 105.067 25.587 105.2C25.729 105.334 25.8001 105.494 25.8001 105.682C25.8001 105.869 25.729 106.03 25.587 106.163C25.4478 106.297 25.2802 106.364 25.0842 106.364ZM27.4205 114V107.455H28.392V108.477H28.4773C28.6136 108.128 28.8338 107.857 29.1378 107.663C29.4418 107.467 29.8068 107.369 30.233 107.369C30.6648 107.369 31.0241 107.467 31.3111 107.663C31.6009 107.857 31.8267 108.128 31.9886 108.477H32.0568C32.2244 108.139 32.4759 107.871 32.8111 107.672C33.1463 107.47 33.5483 107.369 34.017 107.369C34.6023 107.369 35.081 107.553 35.4531 107.919C35.8253 108.283 36.0114 108.849 36.0114 109.619V114H35.0057V109.619C35.0057 109.136 34.8736 108.791 34.6094 108.584C34.3452 108.376 34.0341 108.273 33.6761 108.273C33.2159 108.273 32.8594 108.412 32.6065 108.69C32.3537 108.966 32.2273 109.315 32.2273 109.739V114H31.2045V109.517C31.2045 109.145 31.0838 108.845 30.8423 108.618C30.6009 108.388 30.2898 108.273 29.9091 108.273C29.6477 108.273 29.4034 108.342 29.1761 108.482C28.9517 108.621 28.7699 108.814 28.6307 109.061C28.4943 109.305 28.4261 109.588 28.4261 109.909V114H27.4205ZM41.9751 111.324V107.455H42.9808V114H41.9751V112.892H41.907C41.7536 113.224 41.5149 113.507 41.1911 113.74C40.8672 113.97 40.4581 114.085 39.9638 114.085C39.5547 114.085 39.1911 113.996 38.8729 113.817C38.5547 113.635 38.3047 113.362 38.1229 112.999C37.9411 112.632 37.8501 112.17 37.8501 111.614V107.455H38.8558V111.545C38.8558 112.023 38.9893 112.403 39.2564 112.688C39.5263 112.972 39.87 113.114 40.2876 113.114C40.5376 113.114 40.7919 113.05 41.0504 112.922C41.3118 112.794 41.5305 112.598 41.7067 112.334C41.8857 112.07 41.9751 111.733 41.9751 111.324ZM45.8285 105.273V114H44.8228V105.273H45.8285ZM49.5966 114.153C49.1818 114.153 48.8054 114.075 48.4673 113.919C48.1293 113.76 47.8608 113.531 47.6619 113.233C47.4631 112.932 47.3636 112.568 47.3636 112.142C47.3636 111.767 47.4375 111.463 47.5852 111.23C47.733 110.994 47.9304 110.81 48.1776 110.676C48.4247 110.543 48.6974 110.443 48.9957 110.378C49.2969 110.31 49.5994 110.256 49.9034 110.216C50.3011 110.165 50.6236 110.126 50.8707 110.101C51.1207 110.072 51.3026 110.026 51.4162 109.96C51.5327 109.895 51.5909 109.781 51.5909 109.619V109.585C51.5909 109.165 51.4759 108.838 51.2457 108.605C51.0185 108.372 50.6733 108.256 50.2102 108.256C49.7301 108.256 49.3537 108.361 49.081 108.571C48.8082 108.781 48.6165 109.006 48.5057 109.244L47.5511 108.903C47.7216 108.506 47.9489 108.196 48.233 107.974C48.5199 107.75 48.8324 107.594 49.1705 107.506C49.5114 107.415 49.8466 107.369 50.1761 107.369C50.3864 107.369 50.6278 107.395 50.9006 107.446C51.1761 107.494 51.4418 107.595 51.6974 107.749C51.956 107.902 52.1705 108.134 52.3409 108.443C52.5114 108.753 52.5966 109.168 52.5966 109.688V114H51.5909V113.114H51.5398C51.4716 113.256 51.358 113.408 51.1989 113.57C51.0398 113.732 50.8281 113.869 50.5639 113.983C50.2997 114.097 49.9773 114.153 49.5966 114.153ZM49.75 113.25C50.1477 113.25 50.483 113.172 50.7557 113.016C51.0313 112.859 51.2386 112.658 51.3778 112.411C51.5199 112.163 51.5909 111.903 51.5909 111.631V110.71C51.5483 110.761 51.4545 110.808 51.3097 110.851C51.1676 110.891 51.0028 110.926 50.8153 110.957C50.6307 110.986 50.4503 111.011 50.2741 111.034C50.1009 111.054 49.9602 111.071 49.8523 111.085C49.5909 111.119 49.3466 111.175 49.1193 111.251C48.8949 111.325 48.7131 111.437 48.5739 111.588C48.4375 111.736 48.3693 111.937 48.3693 112.193C48.3693 112.543 48.4986 112.807 48.7571 112.986C49.0185 113.162 49.3494 113.25 49.75 113.25ZM57.2788 107.455V108.307H53.8867V107.455H57.2788ZM54.8754 105.886H55.881V112.125C55.881 112.409 55.9222 112.622 56.0046 112.764C56.0898 112.903 56.1978 112.997 56.3285 113.045C56.462 113.091 56.6026 113.114 56.7504 113.114C56.8612 113.114 56.9521 113.108 57.0231 113.097C57.0941 113.082 57.1509 113.071 57.1935 113.062L57.3981 113.966C57.3299 113.991 57.2347 114.017 57.1126 114.043C56.9904 114.071 56.8356 114.085 56.6481 114.085C56.364 114.085 56.0856 114.024 55.8129 113.902C55.543 113.78 55.3185 113.594 55.1396 113.344C54.9634 113.094 54.8754 112.778 54.8754 112.398V105.886ZM61.4656 114.136C60.8349 114.136 60.2908 113.997 59.8335 113.719C59.3789 113.438 59.0281 113.045 58.7809 112.543C58.5366 112.037 58.4144 111.449 58.4144 110.778C58.4144 110.108 58.5366 109.517 58.7809 109.006C59.0281 108.491 59.3718 108.091 59.8121 107.804C60.2553 107.514 60.7724 107.369 61.3633 107.369C61.7042 107.369 62.0408 107.426 62.3732 107.54C62.7056 107.653 63.0082 107.838 63.2809 108.094C63.5536 108.347 63.771 108.682 63.9329 109.099C64.0948 109.517 64.1758 110.031 64.1758 110.642V111.068H59.1303V110.199H63.1531C63.1531 109.83 63.0792 109.5 62.9315 109.21C62.7866 108.92 62.5792 108.692 62.3093 108.524C62.0423 108.357 61.7269 108.273 61.3633 108.273C60.9627 108.273 60.6161 108.372 60.3235 108.571C60.0337 108.767 59.8107 109.023 59.6545 109.338C59.4982 109.653 59.4201 109.991 59.4201 110.352V110.932C59.4201 111.426 59.5053 111.845 59.6758 112.189C59.8491 112.53 60.0891 112.79 60.396 112.969C60.7028 113.145 61.0593 113.233 61.4656 113.233C61.7298 113.233 61.9684 113.196 62.1815 113.122C62.3974 113.045 62.5835 112.932 62.7397 112.781C62.896 112.628 63.0167 112.437 63.1019 112.21L64.0735 112.483C63.9712 112.812 63.7994 113.102 63.5579 113.352C63.3164 113.599 63.0181 113.793 62.663 113.932C62.3079 114.068 61.9087 114.136 61.4656 114.136ZM68.1772 114.136C67.6317 114.136 67.1502 113.999 66.7326 113.723C66.315 113.445 65.9883 113.053 65.7525 112.547C65.5167 112.038 65.3988 111.438 65.3988 110.744C65.3988 110.057 65.5167 109.46 65.7525 108.955C65.9883 108.449 66.3164 108.058 66.7369 107.783C67.1573 107.507 67.6431 107.369 68.1942 107.369C68.6204 107.369 68.957 107.44 69.2042 107.582C69.4542 107.722 69.6445 107.881 69.7752 108.06C69.9087 108.236 70.0124 108.381 70.0863 108.494H70.1715V105.273H71.1772V114H70.2056V112.994H70.0863C70.0124 113.114 69.9073 113.264 69.771 113.446C69.6346 113.625 69.44 113.786 69.1871 113.928C68.9343 114.067 68.5977 114.136 68.1772 114.136ZM68.3136 113.233C68.717 113.233 69.0579 113.128 69.3363 112.918C69.6147 112.705 69.8263 112.411 69.9712 112.036C70.1161 111.658 70.1886 111.222 70.1886 110.727C70.1886 110.239 70.1175 109.811 69.9755 109.445C69.8335 109.075 69.6232 108.788 69.3448 108.584C69.0664 108.376 68.7227 108.273 68.3136 108.273C67.8874 108.273 67.5323 108.382 67.2482 108.601C66.967 108.817 66.7553 109.111 66.6133 109.483C66.4741 109.852 66.4045 110.267 66.4045 110.727C66.4045 111.193 66.4755 111.616 66.6175 111.997C66.7624 112.375 66.9755 112.676 67.2567 112.901C67.5408 113.122 67.8931 113.233 68.3136 113.233ZM19.5795 130.136C18.9659 130.136 18.4375 129.991 17.9943 129.702C17.5511 129.412 17.2102 129.013 16.9716 128.504C16.733 127.996 16.6136 127.415 16.6136 126.761C16.6136 126.097 16.7358 125.51 16.9801 125.001C17.2273 124.49 17.571 124.091 18.0114 123.804C18.4545 123.514 18.9716 123.369 19.5625 123.369C20.0227 123.369 20.4375 123.455 20.8068 123.625C21.1761 123.795 21.4787 124.034 21.7145 124.341C21.9503 124.648 22.0966 125.006 22.1534 125.415H21.1477C21.071 125.116 20.9006 124.852 20.6364 124.622C20.375 124.389 20.0227 124.273 19.5795 124.273C19.1875 124.273 18.8438 124.375 18.5483 124.58C18.2557 124.781 18.027 125.067 17.8622 125.436C17.7003 125.803 17.6193 126.233 17.6193 126.727C17.6193 127.233 17.6989 127.673 17.858 128.048C18.0199 128.423 18.2472 128.714 18.5398 128.922C18.8352 129.129 19.1818 129.233 19.5795 129.233C19.8409 129.233 20.0781 129.188 20.2912 129.097C20.5043 129.006 20.6847 128.875 20.8324 128.705C20.9801 128.534 21.0852 128.33 21.1477 128.091H22.1534C22.0966 128.477 21.956 128.825 21.7315 129.135C21.5099 129.442 21.2159 129.686 20.8494 129.868C20.4858 130.047 20.0625 130.136 19.5795 130.136ZM24.6293 126.062V130H23.6236V121.273H24.6293V124.477H24.7145C24.8679 124.139 25.098 123.871 25.4048 123.672C25.7145 123.47 26.1264 123.369 26.6406 123.369C27.0866 123.369 27.4773 123.459 27.8125 123.638C28.1477 123.814 28.4077 124.085 28.5923 124.452C28.7798 124.815 28.8736 125.278 28.8736 125.841V130H27.8679V125.909C27.8679 125.389 27.733 124.987 27.4631 124.703C27.196 124.416 26.8253 124.273 26.3509 124.273C26.0213 124.273 25.7259 124.342 25.4645 124.482C25.206 124.621 25.0014 124.824 24.8509 125.091C24.7031 125.358 24.6293 125.682 24.6293 126.062ZM32.6396 130.153C32.2248 130.153 31.8484 130.075 31.5103 129.919C31.1722 129.76 30.9038 129.531 30.7049 129.233C30.506 128.932 30.4066 128.568 30.4066 128.142C30.4066 127.767 30.4805 127.463 30.6282 127.23C30.7759 126.994 30.9734 126.81 31.2205 126.676C31.4677 126.543 31.7404 126.443 32.0387 126.378C32.3398 126.31 32.6424 126.256 32.9464 126.216C33.3441 126.165 33.6665 126.126 33.9137 126.101C34.1637 126.072 34.3455 126.026 34.4592 125.96C34.5756 125.895 34.6339 125.781 34.6339 125.619V125.585C34.6339 125.165 34.5188 124.838 34.2887 124.605C34.0614 124.372 33.7163 124.256 33.2532 124.256C32.7731 124.256 32.3967 124.361 32.1239 124.571C31.8512 124.781 31.6594 125.006 31.5487 125.244L30.5941 124.903C30.7646 124.506 30.9918 124.196 31.2759 123.974C31.5629 123.75 31.8754 123.594 32.2134 123.506C32.5543 123.415 32.8896 123.369 33.2191 123.369C33.4293 123.369 33.6708 123.395 33.9435 123.446C34.2191 123.494 34.4847 123.595 34.7404 123.749C34.9989 123.902 35.2134 124.134 35.3839 124.443C35.5543 124.753 35.6396 125.168 35.6396 125.688V130H34.6339V129.114H34.5827C34.5146 129.256 34.4009 129.408 34.2418 129.57C34.0827 129.732 33.8711 129.869 33.6069 129.983C33.3427 130.097 33.0202 130.153 32.6396 130.153ZM32.793 129.25C33.1907 129.25 33.5259 129.172 33.7987 129.016C34.0742 128.859 34.2816 128.658 34.4208 128.411C34.5629 128.163 34.6339 127.903 34.6339 127.631V126.71C34.5913 126.761 34.4975 126.808 34.3526 126.851C34.2106 126.891 34.0458 126.926 33.8583 126.957C33.6737 126.986 33.4933 127.011 33.3171 127.034C33.1438 127.054 33.0032 127.071 32.8952 127.085C32.6339 127.119 32.3896 127.175 32.1623 127.251C31.9379 127.325 31.756 127.437 31.6168 127.588C31.4805 127.736 31.4123 127.937 31.4123 128.193C31.4123 128.543 31.5415 128.807 31.8001 128.986C32.0614 129.162 32.3924 129.25 32.793 129.25ZM38.4808 126.062V130H37.4751V123.455H38.4467V124.477H38.532C38.6854 124.145 38.9183 123.878 39.2308 123.676C39.5433 123.472 39.9467 123.369 40.4411 123.369C40.8842 123.369 41.272 123.46 41.6044 123.642C41.9368 123.821 42.1953 124.094 42.38 124.46C42.5646 124.824 42.657 125.284 42.657 125.841V130H41.6513V125.909C41.6513 125.395 41.5178 124.994 41.2507 124.707C40.9837 124.418 40.6172 124.273 40.1513 124.273C39.8303 124.273 39.5433 124.342 39.2905 124.482C39.0405 124.621 38.843 124.824 38.6982 125.091C38.5533 125.358 38.4808 125.682 38.4808 126.062ZM47.1367 132.591C46.6509 132.591 46.2333 132.528 45.8839 132.403C45.5344 132.281 45.2433 132.119 45.0103 131.918C44.7802 131.719 44.5969 131.506 44.4606 131.278L45.2617 130.716C45.3526 130.835 45.4677 130.972 45.6069 131.125C45.7461 131.281 45.9364 131.416 46.1779 131.53C46.4222 131.646 46.7418 131.705 47.1367 131.705C47.6651 131.705 48.1012 131.577 48.445 131.321C48.7887 131.065 48.9606 130.665 48.9606 130.119V128.79H48.8754C48.8015 128.909 48.6964 129.057 48.56 129.233C48.4265 129.406 48.2333 129.561 47.9805 129.697C47.7305 129.831 47.3924 129.898 46.9663 129.898C46.4379 129.898 45.9634 129.773 45.543 129.523C45.1254 129.273 44.7944 128.909 44.5501 128.432C44.3086 127.955 44.1879 127.375 44.1879 126.693C44.1879 126.023 44.3058 125.439 44.5415 124.942C44.7773 124.442 45.1055 124.055 45.5259 123.783C45.9464 123.507 46.4322 123.369 46.9833 123.369C47.4094 123.369 47.7475 123.44 47.9975 123.582C48.2504 123.722 48.4435 123.881 48.5771 124.06C48.7134 124.236 48.8185 124.381 48.8924 124.494H48.9947V123.455H49.9663V130.188C49.9663 130.75 49.8384 131.207 49.5827 131.56C49.3299 131.915 48.989 132.175 48.56 132.339C48.1339 132.507 47.6594 132.591 47.1367 132.591ZM47.1026 128.994C47.506 128.994 47.8469 128.902 48.1254 128.717C48.4038 128.533 48.6154 128.267 48.7603 127.92C48.9052 127.574 48.9776 127.159 48.9776 126.676C48.9776 126.205 48.9066 125.788 48.7646 125.428C48.6225 125.067 48.4123 124.784 48.1339 124.58C47.8555 124.375 47.5117 124.273 47.1026 124.273C46.6765 124.273 46.3214 124.381 46.0373 124.597C45.756 124.812 45.5444 125.102 45.4023 125.466C45.2631 125.83 45.1935 126.233 45.1935 126.676C45.1935 127.131 45.2646 127.533 45.4066 127.882C45.5515 128.229 45.7646 128.501 46.0458 128.7C46.3299 128.896 46.6822 128.994 47.1026 128.994ZM54.5515 130.136C53.9208 130.136 53.3768 129.997 52.9194 129.719C52.4648 129.438 52.114 129.045 51.8668 128.543C51.6225 128.037 51.5004 127.449 51.5004 126.778C51.5004 126.108 51.6225 125.517 51.8668 125.006C52.114 124.491 52.4577 124.091 52.8981 123.804C53.3413 123.514 53.8583 123.369 54.4492 123.369C54.7901 123.369 55.1268 123.426 55.4592 123.54C55.7915 123.653 56.0941 123.838 56.3668 124.094C56.6396 124.347 56.8569 124.682 57.0188 125.099C57.1808 125.517 57.2617 126.031 57.2617 126.642V127.068H52.2163V126.199H56.239C56.239 125.83 56.1651 125.5 56.0174 125.21C55.8725 124.92 55.6651 124.692 55.3952 124.524C55.1282 124.357 54.8129 124.273 54.4492 124.273C54.0487 124.273 53.7021 124.372 53.4094 124.571C53.1197 124.767 52.8967 125.023 52.7404 125.338C52.5842 125.653 52.506 125.991 52.506 126.352V126.932C52.506 127.426 52.5913 127.845 52.7617 128.189C52.935 128.53 53.1751 128.79 53.4819 128.969C53.7887 129.145 54.1452 129.233 54.5515 129.233C54.8157 129.233 55.0543 129.196 55.2674 129.122C55.4833 129.045 55.6694 128.932 55.8256 128.781C55.9819 128.628 56.1026 128.437 56.1879 128.21L57.1594 128.483C57.0572 128.812 56.8853 129.102 56.6438 129.352C56.4023 129.599 56.104 129.793 55.7489 129.932C55.3938 130.068 54.9947 130.136 54.5515 130.136Z" fill="#112866" fill-opacity="0.6"/>
<rect x="140" y="102" width="50" height="27" rx="4" fill="#1AD8AB"/>
<path d="M146.707 120V118.67L149.814 115.794C150.078 115.538 150.3 115.308 150.479 115.104C150.661 114.899 150.798 114.699 150.892 114.503C150.986 114.304 151.033 114.089 151.033 113.859C151.033 113.604 150.974 113.384 150.858 113.199C150.741 113.011 150.582 112.868 150.381 112.768C150.179 112.666 149.95 112.615 149.695 112.615C149.428 112.615 149.195 112.669 148.996 112.777C148.797 112.885 148.643 113.04 148.536 113.241C148.428 113.443 148.374 113.683 148.374 113.962H146.622C146.622 113.391 146.751 112.895 147.01 112.474C147.268 112.054 147.631 111.729 148.097 111.499C148.563 111.268 149.099 111.153 149.707 111.153C150.332 111.153 150.876 111.264 151.339 111.486C151.805 111.705 152.168 112.009 152.426 112.398C152.685 112.787 152.814 113.233 152.814 113.736C152.814 114.065 152.749 114.391 152.618 114.712C152.49 115.033 152.261 115.389 151.932 115.781C151.602 116.17 151.138 116.638 150.538 117.183L149.264 118.432V118.491H152.929V120H146.707ZM155.344 120.111C155.063 120.111 154.821 120.011 154.62 119.812C154.421 119.611 154.321 119.369 154.321 119.088C154.321 118.81 154.421 118.571 154.62 118.372C154.821 118.173 155.063 118.074 155.344 118.074C155.617 118.074 155.855 118.173 156.06 118.372C156.265 118.571 156.367 118.81 156.367 119.088C156.367 119.276 156.319 119.447 156.222 119.604C156.128 119.757 156.005 119.881 155.851 119.974C155.698 120.065 155.529 120.111 155.344 120.111ZM160.957 120.119C160.355 120.119 159.818 120.009 159.347 119.787C158.878 119.565 158.506 119.26 158.23 118.871C157.955 118.482 157.811 118.036 157.8 117.533H159.589C159.609 117.871 159.751 118.145 160.016 118.355C160.28 118.565 160.594 118.67 160.957 118.67C161.247 118.67 161.503 118.607 161.724 118.479C161.949 118.348 162.124 118.168 162.249 117.938C162.376 117.705 162.44 117.437 162.44 117.136C162.44 116.83 162.375 116.56 162.244 116.327C162.116 116.094 161.939 115.912 161.712 115.781C161.484 115.651 161.224 115.584 160.932 115.581C160.676 115.581 160.428 115.634 160.186 115.739C159.947 115.844 159.761 115.987 159.628 116.169L157.987 115.875L158.401 111.273H163.736V112.781H159.922L159.696 114.967H159.747C159.901 114.751 160.132 114.572 160.442 114.43C160.751 114.288 161.098 114.217 161.482 114.217C162.007 114.217 162.476 114.341 162.888 114.588C163.3 114.835 163.625 115.175 163.864 115.607C164.102 116.036 164.22 116.53 164.217 117.089C164.22 117.678 164.084 118.2 163.808 118.658C163.536 119.112 163.153 119.47 162.662 119.732C162.173 119.99 161.605 120.119 160.957 120.119ZM168.73 120.119C168.094 120.119 167.527 120.01 167.03 119.791C166.536 119.57 166.145 119.266 165.858 118.879C165.574 118.49 165.428 118.041 165.419 117.533H167.277C167.288 117.746 167.358 117.933 167.486 118.095C167.616 118.254 167.79 118.378 168.006 118.466C168.222 118.554 168.464 118.598 168.734 118.598C169.016 118.598 169.264 118.548 169.48 118.449C169.696 118.349 169.865 118.212 169.987 118.036C170.109 117.859 170.17 117.656 170.17 117.426C170.17 117.193 170.105 116.987 169.974 116.808C169.847 116.626 169.662 116.484 169.42 116.382C169.182 116.28 168.898 116.229 168.568 116.229H167.754V114.874H168.568C168.847 114.874 169.092 114.825 169.305 114.729C169.521 114.632 169.689 114.499 169.808 114.328C169.928 114.155 169.987 113.953 169.987 113.723C169.987 113.504 169.935 113.312 169.83 113.148C169.727 112.98 169.582 112.849 169.395 112.756C169.21 112.662 168.994 112.615 168.747 112.615C168.497 112.615 168.268 112.661 168.061 112.751C167.854 112.839 167.688 112.966 167.562 113.131C167.438 113.295 167.371 113.489 167.362 113.71H165.594C165.602 113.207 165.746 112.764 166.024 112.381C166.303 111.997 166.678 111.697 167.149 111.482C167.624 111.263 168.159 111.153 168.756 111.153C169.358 111.153 169.885 111.263 170.337 111.482C170.788 111.7 171.139 111.996 171.389 112.368C171.642 112.737 171.767 113.152 171.764 113.612C171.767 114.101 171.615 114.509 171.308 114.835C171.004 115.162 170.608 115.369 170.119 115.457V115.526C170.761 115.608 171.25 115.831 171.585 116.195C171.923 116.555 172.091 117.007 172.088 117.55C172.091 118.047 171.947 118.489 171.658 118.875C171.371 119.261 170.974 119.565 170.469 119.787C169.963 120.009 169.384 120.119 168.73 120.119ZM178.191 118.364V117.903C178.191 117.554 178.265 117.233 178.413 116.94C178.564 116.645 178.781 116.409 179.065 116.233C179.352 116.054 179.701 115.964 180.113 115.964C180.531 115.964 180.882 116.053 181.166 116.229C181.453 116.405 181.669 116.641 181.814 116.936C181.961 117.229 182.035 117.551 182.035 117.903V118.364C182.035 118.713 181.961 119.036 181.814 119.331C181.666 119.624 181.449 119.858 181.162 120.034C180.875 120.213 180.525 120.303 180.113 120.303C179.696 120.303 179.345 120.213 179.061 120.034C178.777 119.858 178.561 119.624 178.413 119.331C178.265 119.036 178.191 118.713 178.191 118.364ZM179.431 117.903V118.364C179.431 118.565 179.48 118.756 179.576 118.935C179.676 119.114 179.855 119.203 180.113 119.203C180.372 119.203 180.548 119.115 180.642 118.939C180.738 118.763 180.787 118.571 180.787 118.364V117.903C180.787 117.696 180.741 117.503 180.65 117.324C180.559 117.145 180.38 117.055 180.113 117.055C179.858 117.055 179.68 117.145 179.581 117.324C179.481 117.503 179.431 117.696 179.431 117.903ZM173.713 113.369V112.909C173.713 112.557 173.788 112.234 173.939 111.942C174.089 111.646 174.306 111.411 174.591 111.234C174.877 111.058 175.224 110.97 175.63 110.97C176.051 110.97 176.403 111.058 176.687 111.234C176.971 111.411 177.187 111.646 177.335 111.942C177.483 112.234 177.556 112.557 177.556 112.909V113.369C177.556 113.722 177.481 114.044 177.331 114.337C177.183 114.629 176.966 114.864 176.679 115.04C176.395 115.213 176.045 115.3 175.63 115.3C175.216 115.3 174.865 115.212 174.578 115.036C174.294 114.857 174.078 114.622 173.93 114.332C173.785 114.04 173.713 113.719 173.713 113.369ZM174.961 112.909V113.369C174.961 113.577 175.01 113.768 175.106 113.945C175.206 114.121 175.38 114.209 175.63 114.209C175.892 114.209 176.069 114.121 176.163 113.945C176.26 113.768 176.308 113.577 176.308 113.369V112.909C176.308 112.702 176.262 112.509 176.172 112.33C176.081 112.151 175.9 112.061 175.63 112.061C175.377 112.061 175.203 112.152 175.106 112.334C175.01 112.516 174.961 112.707 174.961 112.909ZM174.275 120L180.275 111.273H181.392L175.392 120H174.275Z" fill="white"/>
<path d="M0 166C0 157.163 7.16344 150 16 150H190C198.837 150 206 157.163 206 166V191C206 197.627 200.627 203 194 203H12C5.37259 203 0 197.627 0 191V166Z" fill="#21E4FF" fill-opacity="0.15"/>
<path d="M47.6117 174V163.818H51.5094C52.2452 163.818 52.8567 163.934 53.3439 164.166C53.8345 164.395 54.2007 164.708 54.4426 165.106C54.6879 165.504 54.8105 165.954 54.8105 166.458C54.8105 166.872 54.731 167.227 54.5719 167.522C54.4128 167.814 54.199 168.051 53.9306 168.233C53.6621 168.415 53.3622 168.546 53.0307 168.626V168.725C53.392 168.745 53.7383 168.856 54.0698 169.058C54.4045 169.257 54.678 169.539 54.8901 169.903C55.1022 170.268 55.2083 170.709 55.2083 171.226C55.2083 171.753 55.0807 172.227 54.8255 172.648C54.5703 173.065 54.1858 173.395 53.6721 173.637C53.1583 173.879 52.512 174 51.7331 174H47.6117ZM49.4561 172.459H51.4398C52.1093 172.459 52.5916 172.331 52.8865 172.076C53.1848 171.817 53.334 171.486 53.334 171.082C53.334 170.78 53.2594 170.508 53.1103 170.266C52.9611 170.021 52.749 169.829 52.4739 169.69C52.1988 169.547 51.8707 169.476 51.4895 169.476H49.4561V172.459ZM49.4561 168.148H51.2807C51.5989 168.148 51.8856 168.09 52.1408 167.974C52.396 167.855 52.5965 167.688 52.7424 167.472C52.8915 167.254 52.9661 166.995 52.9661 166.697C52.9661 166.302 52.8269 165.978 52.5485 165.722C52.2734 165.467 51.8641 165.339 51.3205 165.339H49.4561V168.148ZM61.6005 170.788V166.364H63.4002V174H61.6552V172.643H61.5756C61.4033 173.07 61.1199 173.42 60.7255 173.692C60.3344 173.964 59.8522 174.099 59.2788 174.099C58.7783 174.099 58.3358 173.988 57.9513 173.766C57.5702 173.541 57.2719 173.214 57.0565 172.787C56.841 172.356 56.7333 171.836 56.7333 171.226V166.364H58.533V170.947C58.533 171.431 58.6656 171.816 58.9308 172.101C59.1959 172.386 59.5439 172.528 59.9748 172.528C60.2399 172.528 60.4968 172.464 60.7454 172.335C60.994 172.205 61.1978 172.013 61.3569 171.758C61.5193 171.499 61.6005 171.176 61.6005 170.788ZM66.3695 176.864C66.1242 176.864 65.8972 176.844 65.6884 176.804C65.4829 176.768 65.3188 176.724 65.1962 176.675L65.6138 175.273C65.8757 175.349 66.1093 175.385 66.3148 175.382C66.5203 175.379 66.7009 175.314 66.8567 175.188C67.0158 175.066 67.15 174.86 67.2594 174.572L67.4135 174.159L64.6444 166.364H66.5534L68.3134 172.131H68.3929L70.1578 166.364H72.0719L69.0144 174.925C68.8719 175.329 68.6829 175.675 68.4476 175.964C68.2123 176.255 67.9239 176.478 67.5826 176.63C67.2445 176.786 66.8401 176.864 66.3695 176.864Z" fill="#4069D3"/>
<path d="M30.2818 184.509V183.727H35.7363V184.509H33.4494V191H32.5687V184.509H30.2818ZM38.4165 191L36.4279 183.727H37.3228L38.8427 189.651H38.9137L40.462 183.727H41.4563L43.0046 189.651H43.0756L44.5955 183.727H45.4904L43.5018 191H42.5927L40.9876 185.205H40.9308L39.3256 191H38.4165ZM50.565 185.545C50.5224 185.186 50.3496 184.906 50.0465 184.707C49.7435 184.509 49.3718 184.409 48.9315 184.409C48.6095 184.409 48.3278 184.461 48.0863 184.565C47.8472 184.67 47.6602 184.813 47.5252 184.995C47.3926 185.177 47.3263 185.384 47.3263 185.616C47.3263 185.811 47.3725 185.978 47.4648 186.117C47.5595 186.254 47.6803 186.369 47.8271 186.462C47.9738 186.552 48.1277 186.626 48.2887 186.685C48.4497 186.742 48.5977 186.788 48.7326 186.824L49.4712 187.023C49.6606 187.072 49.8713 187.141 50.1033 187.229C50.3377 187.316 50.5614 187.436 50.7745 187.587C50.9899 187.737 51.1675 187.928 51.3072 188.163C51.4469 188.397 51.5167 188.685 51.5167 189.026C51.5167 189.419 51.4137 189.774 51.2077 190.091C51.0041 190.408 50.7058 190.66 50.3129 190.847C49.9222 191.034 49.4476 191.128 48.8888 191.128C48.368 191.128 47.917 191.044 47.5359 190.876C47.1571 190.708 46.8588 190.473 46.641 190.173C46.4255 189.872 46.3036 189.523 46.2752 189.125H47.1843C47.208 189.4 47.3003 189.627 47.4613 189.807C47.6246 189.984 47.8306 190.117 48.0792 190.205C48.3301 190.29 48.6 190.332 48.8888 190.332C49.225 190.332 49.5269 190.278 49.7944 190.169C50.0619 190.058 50.2738 189.904 50.43 189.707C50.5863 189.509 50.6644 189.277 50.6644 189.011C50.6644 188.77 50.5969 188.573 50.462 188.422C50.3271 188.27 50.1495 188.147 49.9293 188.053C49.7092 187.958 49.4712 187.875 49.2156 187.804L48.3207 187.548C47.7525 187.385 47.3027 187.152 46.9712 186.849C46.6398 186.546 46.4741 186.149 46.4741 185.659C46.4741 185.252 46.5842 184.897 46.8043 184.594C47.0269 184.288 47.3252 184.052 47.6992 183.884C48.0756 183.713 48.4959 183.628 48.9599 183.628C49.4286 183.628 49.8453 183.712 50.2099 183.88C50.5745 184.046 50.8633 184.273 51.0763 184.562C51.2918 184.851 51.4054 185.179 51.4173 185.545H50.565ZM52.5669 184.509V183.727H58.0215V184.509H55.7346V191H54.8539V184.509H52.5669ZM60.1752 190.006L60.1184 190.389C60.0782 190.659 60.0166 190.948 59.9338 191.256C59.8533 191.563 59.7692 191.853 59.6816 192.126C59.594 192.398 59.5218 192.615 59.465 192.776H58.8258C58.8566 192.624 58.8968 192.424 58.9466 192.175C58.9963 191.927 59.046 191.649 59.0957 191.341C59.1478 191.036 59.1904 190.723 59.2235 190.403L59.2662 190.006H60.1752ZM65.9751 191L63.9865 183.727H64.8814L66.4013 189.651H66.4723L68.0206 183.727H69.0149L70.5632 189.651H70.6342L72.1541 183.727H73.049L71.0604 191H70.1513L68.5462 185.205H68.4893L66.8842 191H65.9751ZM74.1463 191V183.727H76.6889C77.1955 183.727 77.6134 183.815 77.9425 183.99C78.2715 184.163 78.5166 184.396 78.6776 184.69C78.8385 184.981 78.919 185.304 78.919 185.659C78.919 185.972 78.8634 186.23 78.7521 186.433C78.6432 186.637 78.4988 186.798 78.3189 186.916C78.1413 187.035 77.9484 187.122 77.7401 187.179V187.25C77.9626 187.264 78.1863 187.342 78.4112 187.484C78.6361 187.626 78.8243 187.83 78.9759 188.095C79.1274 188.36 79.2031 188.685 79.2031 189.068C79.2031 189.433 79.1203 189.761 78.9545 190.052C78.7888 190.343 78.5272 190.574 78.1697 190.744C77.8123 190.915 77.3471 191 76.7741 191H74.1463ZM75.027 190.219H76.7741C77.3494 190.219 77.7578 190.107 77.9993 189.885C78.2431 189.66 78.3651 189.388 78.3651 189.068C78.3651 188.822 78.3023 188.595 78.1768 188.386C78.0514 188.176 77.8726 188.008 77.6406 187.882C77.4086 187.754 77.134 187.69 76.8168 187.69H75.027V190.219ZM75.027 186.923H76.6605C76.9257 186.923 77.1648 186.871 77.3778 186.767C77.5933 186.663 77.7637 186.516 77.8892 186.327C78.017 186.137 78.081 185.915 78.081 185.659C78.081 185.339 77.9697 185.068 77.7472 184.846C77.5246 184.621 77.1719 184.509 76.6889 184.509H75.027V186.923ZM85.6218 186C85.5437 185.761 85.4407 185.547 85.3129 185.357C85.1874 185.165 85.0371 185.002 84.8619 184.867C84.689 184.732 84.4925 184.629 84.2724 184.558C84.0522 184.487 83.8107 184.452 83.5479 184.452C83.1171 184.452 82.7253 184.563 82.3725 184.786C82.0198 185.008 81.7392 185.336 81.5309 185.769C81.3226 186.202 81.2184 186.734 81.2184 187.364C81.2184 187.993 81.3237 188.525 81.5344 188.958C81.7451 189.391 82.0304 189.719 82.3903 189.942C82.7501 190.164 83.1549 190.276 83.6048 190.276C84.0214 190.276 84.3884 190.187 84.7056 190.009C85.0252 189.829 85.2738 189.576 85.4513 189.249C85.6313 188.92 85.7212 188.533 85.7212 188.088L85.9911 188.145H83.8036V187.364H86.5735V188.145C86.5735 188.744 86.4457 189.265 86.19 189.707C85.9367 190.15 85.5863 190.493 85.1388 190.737C84.6938 190.979 84.1824 191.099 83.6048 191.099C82.9608 191.099 82.395 190.948 81.9073 190.645C81.422 190.342 81.0432 189.911 80.771 189.352C80.5011 188.794 80.3661 188.131 80.3661 187.364C80.3661 186.788 80.4431 186.271 80.5969 185.812C80.7532 185.35 80.9734 184.957 81.2575 184.633C81.5415 184.308 81.8777 184.06 82.266 183.887C82.6542 183.714 83.0816 183.628 83.5479 183.628C83.9315 183.628 84.2889 183.686 84.6204 183.802C84.9542 183.915 85.2513 184.078 85.5117 184.288C85.7745 184.497 85.9935 184.746 86.1687 185.038C86.3439 185.326 86.4646 185.647 86.5309 186H85.6218Z" fill="#112866"/>
<path d="M141.538 166.617C141.491 166.183 141.296 165.845 140.951 165.603C140.61 165.361 140.165 165.24 139.619 165.24C139.234 165.24 138.904 165.298 138.629 165.414C138.354 165.53 138.144 165.687 137.998 165.886C137.852 166.085 137.777 166.312 137.774 166.567C137.774 166.78 137.822 166.964 137.918 167.119C138.018 167.275 138.152 167.408 138.321 167.517C138.49 167.623 138.677 167.713 138.883 167.786C139.088 167.858 139.295 167.92 139.504 167.969L140.459 168.208C140.843 168.298 141.213 168.419 141.567 168.571C141.925 168.723 142.245 168.916 142.527 169.148C142.812 169.38 143.037 169.66 143.203 169.988C143.369 170.316 143.452 170.701 143.452 171.141C143.452 171.738 143.299 172.263 142.994 172.717C142.689 173.168 142.249 173.521 141.672 173.776C141.098 174.028 140.404 174.154 139.589 174.154C138.797 174.154 138.109 174.031 137.526 173.786C136.946 173.541 136.491 173.183 136.163 172.712C135.839 172.242 135.663 171.668 135.636 170.992H137.451C137.478 171.347 137.587 171.642 137.779 171.877C137.971 172.112 138.222 172.288 138.53 172.404C138.841 172.52 139.189 172.578 139.574 172.578C139.975 172.578 140.326 172.518 140.628 172.399C140.933 172.277 141.171 172.107 141.344 171.892C141.516 171.673 141.604 171.418 141.607 171.126C141.604 170.861 141.526 170.643 141.374 170.47C141.221 170.295 141.007 170.149 140.732 170.033C140.46 169.913 140.142 169.807 139.778 169.714L138.619 169.416C137.781 169.201 137.118 168.874 136.631 168.437C136.147 167.996 135.905 167.411 135.905 166.682C135.905 166.082 136.067 165.557 136.392 165.106C136.72 164.655 137.166 164.305 137.729 164.057C138.293 163.805 138.931 163.679 139.643 163.679C140.366 163.679 140.999 163.805 141.543 164.057C142.089 164.305 142.519 164.652 142.83 165.096C143.142 165.537 143.303 166.044 143.312 166.617H141.538ZM148.397 174.149C147.632 174.149 146.97 173.99 146.414 173.672C145.86 173.35 145.434 172.896 145.136 172.31C144.838 171.72 144.688 171.025 144.688 170.227C144.688 169.441 144.838 168.752 145.136 168.158C145.437 167.562 145.858 167.098 146.399 166.766C146.939 166.432 147.574 166.264 148.303 166.264C148.773 166.264 149.218 166.34 149.635 166.493C150.056 166.642 150.427 166.874 150.749 167.189C151.074 167.504 151.329 167.905 151.514 168.392C151.7 168.876 151.793 169.453 151.793 170.122V170.674H145.534V169.461H150.068C150.064 169.116 149.99 168.81 149.844 168.541C149.698 168.269 149.494 168.056 149.232 167.9C148.974 167.744 148.672 167.666 148.328 167.666C147.96 167.666 147.637 167.756 147.358 167.935C147.08 168.11 146.863 168.342 146.707 168.631C146.554 168.916 146.477 169.229 146.473 169.57V170.629C146.473 171.073 146.554 171.455 146.717 171.773C146.879 172.088 147.106 172.33 147.398 172.499C147.69 172.664 148.031 172.747 148.422 172.747C148.684 172.747 148.921 172.711 149.133 172.638C149.345 172.562 149.529 172.451 149.685 172.305C149.841 172.159 149.958 171.978 150.038 171.763L151.718 171.952C151.612 172.396 151.41 172.784 151.112 173.115C150.817 173.443 150.439 173.698 149.978 173.881C149.517 174.06 148.99 174.149 148.397 174.149ZM155.115 163.818V174H153.315V163.818H155.115ZM158.765 163.818V174H156.966V163.818H158.765Z" fill="#FB5D5F"/>
<path d="M118.489 186C118.411 185.761 118.308 185.547 118.18 185.357C118.055 185.165 117.904 185.002 117.729 184.867C117.556 184.732 117.36 184.629 117.14 184.558C116.919 184.487 116.678 184.452 116.415 184.452C115.984 184.452 115.592 184.563 115.24 184.786C114.887 185.008 114.606 185.336 114.398 185.769C114.19 186.202 114.086 186.734 114.086 187.364C114.086 187.993 114.191 188.525 114.402 188.958C114.612 189.391 114.898 189.719 115.257 189.942C115.617 190.164 116.022 190.276 116.472 190.276C116.889 190.276 117.256 190.187 117.573 190.009C117.892 189.829 118.141 189.576 118.319 189.249C118.498 188.92 118.588 188.533 118.588 188.088L118.858 188.145H116.671V187.364H119.441V188.145C119.441 188.744 119.313 189.265 119.057 189.707C118.804 190.15 118.453 190.493 118.006 190.737C117.561 190.979 117.05 191.099 116.472 191.099C115.828 191.099 115.262 190.948 114.775 190.645C114.289 190.342 113.91 189.911 113.638 189.352C113.368 188.794 113.233 188.131 113.233 187.364C113.233 186.788 113.31 186.271 113.464 185.812C113.62 185.35 113.841 184.957 114.125 184.633C114.409 184.308 114.745 184.06 115.133 183.887C115.521 183.714 115.949 183.628 116.415 183.628C116.799 183.628 117.156 183.686 117.488 183.802C117.821 183.915 118.118 184.078 118.379 184.288C118.642 184.497 118.861 184.746 119.036 185.038C119.211 185.326 119.332 185.647 119.398 186H118.489ZM120.949 183.727H122L124.472 189.764H124.557L127.029 183.727H128.08V191H127.256V185.474H127.185L124.912 191H124.117L121.844 185.474H121.773V191H120.949V183.727ZM130.982 190.006L130.925 190.389C130.885 190.659 130.823 190.948 130.74 191.256C130.66 191.563 130.576 191.853 130.488 192.126C130.401 192.398 130.328 192.615 130.272 192.776H129.632C129.663 192.624 129.703 192.424 129.753 192.175C129.803 191.927 129.853 191.649 129.902 191.341C129.954 191.036 129.997 190.723 130.03 190.403L130.073 190.006H130.982ZM138.245 183.727H139.126V188.926C139.126 189.39 139.04 189.784 138.87 190.109C138.699 190.433 138.459 190.679 138.149 190.847C137.839 191.015 137.473 191.099 137.052 191.099C136.654 191.099 136.3 191.027 135.99 190.883C135.68 190.736 135.436 190.528 135.258 190.258C135.081 189.988 134.992 189.667 134.992 189.295H135.858C135.858 189.501 135.909 189.681 136.011 189.835C136.115 189.987 136.257 190.105 136.437 190.19C136.617 190.276 136.822 190.318 137.052 190.318C137.305 190.318 137.52 190.265 137.698 190.158C137.876 190.052 138.01 189.896 138.103 189.69C138.198 189.481 138.245 189.227 138.245 188.926V183.727ZM140.493 184.509V183.727H145.947V184.509H143.66V191H142.78V184.509H140.493ZM146.681 183.727H147.69L149.707 187.122H149.792L151.809 183.727H152.818L150.19 188.003V191H149.309V188.003L146.681 183.727ZM153.957 191V183.727H158.346V184.509H154.838V186.966H158.119V187.747H154.838V190.219H158.403V191H153.957ZM161.07 190.006L161.013 190.389C160.973 190.659 160.911 190.948 160.828 191.256C160.748 191.563 160.664 191.853 160.576 192.126C160.489 192.398 160.416 192.615 160.36 192.776H159.72C159.751 192.624 159.791 192.424 159.841 192.175C159.891 191.927 159.941 191.649 159.99 191.341C160.042 191.036 160.085 190.723 160.118 190.403L160.161 190.006H161.07ZM161.997 184.509V183.727H167.451V184.509H165.164V191H164.284V184.509H161.997ZM168.185 183.727H169.194L171.211 187.122H171.296L173.313 183.727H174.322L171.694 188.003V191H170.813V188.003L168.185 183.727ZM175.616 191.057C175.441 191.057 175.291 190.994 175.165 190.869C175.04 190.743 174.977 190.593 174.977 190.418C174.977 190.242 175.04 190.092 175.165 189.967C175.291 189.841 175.441 189.778 175.616 189.778C175.791 189.778 175.942 189.841 176.067 189.967C176.193 190.092 176.255 190.242 176.255 190.418C176.255 190.534 176.226 190.64 176.167 190.737C176.11 190.834 176.033 190.912 175.936 190.972C175.841 191.028 175.734 191.057 175.616 191.057ZM178.37 191.057C178.195 191.057 178.045 190.994 177.919 190.869C177.794 190.743 177.731 190.593 177.731 190.418C177.731 190.242 177.794 190.092 177.919 189.967C178.045 189.841 178.195 189.778 178.37 189.778C178.545 189.778 178.696 189.841 178.821 189.967C178.946 190.092 179.009 190.242 179.009 190.418C179.009 190.534 178.98 190.64 178.92 190.737C178.864 190.834 178.787 190.912 178.69 190.972C178.595 191.028 178.488 191.057 178.37 191.057ZM181.124 191.057C180.949 191.057 180.798 190.994 180.673 190.869C180.547 190.743 180.485 190.593 180.485 190.418C180.485 190.242 180.547 190.092 180.673 189.967C180.798 189.841 180.949 189.778 181.124 189.778C181.299 189.778 181.449 189.841 181.575 189.967C181.7 190.092 181.763 190.242 181.763 190.418C181.763 190.534 181.734 190.64 181.674 190.737C181.618 190.834 181.541 190.912 181.444 190.972C181.349 191.028 181.242 191.057 181.124 191.057Z" fill="#112866"/>
<defs>
<filter id="filter0_i_2613_5492" x="157" y="23.2429" width="10" height="13.5369" filterUnits="userSpaceOnUse" color-interpolation-filters="sRGB">
<feFlood flood-opacity="0" result="BackgroundImageFix"/>
<feBlend mode="normal" in="SourceGraphic" in2="BackgroundImageFix" result="shape"/>
<feColorMatrix in="SourceAlpha" type="matrix" values="0 0 0 0 0 0 0 0 0 0 0 0 0 0 0 0 0 0 127 0" result="hardAlpha"/>
<feOffset dy="4"/>
<feGaussianBlur stdDeviation="2"/>
<feComposite in2="hardAlpha" operator="arithmetic" k2="-1" k3="1"/>
<feColorMatrix type="matrix" values="0 0 0 0 0.975833 0 0 0 0 0.638846 0 0 0 0 0.133364 0 0 0 1 0"/>
<feBlend mode="normal" in2="shape" result="effect1_innerShadow_2613_5492"/>
</filter>
</defs>
</svg>
