<svg width="76" height="38" viewBox="0 0 76 38" fill="none" xmlns="http://www.w3.org/2000/svg">
<path d="M19 15.2H15.2V3.8C15.2 2.79218 14.7996 1.82563 14.087 1.11299C13.3744 0.400356 12.4078 0 11.4 0C10.3922 0 9.42563 0.400356 8.71299 1.11299C8.00036 1.82563 7.6 2.79218 7.6 3.8V15.2H3.8C2.79218 15.2 1.82563 15.6004 1.11299 16.313C0.400356 17.0256 0 17.9922 0 19C0 20.0078 0.400356 20.9744 1.11299 21.687C1.82563 22.3996 2.79218 22.8 3.8 22.8H19C20.0078 22.8 20.9744 22.3996 21.687 21.687C22.3996 20.9744 22.8 20.0078 22.8 19C22.8 17.9922 22.3996 17.0256 21.687 16.313C20.9744 15.6004 20.0078 15.2 19 15.2ZM11.4 30.4C10.3922 30.4 9.42563 30.8004 8.71299 31.513C8.00036 32.2256 7.6 33.1922 7.6 34.2V72.2C7.6 73.2078 8.00036 74.1744 8.71299 74.887C9.42563 75.5996 10.3922 76 11.4 76C12.4078 76 13.3744 75.5996 14.087 74.887C14.7996 74.1744 15.2 73.2078 15.2 72.2V34.2C15.2 33.1922 14.7996 32.2256 14.087 31.513C13.3744 30.8004 12.4078 30.4 11.4 30.4ZM38 60.8C36.9922 60.8 36.0256 61.2004 35.313 61.913C34.6004 62.6256 34.2 63.5922 34.2 64.6V72.2C34.2 73.2078 34.6004 74.1744 35.313 74.887C36.0256 75.5996 36.9922 76 38 76C39.0078 76 39.9744 75.5996 40.687 74.887C41.3996 74.1744 41.8 73.2078 41.8 72.2V64.6C41.8 63.5922 41.3996 62.6256 40.687 61.913C39.9744 61.2004 39.0078 60.8 38 60.8ZM72.2 30.4H68.4V3.8C68.4 2.79218 67.9996 1.82563 67.287 1.11299C66.5744 0.400356 65.6078 0 64.6 0C63.5922 0 62.6256 0.400356 61.913 1.11299C61.2004 1.82563 60.8 2.79218 60.8 3.8V30.4H57C55.9922 30.4 55.0256 30.8004 54.313 31.513C53.6004 32.2256 53.2 33.1922 53.2 34.2C53.2 35.2078 53.6004 36.1744 54.313 36.887C55.0256 37.5996 55.9922 38 57 38H72.2C73.2078 38 74.1744 37.5996 74.887 36.887C75.5996 36.1744 76 35.2078 76 34.2C76 33.1922 75.5996 32.2256 74.887 31.513C74.1744 30.8004 73.2078 30.4 72.2 30.4ZM64.6 45.6C63.5922 45.6 62.6256 46.0004 61.913 46.713C61.2004 47.4256 60.8 48.3922 60.8 49.4V72.2C60.8 73.2078 61.2004 74.1744 61.913 74.887C62.6256 75.5996 63.5922 76 64.6 76C65.6078 76 66.5744 75.5996 67.287 74.887C67.9996 74.1744 68.4 73.2078 68.4 72.2V49.4C68.4 48.3922 67.9996 47.4256 67.287 46.713C66.5744 46.0004 65.6078 45.6 64.6 45.6ZM45.6 45.6H41.8V3.8C41.8 2.79218 41.3996 1.82563 40.687 1.11299C39.9744 0.400356 39.0078 0 38 0C36.9922 0 36.0256 0.400356 35.313 1.11299C34.6004 1.82563 34.2 2.79218 34.2 3.8V45.6H30.4C29.3922 45.6 28.4256 46.0004 27.713 46.713C27.0004 47.4256 26.6 48.3922 26.6 49.4C26.6 50.4078 27.0004 51.3744 27.713 52.087C28.4256 52.7996 29.3922 53.2 30.4 53.2H45.6C46.6078 53.2 47.5744 52.7996 48.287 52.087C48.9996 51.3744 49.4 50.4078 49.4 49.4C49.4 48.3922 48.9996 47.4256 48.287 46.713C47.5744 46.0004 46.6078 45.6 45.6 45.6Z" fill="#FF7F09"/>
</svg>
