<svg width="82" height="45" viewBox="0 0 82 45" fill="none" xmlns="http://www.w3.org/2000/svg">
<path d="M77.9 49.1993H73.8V4.09994C73.8 3.01257 73.368 1.96973 72.5991 1.20085C71.8302 0.431957 70.7874 0 69.7 0H12.3C11.2126 0 10.1698 0.431957 9.40086 1.20085C8.63196 1.96973 8.2 3.01257 8.2 4.09994V49.1993H4.1C3.01261 49.1993 1.96976 49.6313 1.20086 50.4002C0.431963 51.169 0 52.2119 0 53.2993C0 54.3866 0.431963 55.4295 1.20086 56.1984C1.96976 56.9672 3.01261 57.3992 4.1 57.3992H36.9V62.1141L18.245 74.414C17.4797 74.8877 16.8915 75.6001 16.5713 76.4413C16.251 77.2825 16.2165 78.2057 16.473 79.0684C16.7295 79.9312 17.2627 80.6856 17.9905 81.2152C18.7183 81.7448 19.6002 82.0202 20.5 81.9989C21.3061 82.0081 22.0947 81.7643 22.755 81.3019L36.9 71.954V77.8989C36.9 78.9863 37.332 80.0291 38.1009 80.798C38.8698 81.5669 39.9126 81.9989 41 81.9989C42.0874 81.9989 43.1302 81.5669 43.8991 80.798C44.668 80.0291 45.1 78.9863 45.1 77.8989V71.954L59.245 81.3019C59.9053 81.7643 60.6939 82.0081 61.5 81.9989C62.376 81.9921 63.2267 81.705 63.9276 81.1795C64.6285 80.6541 65.1427 79.918 65.3948 79.0791C65.647 78.2402 65.6238 77.3426 65.3287 76.5178C65.0336 75.6931 64.4821 74.9845 63.755 74.496L45.1 62.1961V57.3992H77.9C78.9874 57.3992 80.0302 56.9672 80.7991 56.1984C81.568 55.4295 82 54.3866 82 53.2993C82 52.2119 81.568 51.169 80.7991 50.4002C80.0302 49.6313 78.9874 49.1993 77.9 49.1993ZM65.6 49.1993H16.4V8.19989H65.6V49.1993ZM28.7 40.9994C29.3753 40.9959 30.0393 40.8257 30.6329 40.5038C31.2266 40.182 31.7316 39.7184 32.103 39.1545L37.556 30.9546L42.189 35.6285C42.6192 36.0613 43.1406 36.3927 43.7151 36.5984C44.2896 36.8041 44.9029 36.8789 45.51 36.8175C46.1145 36.7512 46.6966 36.5512 47.2143 36.2321C47.732 35.913 48.1722 35.4827 48.503 34.9725L56.703 22.6727C57.1859 21.7725 57.3153 20.7244 57.0659 19.7338C56.8165 18.7431 56.2063 17.8813 55.3547 17.317C54.5032 16.7527 53.4716 16.5266 52.4621 16.6831C51.4526 16.8395 50.5378 17.3672 49.897 18.1627L44.444 26.3626L39.811 21.6887C39.3808 21.2559 38.8594 20.9245 38.2849 20.7188C37.7104 20.5131 37.0971 20.4383 36.49 20.4997C35.8855 20.566 35.3034 20.766 34.7857 21.0851C34.268 21.4042 33.8278 21.8344 33.497 22.3447L25.297 34.6445C24.7036 35.5484 24.4913 36.6501 24.7063 37.7098C24.9213 38.7695 25.5462 39.7013 26.445 40.3024C27.1053 40.7649 27.8939 41.0086 28.7 40.9994Z" fill="#007AFF"/>
</svg>
