<svg width="80" height="56" viewBox="0 0 80 56" fill="none" xmlns="http://www.w3.org/2000/svg">
<path opacity="0.4" d="M29.3366 47.1666C28.6279 47.1666 27.9351 47.3767 27.3458 47.7705C26.7565 48.1642 26.2972 48.7239 26.026 49.3786C25.7548 50.0334 25.6838 50.7539 25.8221 51.449C25.9604 52.1441 26.3017 52.7826 26.8028 53.2837C27.3039 53.7849 27.9424 54.1261 28.6375 54.2644C29.3326 54.4027 30.0531 54.3317 30.7079 54.0605C31.3626 53.7893 31.9223 53.33 32.316 52.7407C32.7098 52.1514 32.9199 51.4586 32.9199 50.7499C32.9199 49.7996 32.5424 48.8881 31.8704 48.2161C31.1984 47.5441 30.2869 47.1666 29.3366 47.1666ZM4.25326 43.5833C3.3029 43.5833 2.39146 43.9608 1.71946 44.6328C1.04745 45.3048 0.669922 46.2162 0.669922 47.1666V54.3333C0.669922 55.2836 1.04745 56.195 1.71946 56.8671C2.39146 57.5391 3.3029 57.9166 4.25326 57.9166C5.20361 57.9166 6.11505 57.5391 6.78706 56.8671C7.45906 56.195 7.83659 55.2836 7.83659 54.3333V47.1666C7.83659 46.2162 7.45906 45.3048 6.78706 44.6328C6.11505 43.9608 5.20361 43.5833 4.25326 43.5833ZM75.9199 43.5833C74.9696 43.5833 74.0581 43.9608 73.3861 44.6328C72.7141 45.3048 72.3366 46.2162 72.3366 47.1666V54.3333C72.3366 55.2836 72.7141 56.195 73.3861 56.8671C74.0581 57.5391 74.9696 57.9166 75.9199 57.9166C76.8703 57.9166 77.7817 57.5391 78.4537 56.8671C79.1257 56.195 79.5033 55.2836 79.5033 54.3333V47.1666C79.5033 46.2162 79.1257 45.3048 78.4537 44.6328C77.7817 43.9608 76.8703 43.5833 75.9199 43.5833ZM58.0033 18.4999H43.6699V13.9133C44.7531 13.2879 45.6537 12.39 46.2824 11.3088C46.911 10.2275 47.2457 9.0006 47.2533 7.74992C47.2533 5.8492 46.4982 4.02633 45.1542 2.68232C43.8102 1.33831 41.9873 0.583252 40.0866 0.583252C38.1859 0.583252 36.363 1.33831 35.019 2.68232C33.675 4.02633 32.9199 5.8492 32.9199 7.74992C32.9275 9.0006 33.2622 10.2275 33.8908 11.3088C34.5195 12.39 35.4201 13.2879 36.5033 13.9133V18.4999H22.1699C19.3188 18.4999 16.5845 19.6325 14.5685 21.6485C12.5525 23.6645 11.4199 26.3988 11.4199 29.2499V61.4999C11.4199 64.351 12.5525 67.0853 14.5685 69.1013C16.5845 71.1173 19.3188 72.2499 22.1699 72.2499H58.0033C60.8543 72.2499 63.5886 71.1173 65.6047 69.1013C67.6207 67.0853 68.7533 64.351 68.7533 61.4999V29.2499C68.7533 26.3988 67.6207 23.6645 65.6047 21.6485C63.5886 19.6325 60.8543 18.4999 58.0033 18.4999ZM46.2499 25.6666L44.4583 32.8333H35.7149L33.9233 25.6666H46.2499ZM61.5866 61.4999C61.5866 62.4503 61.2091 63.3617 60.5371 64.0337C59.8651 64.7057 58.9536 65.0833 58.0033 65.0833H22.1699C21.2196 65.0833 20.3081 64.7057 19.6361 64.0337C18.9641 63.3617 18.5866 62.4503 18.5866 61.4999V29.2499C18.5866 28.2996 18.9641 27.3881 19.6361 26.7161C20.3081 26.0441 21.2196 25.6666 22.1699 25.6666H26.5416L29.3366 37.2766C29.5328 38.0716 29.9954 38.7755 30.6474 39.271C31.2993 39.7665 32.1014 40.0238 32.9199 39.9999H47.2533C48.0718 40.0238 48.8738 39.7665 49.5258 39.271C50.1778 38.7755 50.6404 38.0716 50.8366 37.2766L53.6316 25.6666H58.0033C58.9536 25.6666 59.8651 26.0441 60.5371 26.7161C61.2091 27.3881 61.5866 28.2996 61.5866 29.2499V61.4999ZM50.8366 47.1666C50.1279 47.1666 49.4351 47.3767 48.8458 47.7705C48.2565 48.1642 47.7972 48.7239 47.526 49.3786C47.2548 50.0334 47.1838 50.7539 47.3221 51.449C47.4604 52.1441 47.8017 52.7826 48.3028 53.2837C48.8039 53.7849 49.4424 54.1261 50.1375 54.2644C50.8326 54.4027 51.5531 54.3317 52.2079 54.0605C52.8626 53.7893 53.4223 53.33 53.816 52.7407C54.2098 52.1514 54.4199 51.4586 54.4199 50.7499C54.4199 49.7996 54.0424 48.8881 53.3704 48.2161C52.6984 47.5441 51.7869 47.1666 50.8366 47.1666Z" fill="#21E4FF"/>
</svg>
