<svg width="20" height="20" viewBox="0 0 20 20" fill="none" xmlns="http://www.w3.org/2000/svg">
<path d="M0.015625 9.71435L4.58366 5.71436L13.7197 6.28578L14.2907 15.4286L10.2937 20.0001C10.2937 20.0001 10.2943 16.5721 6.86767 13.1429C3.44108 9.71378 0.015625 9.71435 0.015625 9.71435Z" fill="#21E4FF"/>
<path d="M1.1139e-05 20.0001C1.1139e-05 20.0001 -0.020545 15.4407 1.70446 13.7144C3.42946 11.9881 8.00949 12.107 8.00949 12.107C8.00949 12.107 8.00891 16.5715 6.2959 18.2858C4.58289 20.0001 1.1139e-05 20.0001 1.1139e-05 20.0001Z" fill="#FFAC33"/>
<path d="M4.58284 17.7143C5.84427 17.7143 6.86686 16.6909 6.86686 15.4285C6.86686 14.1662 5.84427 13.1428 4.58284 13.1428C3.32142 13.1428 2.29883 14.1662 2.29883 15.4285C2.29883 16.6909 3.32142 17.7143 4.58284 17.7143Z" fill="#FFCC4D"/>
<path d="M19.9998 0C19.9998 0 14.2898 0 7.43773 5.71428C4.0117 8.57143 4.0117 13.7143 5.15371 14.8571C6.29572 16 11.4348 16 14.2898 12.5714C19.9998 5.71428 19.9998 0 19.9998 0Z" fill="#007AFF"/>
<path d="M14.8608 2.85718C13.934 2.85718 13.1403 3.41203 12.7817 4.20575C13.0684 4.07603 13.3841 4.00003 13.7188 4.00003C14.9801 4.00003 16.0028 5.02346 16.0028 6.28575C16.0028 6.62061 15.9268 6.93661 15.7978 7.22289C16.5909 6.86461 17.1448 6.07032 17.1448 5.14289C17.1448 3.88061 16.1221 2.85718 14.8608 2.85718Z" fill="#112866"/>
<path d="M4.0127 15.9999C4.0127 15.9999 4.0127 13.7142 4.5837 13.1427C5.1547 12.5713 12.0073 6.8576 12.5778 7.42846C13.1482 7.99932 7.43815 14.857 6.86714 15.4285C6.29614 15.9999 4.0127 15.9999 4.0127 15.9999Z" fill="#21E4FF"/>
</svg>
