<svg width="16" height="16" viewBox="0 0 16 16" fill="none" xmlns="http://www.w3.org/2000/svg">
<path d="M8 16C12.4183 16 16 12.4183 16 8C16 3.58172 12.4183 0 8 0C3.58172 0 0 3.58172 0 8C0 12.4183 3.58172 16 8 16Z" fill="#873BDE" fill-opacity="0.1"/>
<path fill-rule="evenodd" clip-rule="evenodd" d="M12.9048 4.78754C12.9818 4.86461 13.0251 4.96911 13.0251 5.07807C13.0251 5.18703 12.9818 5.29153 12.9048 5.3686L9.00248 9.27007C8.92542 9.3471 8.82091 9.39038 8.71195 9.39038C8.60299 9.39038 8.49849 9.3471 8.42143 9.27007L6.65806 7.50754L3.86816 10.2974C3.78972 10.3648 3.68877 10.4001 3.58544 10.3964C3.48211 10.3926 3.38399 10.35 3.31066 10.2771C3.23734 10.2042 3.19419 10.1064 3.18982 10.003C3.18545 9.89974 3.22019 9.79858 3.28711 9.71975L6.36669 6.63596C6.44375 6.55893 6.54825 6.51566 6.65722 6.51566C6.76618 6.51566 6.87068 6.55893 6.94774 6.63596L8.71195 8.39933L12.3237 4.78754C12.4008 4.71051 12.5053 4.66724 12.6143 4.66724C12.7232 4.66724 12.8277 4.71051 12.9048 4.78754Z" fill="#873BDE"/>
<path fill-rule="evenodd" clip-rule="evenodd" d="M9.73828 5.07794C9.73828 5.02397 9.74891 4.97054 9.76956 4.92068C9.79022 4.87082 9.82048 4.82552 9.85864 4.78736C9.8968 4.7492 9.94211 4.71893 9.99197 4.69827C10.0418 4.67762 10.0953 4.66699 10.1492 4.66699H12.6141C12.7231 4.66699 12.8276 4.71029 12.9047 4.78736C12.9817 4.86442 13.025 4.96895 13.025 5.07794V7.54194C13.025 7.65093 12.9817 7.75546 12.9047 7.83252C12.8276 7.90959 12.7231 7.95289 12.6141 7.95289C12.5051 7.95289 12.4006 7.90959 12.3235 7.83252C12.2464 7.75546 12.2031 7.65093 12.2031 7.54194V5.48889H10.1492C10.0402 5.48889 9.93571 5.44559 9.85864 5.36852C9.78158 5.29146 9.73828 5.18693 9.73828 5.07794Z" fill="#873BDE"/>
</svg>
