<svg width="21" height="21" viewBox="0 0 21 21" fill="none" xmlns="http://www.w3.org/2000/svg">
<path d="M16.6274 15.5787L16.5993 15.6138L16.6312 15.6455L20.3405 19.3248C20.3406 19.3249 20.3407 19.325 20.3408 19.3251C20.5118 19.5023 20.6074 19.7388 20.6074 19.985C20.6074 20.2313 20.5118 20.4679 20.3407 20.645C20.2524 20.734 20.1474 20.8046 20.0318 20.8528C19.916 20.901 19.7918 20.9258 19.6664 20.9258C19.541 20.9258 19.4168 20.901 19.3011 20.8528C19.1853 20.8045 19.0802 20.7339 18.9919 20.6448L18.9918 20.6447L15.3118 16.9647L15.2801 16.933L15.2451 16.961C13.4595 18.3931 11.1931 19.0866 8.91181 18.899C6.63055 18.7114 4.50789 17.6568 2.98029 15.9522C1.45268 14.2476 0.636249 12.0224 0.69886 9.73432C0.761471 7.44622 1.69837 5.26906 3.31691 3.65052C4.93544 2.03199 7.1126 1.09509 9.4007 1.03248C11.6888 0.969868 13.9139 1.7863 15.6186 3.31391C17.3232 4.84151 18.3777 6.96417 18.5654 9.24543C18.753 11.5267 18.0595 13.7931 16.6274 15.5787ZM5.74964 15.8619C6.909 16.6366 8.27205 17.05 9.66641 17.05C11.5362 17.05 13.3294 16.3073 14.6515 14.9851C15.9736 13.663 16.7164 11.8698 16.7164 10C16.7164 8.60567 16.3029 7.24262 15.5283 6.08326C14.7536 4.92389 13.6525 4.02027 12.3643 3.48668C11.0761 2.95308 9.65859 2.81346 8.29102 3.08549C6.92346 3.35752 5.66727 4.02896 4.68131 5.01492C3.69535 6.00088 3.0239 7.25707 2.75187 8.62464C2.47985 9.99221 2.61946 11.4097 3.15306 12.6979C3.68666 13.9862 4.59027 15.0872 5.74964 15.8619Z" fill="#A0A9C2" stroke="white" stroke-width="0.1"/>
</svg>
