<svg width="40" height="40" viewBox="0 0 40 40" fill="none" xmlns="http://www.w3.org/2000/svg">
<rect width="40" height="40" fill="#E5E5E5"/>
<g clip-path="url(#clip0_1871_2887)">
<rect width="375" height="843" transform="translate(-252 -164)" fill="white"/>
<rect x="-75" y="21" width="145" height="169" rx="12" fill="#F6F8FB"/>
<rect x="21" y="38" width="38" height="16" rx="4" fill="white"/>
<rect opacity="0.6" x="-252" y="-164" width="375" height="812" fill="#001029"/>
<path d="M-252 -8C-252 -21.2548 -241.255 -32 -228 -32H99C112.255 -32 123 -21.2548 123 -8V763H-252V-8Z" fill="white"/>
<rect x="0.5" y="0.5" width="39" height="39" rx="11.5" stroke="#E3EBFF"/>
<path d="M23.3387 22.027C22.8464 22.0302 22.3609 22.1425 21.9171 22.3557C21.4733 22.569 21.0823 22.8779 20.7721 23.2603L16.5221 21.302C16.7219 20.6901 16.7219 20.0305 16.5221 19.4186L20.7721 17.4603C21.2734 18.0653 21.9724 18.4737 22.7455 18.6135C23.5187 18.7533 24.3164 18.6155 24.9979 18.2244C25.6793 17.8333 26.2007 17.214 26.47 16.4759C26.7394 15.7378 26.7393 14.9283 26.4698 14.1902C26.2004 13.4521 25.6789 12.833 24.9973 12.442C24.3158 12.051 23.5181 11.9134 22.7449 12.0533C21.9718 12.1932 21.2729 12.6018 20.7717 13.2069C20.2705 13.8119 19.9991 14.5746 20.0054 15.3603C20.0079 15.5588 20.0274 15.7568 20.0637 15.952L15.6637 17.977C15.1946 17.5183 14.6006 17.2082 13.9561 17.0856C13.3116 16.9631 12.6452 17.0334 12.0405 17.2879C11.4357 17.5424 10.9196 17.9696 10.5566 18.5162C10.1936 19.0627 10 19.7042 10 20.3603C10 21.0164 10.1936 21.6579 10.5566 22.2044C10.9196 22.7509 11.4357 23.1782 12.0405 23.4327C12.6452 23.6871 13.3116 23.7575 13.9561 23.6349C14.6006 23.5124 15.1946 23.2023 15.6637 22.7436L20.0637 24.7686C20.0274 24.9638 20.0079 25.1618 20.0054 25.3603C20.0054 26.0196 20.2009 26.664 20.5672 27.2122C20.9335 27.7604 21.4541 28.1876 22.0631 28.4399C22.6722 28.6922 23.3424 28.7582 23.989 28.6296C24.6357 28.501 25.2296 28.1835 25.6958 27.7173C26.1619 27.2511 26.4794 26.6572 26.608 26.0106C26.7367 25.364 26.6706 24.6938 26.4183 24.0847C26.1661 23.4756 25.7388 22.955 25.1906 22.5887C24.6425 22.2224 23.998 22.027 23.3387 22.027ZM23.3387 13.6936C23.6684 13.6936 23.9906 13.7914 24.2647 13.9745C24.5388 14.1576 24.7524 14.4179 24.8785 14.7225C25.0047 15.027 25.0377 15.3621 24.9734 15.6854C24.9091 16.0087 24.7503 16.3057 24.5173 16.5388C24.2842 16.7719 23.9872 16.9306 23.6639 16.9949C23.3406 17.0592 23.0055 17.0262 22.7009 16.9001C22.3964 16.7739 22.1361 16.5603 21.953 16.2862C21.7698 16.0122 21.6721 15.6899 21.6721 15.3603C21.6721 14.9183 21.8477 14.4943 22.1602 14.1818C22.4728 13.8692 22.8967 13.6936 23.3387 13.6936ZM13.3387 22.027C13.0091 22.027 12.6869 21.9292 12.4128 21.7461C12.1387 21.5629 11.9251 21.3026 11.7989 20.9981C11.6728 20.6935 11.6398 20.3584 11.7041 20.0351C11.7684 19.7118 11.9271 19.4149 12.1602 19.1818C12.3933 18.9487 12.6903 18.79 13.0136 18.7256C13.3369 18.6613 13.672 18.6943 13.9766 18.8205C14.2811 18.9466 14.5414 19.1603 14.7245 19.4343C14.9077 19.7084 15.0054 20.0306 15.0054 20.3603C15.0054 20.8023 14.8298 21.2262 14.5173 21.5388C14.2047 21.8514 13.7808 22.027 13.3387 22.027ZM23.3387 27.027C23.0091 27.027 22.6869 26.9292 22.4128 26.7461C22.1387 26.5629 21.9251 26.3026 21.799 25.9981C21.6728 25.6935 21.6398 25.3584 21.7041 25.0351C21.7684 24.7118 21.9272 24.4149 22.1602 24.1818C22.3933 23.9487 22.6903 23.79 23.0136 23.7256C23.3369 23.6613 23.672 23.6943 23.9766 23.8205C24.2811 23.9466 24.5414 24.1603 24.7245 24.4343C24.9077 24.7084 25.0054 25.0307 25.0054 25.3603C25.0054 25.8023 24.8298 26.2262 24.5173 26.5388C24.2047 26.8514 23.7808 27.027 23.3387 27.027Z" fill="#112866"/>
</g>
<defs>
<clipPath id="clip0_1871_2887">
<rect width="375" height="843" fill="white" transform="translate(-252 -164)"/>
</clipPath>
</defs>
</svg>
