<svg width="23" height="20" viewBox="0 0 23 20" fill="none" xmlns="http://www.w3.org/2000/svg">
<path d="M8.30322 13C8.10544 13 7.9121 13.0586 7.74765 13.1685C7.5832 13.2784 7.45503 13.4346 7.37934 13.6173C7.30366 13.8 7.28385 14.0011 7.32244 14.1951C7.36102 14.3891 7.45626 14.5673 7.59612 14.7071C7.73597 14.847 7.91415 14.9422 8.10813 14.9808C8.30211 15.0194 8.50318 14.9996 8.68591 14.9239C8.86863 14.8482 9.02481 14.72 9.13469 14.5556C9.24457 14.3911 9.30322 14.1978 9.30322 14C9.30322 13.7348 9.19787 13.4804 9.01033 13.2929C8.82279 13.1054 8.56844 13 8.30322 13ZM1.30322 12C1.03801 12 0.783652 12.1054 0.596116 12.2929C0.408579 12.4804 0.303223 12.7348 0.303223 13V15C0.303223 15.2652 0.408579 15.5196 0.596116 15.7071C0.783652 15.8946 1.03801 16 1.30322 16C1.56844 16 1.82279 15.8946 2.01033 15.7071C2.19787 15.5196 2.30322 15.2652 2.30322 15V13C2.30322 12.7348 2.19787 12.4804 2.01033 12.2929C1.82279 12.1054 1.56844 12 1.30322 12ZM21.3032 12C21.038 12 20.7837 12.1054 20.5961 12.2929C20.4086 12.4804 20.3032 12.7348 20.3032 13V15C20.3032 15.2652 20.4086 15.5196 20.5961 15.7071C20.7837 15.8946 21.038 16 21.3032 16C21.5684 16 21.8228 15.8946 22.0103 15.7071C22.1979 15.5196 22.3032 15.2652 22.3032 15V13C22.3032 12.7348 22.1979 12.4804 22.0103 12.2929C21.8228 12.1054 21.5684 12 21.3032 12ZM16.3032 5H12.3032V3.72C12.6055 3.54549 12.8568 3.29491 13.0323 2.99317C13.2077 2.69143 13.3011 2.34903 13.3032 2C13.3032 1.46957 13.0925 0.960859 12.7174 0.585786C12.3424 0.210714 11.8337 0 11.3032 0C10.7728 0 10.2641 0.210714 9.88901 0.585786C9.51394 0.960859 9.30322 1.46957 9.30322 2C9.30533 2.34903 9.39874 2.69143 9.57417 2.99317C9.7496 3.29491 10.0009 3.54549 10.3032 3.72V5H6.30322C5.50757 5 4.74451 5.31607 4.1819 5.87868C3.61929 6.44129 3.30322 7.20435 3.30322 8V17C3.30322 17.7956 3.61929 18.5587 4.1819 19.1213C4.74451 19.6839 5.50757 20 6.30322 20H16.3032C17.0989 20 17.8619 19.6839 18.4245 19.1213C18.9872 18.5587 19.3032 17.7956 19.3032 17V8C19.3032 7.20435 18.9872 6.44129 18.4245 5.87868C17.8619 5.31607 17.0989 5 16.3032 5ZM13.0232 7L12.5232 9H10.0832L9.58322 7H13.0232ZM17.3032 17C17.3032 17.2652 17.1979 17.5196 17.0103 17.7071C16.8228 17.8946 16.5684 18 16.3032 18H6.30322C6.03801 18 5.78365 17.8946 5.59612 17.7071C5.40858 17.5196 5.30322 17.2652 5.30322 17V8C5.30322 7.73478 5.40858 7.48043 5.59612 7.29289C5.78365 7.10536 6.03801 7 6.30322 7H7.52322L8.30322 10.24C8.35797 10.4619 8.48707 10.6583 8.66902 10.7966C8.85097 10.9349 9.07479 11.0067 9.30322 11H13.3032C13.5317 11.0067 13.7555 10.9349 13.9374 10.7966C14.1194 10.6583 14.2485 10.4619 14.3032 10.24L15.0832 7H16.3032C16.5684 7 16.8228 7.10536 17.0103 7.29289C17.1979 7.48043 17.3032 7.73478 17.3032 8V17ZM14.3032 13C14.1054 13 13.9121 13.0586 13.7477 13.1685C13.5832 13.2784 13.455 13.4346 13.3793 13.6173C13.3037 13.8 13.2839 14.0011 13.3224 14.1951C13.361 14.3891 13.4563 14.5673 13.5961 14.7071C13.736 14.847 13.9142 14.9422 14.1081 14.9808C14.3021 15.0194 14.5032 14.9996 14.6859 14.9239C14.8686 14.8482 15.0248 14.72 15.1347 14.5556C15.2446 14.3911 15.3032 14.1978 15.3032 14C15.3032 13.7348 15.1979 13.4804 15.0103 13.2929C14.8228 13.1054 14.5684 13 14.3032 13Z" fill="#21E4FF"/>
</svg>
