<svg width="25" height="24" viewBox="0 0 25 24" fill="none" xmlns="http://www.w3.org/2000/svg">
<path d="M13.625 4H7.125C6.69402 4 6.2807 4.16857 5.97595 4.46863C5.6712 4.76869 5.5 5.17565 5.5 5.6V18.4C5.5 18.8243 5.6712 19.2313 5.97595 19.5314C6.2807 19.8314 6.69402 20 7.125 20H16.875C17.306 20 17.7193 19.8314 18.024 19.5314C18.3288 19.2313 18.5 18.8243 18.5 18.4V8.8L13.625 4Z" stroke="#112866" stroke-width="1.5" stroke-linecap="round" stroke-linejoin="round"/>
<path d="M13.5 4V9H18.5" stroke="#112866" stroke-width="1.5" stroke-linecap="round" stroke-linejoin="round"/>
<path d="M14.5 13H8.5" stroke="#112866" stroke-width="1.5" stroke-linecap="round" stroke-linejoin="round"/>
<path d="M14.5 16H8.5" stroke="#112866" stroke-width="1.5" stroke-linecap="round" stroke-linejoin="round"/>
<path d="M10.5 10H9.5H8.5" stroke="#112866" stroke-width="1.5" stroke-linecap="round" stroke-linejoin="round"/>
</svg>
