<svg width="25" height="25" viewBox="0 0 25 25" fill="none" xmlns="http://www.w3.org/2000/svg">
<path d="M23.7448 9.96983L23.7315 10.0394V10.097L23.6683 10.1301L23.5854 10.215L18.6692 15.2459L18.403 15.5183L18.4658 15.8938L19.6639 23.0569C19.6641 23.0578 19.6642 23.0586 19.6644 23.0595C19.7171 23.3987 19.5253 23.629 19.3449 23.6985H19.3447H19.3444H19.344H19.3436H19.3433H19.3429H19.3425H19.3422H19.3418H19.3414H19.3411H19.3407H19.3404H19.34H19.3396H19.3393H19.3389H19.3386H19.3382H19.3379H19.3375H19.3371H19.3368H19.3364H19.3361H19.3357H19.3354H19.335H19.3346H19.3343H19.3339H19.3336H19.3332H19.3329H19.3325H19.3322H19.3318H19.3315H19.3311H19.3308H19.3304H19.33H19.3297H19.3293H19.329H19.3286H19.3283H19.3279H19.3276H19.3272H19.3269H19.3265H19.3262H19.3258H19.3255H19.3251H19.3248H19.3244H19.3241H19.3237H19.3234H19.323H19.3227H19.3223H19.322H19.3216H19.3213H19.3209H19.3206H19.3202H19.3199H19.3195H19.3191H19.3188H19.3184H19.3181H19.3177H19.3174H19.317H19.3167H19.3163H19.316H19.3156H19.3152H19.3149H19.3145H19.3142H19.3138H19.3135H19.3131H19.3127H19.3124H19.312H19.3117H19.3113H19.311H19.3106H19.3102H19.3099H19.3095H19.3091H19.3088H19.3084H19.3081H19.3077H19.3073H19.307H19.3066H19.3062H19.3059H19.3055H19.3051H19.3048H19.3044H19.304H19.3036H19.3033H19.3029H19.3025H19.3022H19.3018H19.3014H19.301H19.3007H19.3003H19.2999H19.2995H19.2991H19.2988H19.2984H19.298H19.2976H19.2972H19.2968H19.2965H19.2961H19.2957H19.2953H19.2949H19.2945H19.2941H19.2937H19.2933H19.293H19.2926H19.2922H19.2918H19.2914H19.291H19.2906H19.2902H19.2898H19.2894H19.289H19.2886H19.2882H19.2878H19.2873H19.2869H19.2865H19.2861H19.2857H19.2853H19.2849H19.2845H19.284H19.2836H19.2832H19.2828H19.2824H19.2819H19.2815H19.2811H19.2807H19.2802H19.2798H19.2794H19.2789H19.2785H19.2781H19.2776H19.2772H19.2768H19.2763H19.2759H19.2754H19.275H19.2746H19.2741H19.2737H19.2732H19.2728H19.2723H19.2719H19.2714H19.2709H19.2705H19.27H19.2696H19.2691H19.2686H19.2682H19.2677H19.2672H19.2668H19.2663H19.2658H19.2653H19.2649H19.2644H19.2639H19.2634H19.2629H19.2624H19.262H19.2615H19.261H19.2605H19.26H19.2595H19.259H19.2585H19.258H19.2575H19.257H19.2565H19.256H19.2555H19.2549H19.2544H19.2539H19.2534H19.2529H19.2523H19.2518H19.2513H19.2508H19.2502H19.2497H19.2492H19.2486H19.2481H19.2476H19.247H19.2465H19.2459H19.2454H19.2448H19.2443H19.2437H19.2432H19.2426H19.2421H19.2415H19.2409H19.2404H19.2398H19.2392H19.2386H19.2381H19.2375H19.2369H19.2363H19.2357H19.2352H19.2346H19.234H19.2334H19.2328H19.2322H19.2316H19.231H19.2304H19.2298H19.2292H19.2286H19.2279H19.2273H19.2267H19.2261H19.2255H19.2248H19.2242H19.2236H19.2229H19.2223H19.2217H19.221H19.2204H19.2197H19.2191H19.2184H19.2178H19.2171H19.2165H19.2158H19.2151H19.2145H19.2138H19.2131H19.2125H19.2118H19.2111H19.2104H19.2097H19.2091H19.2084H19.2077H19.207H19.2063H19.2056C19.1432 23.6985 19.0961 23.6984 19.0529 23.697C19.0412 23.6966 19.0307 23.6961 19.0215 23.6956L18.9701 23.667L12.8549 20.2711L12.4908 20.069L12.1266 20.2711L6.01136 23.667L5.99338 23.677L5.97598 23.688C5.86639 23.7569 5.76556 23.7627 5.67131 23.7331C5.57385 23.7024 5.45666 23.623 5.36381 23.4741C5.33775 23.4082 5.32849 23.3253 5.32706 23.1261L6.51566 16.0196L6.57847 15.644L6.31234 15.3717L1.39999 10.3447C1.19915 10.1315 1.20001 9.8341 1.40256 9.62163L1.4852 9.53495L1.51123 9.48036C1.52804 9.47835 1.55043 9.47679 1.57917 9.47679H1.63408L1.6884 9.4688L8.52313 8.46261L8.92601 8.4033L9.09569 8.0331L12.0771 1.52842C12.1702 1.37794 12.2881 1.29776 12.3861 1.26692C12.4804 1.23727 12.5812 1.24307 12.6908 1.31204L12.7158 1.32776L12.7419 1.34148C12.8132 1.37887 12.8299 1.39668 12.8321 1.39902L12.8322 1.39918L12.8324 1.39931C12.8352 1.40226 12.8544 1.42237 12.8929 1.5031L16.0105 8.04332L16.1826 8.40436L16.5783 8.46261L23.413 9.4688L23.4673 9.47679H23.5159C23.5211 9.47851 23.5769 9.49368 23.6494 9.60145C23.7372 9.73184 23.762 9.87954 23.7448 9.96983Z" stroke="#112866" stroke-opacity="0.4" stroke-width="1.5"/>
</svg>
