<svg width="21" height="12" viewBox="0 0 21 12" fill="none" xmlns="http://www.w3.org/2000/svg">
<path fill-rule="evenodd" clip-rule="evenodd" d="M20.7 0.8C20.3 0.4 19.7 0.4 19.3 0.8L13 7.1L8.7 2.8C8.5 2.6 8.3 2.5 8 2.5C7.7 2.5 7.5 2.6 7.3 2.8L2 8.1V7.5C2 6.94772 1.55228 6.5 1 6.5C0.447715 6.5 0 6.94772 0 7.5V10.5C0 11.0523 0.447715 11.5 1 11.5H4C4.55228 11.5 5 11.0523 5 10.5C5 9.94772 4.55228 9.5 4 9.5H3.4L8 4.9L12.3 9.2C12.4 9.3 12.5 9.4 12.6 9.4C12.7 9.5 12.9 9.5 13 9.5C13.2 9.5 13.5 9.4 13.6 9.2H13.7L20.7 2.2C21.1 1.8 21.1 1.2 20.7 0.8Z" fill="#FB6D6F"/>
</svg>
