<svg width="20" height="10" viewBox="0 0 20 10" fill="none" xmlns="http://www.w3.org/2000/svg">
<path fill-rule="evenodd" clip-rule="evenodd" d="M19.0767 0.00314013C19.5901 0.0420728 19.9952 0.468732 20 0.991029C20 0.994097 20 0.997169 20 1.00024V4.00024C20 4.55253 19.5523 5.00024 19 5.00024C18.4477 5.00024 18 4.55253 18 4.00024V3.4L12.7 8.7H12.6C12.5 8.9 12.2 9 12 9C11.9 9 11.7 9 11.6 8.9C11.5 8.9 11.4 8.8 11.3 8.7L7 4.4L1.7 9.7C1.5 9.9 1.3 10 1 10C0.4 10 0 9.6 0 9C0 8.7 0.0999999 8.5 0.3 8.3L6.3 2.3C6.5 2.1 6.7 2 7 2C7.3 2 7.5 2.1 7.7 2.3L12 6.6L16.5998 2.00024H16C15.4477 2.00024 15 1.55253 15 1.00024C15 0.447959 15.4477 0.000244133 16 0.000244133H18.9786C19.0113 -0.000502149 19.044 0.000462533 19.0767 0.00313818" fill="#01D4A2"/>
</svg>
