<svg width="20" height="21" viewBox="0 0 20 21" fill="none" xmlns="http://www.w3.org/2000/svg">
<rect width="20" height="21" fill="#E5E5E5"/>
<rect width="375" height="1108" transform="translate(-174 -659)" fill="white"/>
<rect x="-158" y="-60" width="335" height="95" rx="12" fill="#F6F8FB"/>
<g clip-path="url(#clip0_1871_2887)">
<path d="M10 20.5C15.5228 20.5 20 16.0228 20 10.5C20 4.97715 15.5228 0.5 10 0.5C4.47715 0.5 0 4.97715 0 10.5C0 16.0228 4.47715 20.5 10 20.5Z" fill="#873BDE" fill-opacity="0.2"/>
<path fill-rule="evenodd" clip-rule="evenodd" d="M15.9004 6.39872C15.9953 6.49368 16.0486 6.62244 16.0486 6.75669C16.0486 6.89095 15.9953 7.01971 15.9004 7.11466L11.0922 11.9218C10.9972 12.0167 10.8685 12.0701 10.7342 12.0701C10.5999 12.0701 10.4712 12.0167 10.3762 11.9218L8.2035 9.75015L4.76596 13.1877C4.66931 13.2707 4.54492 13.3142 4.4176 13.3096C4.29028 13.305 4.16939 13.2525 4.07904 13.1627C3.98869 13.0728 3.93552 12.9523 3.93014 12.825C3.92476 12.6977 3.96757 12.573 4.05002 12.4759L7.8445 8.67624C7.93945 8.58133 8.06821 8.52801 8.20247 8.52801C8.33672 8.52801 8.46548 8.58133 8.56044 8.67624L10.7342 10.849L15.1844 6.39872C15.2794 6.30381 15.4081 6.25049 15.5424 6.25049C15.6767 6.25049 15.8054 6.30381 15.9004 6.39872Z" fill="#873BDE"/>
<path fill-rule="evenodd" clip-rule="evenodd" d="M11.999 6.75659C11.999 6.6901 12.0121 6.62425 12.0376 6.56282C12.063 6.50139 12.1003 6.44557 12.1473 6.39855C12.1943 6.35153 12.2502 6.31423 12.3116 6.28879C12.373 6.26334 12.4389 6.25024 12.5054 6.25024H15.5424C15.6767 6.25024 15.8055 6.30359 15.9005 6.39855C15.9954 6.49351 16.0488 6.6223 16.0488 6.75659V9.79259C16.0488 9.92688 15.9954 10.0557 15.9005 10.1506C15.8055 10.2456 15.6767 10.2989 15.5424 10.2989C15.4081 10.2989 15.2793 10.2456 15.1844 10.1506C15.0894 10.0557 15.0361 9.92688 15.0361 9.79259V7.26294H12.5054C12.3711 7.26294 12.2423 7.20959 12.1473 7.11463C12.0524 7.01967 11.999 6.89088 11.999 6.75659Z" fill="#873BDE"/>
</g>
<defs>
<clipPath id="clip0_1871_2887">
<rect width="20" height="20" fill="white" transform="translate(0 0.5)"/>
</clipPath>
</defs>
</svg>
