<svg width="118" height="22" viewBox="0 0 118 22" fill="none" xmlns="http://www.w3.org/2000/svg">
<g filter="url(#filter0_i_2754_6572)">
<path d="M13.8158 2.24889C13.8158 1.00687 14.8227 0 16.0647 0C17.3068 0 18.3136 1.00686 18.3136 2.24889V13.2698C18.3136 14.4804 18.0794 15.6212 17.6108 16.6921C17.1658 17.7397 16.545 18.6593 15.7485 19.4508C14.952 20.2423 14.015 20.8709 12.9374 21.3365C11.8832 21.7788 10.747 22 9.52888 22C8.31073 22 7.16286 21.7788 6.08526 21.3365C5.0311 20.8709 4.10577 20.2423 3.30929 19.4508C2.5128 18.6593 1.8803 17.7397 1.41178 16.6921C0.966687 15.6212 0.744141 14.4804 0.744141 13.2698V2.24889C0.744141 1.00687 1.75101 0 2.99304 0C4.23506 0 5.24193 1.00686 5.24193 2.24889V13.2698C5.24193 13.8519 5.34735 14.4106 5.55818 14.946C5.79244 15.4582 6.09698 15.9122 6.47179 16.3079C6.87004 16.6804 7.32684 16.9831 7.84221 17.2159C8.38101 17.4254 8.94323 17.5302 9.52888 17.5302C10.1145 17.5302 10.665 17.4254 11.1804 17.2159C11.7192 16.9831 12.176 16.6804 12.5508 16.3079C12.9491 15.9122 13.2536 15.4582 13.4644 14.946C13.6987 14.4106 13.8158 13.8519 13.8158 13.2698V2.24889Z" fill="url(#paint0_linear_2754_6572)"/>
<path d="M31.6596 0C32.62 0 33.5219 0.186244 34.3653 0.558731C35.2086 0.931217 35.9348 1.43175 36.5439 2.06032C37.1764 2.68889 37.6683 3.42222 38.0197 4.26032C38.3945 5.09841 38.582 5.99471 38.582 6.94921C38.582 7.7873 38.4414 8.59048 38.1603 9.35873C37.8792 10.1037 37.4926 10.7788 37.0007 11.3841C36.5088 11.9661 35.9231 12.4667 35.2438 12.8857C34.5644 13.2815 33.8265 13.5608 33.03 13.7238H32.8136H28.7823C27.5962 13.7238 26.6347 12.7623 26.6347 11.5762C26.6347 10.3901 27.5962 9.42857 28.7823 9.42857H31.6244C32.3038 9.40529 32.8894 9.16085 33.3814 8.69524C33.8733 8.20635 34.1193 7.62434 34.1193 6.94921C34.1193 6.32064 33.9202 5.78519 33.5219 5.34286C33.1237 4.87725 32.62 4.58625 32.011 4.46984H26.1552C25.275 4.46984 24.5615 5.18334 24.5615 6.06349V19.7511C24.5615 20.9931 23.5546 22 22.3126 22C21.0706 22 20.0637 20.9931 20.0637 19.7511V2C20.0637 0.89543 20.9591 0 22.0637 0H31.6596Z" fill="url(#paint1_linear_2754_6572)"/>
<path d="M59.0029 2.23492C59.0029 3.46923 58.0023 4.46984 56.768 4.46984H52.5821C52.2275 4.46984 51.94 4.75731 51.94 5.11193V19.7511C51.94 20.9931 50.9331 22 49.6911 22C48.4491 22 47.4422 20.9931 47.4422 19.7511V5.11512C47.4422 4.75874 47.1533 4.46984 46.7969 4.46984H42.579C41.3447 4.46984 40.3441 3.46923 40.3441 2.23492C40.3441 1.00061 41.3447 0 42.579 0H56.768C58.0023 0 59.0029 1.00061 59.0029 2.23492Z" fill="url(#paint2_linear_2754_6572)"/>
<path d="M73.8335 2.2489C73.8335 1.00687 74.8403 0 76.0824 0C77.3244 0 78.3313 1.00686 78.3313 2.24889V13.2698C78.3313 14.4804 78.097 15.6212 77.6285 16.6921C77.1834 17.7397 76.5626 18.6593 75.7661 19.4508C74.9696 20.2423 74.0326 20.8709 72.955 21.3365C71.9008 21.7788 70.7647 22 69.5465 22C68.3284 22 67.1805 21.7788 66.1029 21.3365C65.0487 20.8709 64.1234 20.2423 63.3269 19.4508C62.5304 18.6593 61.8979 17.7397 61.4294 16.6921C60.9843 15.6212 60.7618 14.4804 60.7618 13.2698V2.2489C60.7618 1.00687 61.7687 0 63.0107 0C64.2527 0 65.2596 1.00686 65.2596 2.24889V13.2698C65.2596 13.8519 65.365 14.4106 65.5758 14.946C65.8101 15.4582 66.1146 15.9122 66.4894 16.3079C66.8877 16.6804 67.3445 16.9831 67.8599 17.2159C68.3987 17.4254 68.9609 17.5302 69.5465 17.5302C70.1322 17.5302 70.6827 17.4254 71.1981 17.2159C71.7369 16.9831 72.1937 16.6804 72.5685 16.3079C72.9667 15.9122 73.2713 15.4582 73.4821 14.946C73.7163 14.4106 73.8335 13.8519 73.8335 13.2698V2.2489Z" fill="url(#paint3_linear_2754_6572)"/>
<path d="M98.6699 6.53016C98.6699 7.41482 98.5059 8.24127 98.1779 9.00952C97.8734 9.7545 97.4517 10.418 96.9129 11C97.4517 11.582 97.8734 12.2571 98.1779 13.0254C98.5059 13.7704 98.6699 14.5735 98.6699 15.4349V19.7862C98.6699 21.0089 97.6787 22 96.4561 22C95.2335 22 94.2424 21.0089 94.2424 19.7862V15.4349C94.2424 14.8063 94.0198 14.2709 93.5747 13.8286C93.1296 13.3862 92.5908 13.1534 91.9583 13.1302H88.5891C87.403 13.1302 86.4415 12.1686 86.4415 10.9825C86.4415 9.79644 87.403 8.83492 88.5891 8.83492H92.1692C92.7548 8.78836 93.2468 8.54392 93.645 8.10159C94.0433 7.65926 94.2424 7.13545 94.2424 6.53016C94.2424 5.94815 94.0433 5.44762 93.645 5.02857C93.2702 4.58625 92.8017 4.31852 92.2394 4.2254H84.5791V19.7511C84.5791 20.9931 83.5723 22 82.3303 22C81.0882 22 80.0814 20.9931 80.0814 19.7511V2C80.0814 0.89543 80.9768 0 82.0814 0H92.1692C93.0593 0 93.9027 0.174604 94.6992 0.523811C95.4957 0.873017 96.1867 1.35027 96.7724 1.95556C97.358 2.53757 97.8148 3.22434 98.1428 4.01587C98.4942 4.78413 98.6699 5.62222 98.6699 6.53016Z" fill="url(#paint4_linear_2754_6572)"/>
<path d="M109.215 0C110.433 0 111.569 0.232804 112.624 0.698414C113.701 1.14074 114.638 1.75767 115.435 2.54921C116.231 3.34074 116.852 4.27196 117.297 5.34286C117.766 6.39048 118 7.51958 118 8.73016V19.7511C118 20.9931 116.993 22 115.751 22C114.509 22 113.502 20.9931 113.502 19.7511V8.73016C113.502 8.14815 113.385 7.60106 113.151 7.08889C112.94 6.55344 112.635 6.09947 112.237 5.72698C111.862 5.33122 111.405 5.02857 110.867 4.81905C110.351 4.58624 109.801 4.46984 109.215 4.46984C108.629 4.46984 108.067 4.58624 107.528 4.81905C107.013 5.02857 106.556 5.33122 106.158 5.72698C105.783 6.09947 105.479 6.55344 105.244 7.08889C105.034 7.60106 104.928 8.14815 104.928 8.73016V19.7511C104.928 20.9931 103.921 22 102.679 22C101.437 22 100.43 20.9931 100.43 19.7511V8.73016C100.43 7.51958 100.653 6.39048 101.098 5.34286C101.567 4.27196 102.199 3.34074 102.996 2.54921C103.792 1.75767 104.717 1.14074 105.772 0.698414C106.849 0.232804 107.997 0 109.215 0Z" fill="url(#paint5_linear_2754_6572)"/>
</g>
<defs>
<filter id="filter0_i_2754_6572" x="0.744141" y="-2.44444" width="117.256" height="24.4444" filterUnits="userSpaceOnUse" color-interpolation-filters="sRGB">
<feFlood flood-opacity="0" result="BackgroundImageFix"/>
<feBlend mode="normal" in="SourceGraphic" in2="BackgroundImageFix" result="shape"/>
<feColorMatrix in="SourceAlpha" type="matrix" values="0 0 0 0 0 0 0 0 0 0 0 0 0 0 0 0 0 0 127 0" result="hardAlpha"/>
<feOffset dy="-2.44444"/>
<feGaussianBlur stdDeviation="1.22222"/>
<feComposite in2="hardAlpha" operator="arithmetic" k2="-1" k3="1"/>
<feColorMatrix type="matrix" values="0 0 0 0 0 0 0 0 0 0 0 0 0 0 0 0 0 0 0.19 0"/>
<feBlend mode="normal" in2="shape" result="effect1_innerShadow_2754_6572"/>
</filter>
<linearGradient id="paint0_linear_2754_6572" x1="118" y1="11" x2="0.744141" y2="11" gradientUnits="userSpaceOnUse">
<stop offset="0.148682" stop-color="#007AFF"/>
<stop offset="0.590005" stop-color="#2087F8"/>
<stop offset="0.73911" stop-color="#00C2FF"/>
<stop offset="1" stop-color="#01CCE9"/>
</linearGradient>
<linearGradient id="paint1_linear_2754_6572" x1="118" y1="11" x2="0.744141" y2="11" gradientUnits="userSpaceOnUse">
<stop offset="0.148682" stop-color="#007AFF"/>
<stop offset="0.590005" stop-color="#2087F8"/>
<stop offset="0.73911" stop-color="#00C2FF"/>
<stop offset="1" stop-color="#01CCE9"/>
</linearGradient>
<linearGradient id="paint2_linear_2754_6572" x1="118" y1="11" x2="0.744141" y2="11" gradientUnits="userSpaceOnUse">
<stop offset="0.148682" stop-color="#007AFF"/>
<stop offset="0.590005" stop-color="#2087F8"/>
<stop offset="0.73911" stop-color="#00C2FF"/>
<stop offset="1" stop-color="#01CCE9"/>
</linearGradient>
<linearGradient id="paint3_linear_2754_6572" x1="118" y1="11" x2="0.744141" y2="11" gradientUnits="userSpaceOnUse">
<stop offset="0.148682" stop-color="#007AFF"/>
<stop offset="0.590005" stop-color="#2087F8"/>
<stop offset="0.73911" stop-color="#00C2FF"/>
<stop offset="1" stop-color="#01CCE9"/>
</linearGradient>
<linearGradient id="paint4_linear_2754_6572" x1="118" y1="11" x2="0.744141" y2="11" gradientUnits="userSpaceOnUse">
<stop offset="0.148682" stop-color="#007AFF"/>
<stop offset="0.590005" stop-color="#2087F8"/>
<stop offset="0.73911" stop-color="#00C2FF"/>
<stop offset="1" stop-color="#01CCE9"/>
</linearGradient>
<linearGradient id="paint5_linear_2754_6572" x1="118" y1="11" x2="0.744141" y2="11" gradientUnits="userSpaceOnUse">
<stop offset="0.148682" stop-color="#007AFF"/>
<stop offset="0.590005" stop-color="#2087F8"/>
<stop offset="0.73911" stop-color="#00C2FF"/>
<stop offset="1" stop-color="#01CCE9"/>
</linearGradient>
</defs>
</svg>
